<svg version="1.2" baseProfile="tiny-ps" xmlns="http://www.w3.org/2000/svg" viewBox="0 0 3000 3015" width="3000" height="3015">
	<title>Path 0</title>
	<style>
		tspan { white-space:pre }
		.s0 { fill: #b4b5b7 } 
		.s1 { fill: #141618 } 
		.s2 { fill: #ececec } 
		.s3 { opacity: .1;fill: #1c1e20 } 
		.s4 { fill: #ebebeb } 
	</style>

	<g id="Layer 1">
		<path id="Path 0" fill-rule="evenodd" class="s0" d="m1151 0.17c11.82-0.09 26.68 0.3 33 0.87c6.33 0.57 15.78 1.74 21 2.59c5.22 0.86 15.35 2.88 22.5 4.49c7.15 1.61 19.97 4.99 28.5 7.51c8.52 2.52 21.35 6.61 28.5 9.09c7.15 2.48 18.4 6.67 25 9.3c6.6 2.63 17.17 7.22 23.5 10.2c6.32 2.98 19.15 9.59 28.5 14.69c9.35 5.1 23.3 13.47 31 18.61c7.7 5.13 19.37 13.53 25.94 18.65c6.57 5.13 17.57 14.27 24.45 20.32c6.88 6.05 17.93 16.88 24.56 24.08c6.63 7.19 15.87 17.69 20.55 23.34c4.67 5.64 13 16.64 18.5 24.44c5.5 7.8 13.66 20.02 18.13 27.16c4.47 7.14 11.07 18.83 14.66 25.98c3.59 7.15 9.43 19.98 12.99 28.5c3.55 8.52 8.31 21.13 10.57 28c2.26 6.87 5.94 19.02 8.18 27c2.24 7.97 7.18 27.1 10.99 42.5c3.8 15.4 9.6 40.6 12.88 56c3.28 15.4 7.32 35.65 8.97 45c1.65 9.35 3.7 21.27 4.55 26.5c0.85 5.23 2.01 11.19 2.57 13.25c0.96 3.54 1.4 3.87 7.77 5.8c3.71 1.13 14.4 3.59 23.75 5.47c9.35 1.88 27.12 5.01 39.5 6.96c12.37 1.95 31.27 5.14 42 7.1c10.73 1.96 30.53 5.82 44 8.58c13.48 2.76 34.18 7.43 46 10.37c11.82 2.94 32.75 8.54 46.5 12.45c13.75 3.91 34.45 9.99 46 13.51c11.55 3.52 31.13 9.83 43.5 14.02c12.37 4.19 32.17 11.44 44 16.12c11.82 4.68 29.6 12.47 39.5 17.33c9.9 4.85 24.75 13.04 33 18.2c8.25 5.16 22.88 14.83 32.5 21.49c9.62 6.66 26.39 18.69 57 41.34l23.24-23.75c12.78-13.06 29.54-29.87 37.25-37.35c7.71-7.48 19.41-18.46 26.01-24.4c6.6-5.94 17.63-15.51 24.5-21.26c6.88-5.75 18.13-14.56 25-19.57c6.88-5.02 21.28-14.98 32-22.15c10.73-7.17 23.1-14.9 27.5-17.19c4.4-2.28 12.5-5.94 18-8.12c5.5-2.18 17.65-6.46 27-9.5c9.35-3.04 25.33-7.57 35.5-10.08c10.17-2.5 22.55-5.22 27.5-6.05c4.95-0.83 13.72-1.97 19.5-2.55c5.78-0.57 19.05-1.04 29.5-1.04c10.45 0 24.85 0.46 32 1.02c7.15 0.56 18.4 1.7 25 2.54c6.6 0.83 17.18 2.83 23.5 4.42c6.32 1.6 17.12 4.85 24 7.24c6.88 2.38 15.88 6.25 20 8.6c4.12 2.35 12.45 7.93 18.5 12.41c6.05 4.48 16.17 13.36 22.5 19.73c6.32 6.37 14.04 15.18 17.15 19.57c3.11 4.39 7.05 10.24 8.76 12.99c1.71 2.75 4.93 10.17 7.16 16.5c2.23 6.32 5.34 16.68 6.92 23c1.58 6.33 3.68 16.45 4.68 22.5c1.25 7.58 1.8 16.13 1.78 27.5c-0.02 10.63-0.65 20.41-1.78 27.5c-0.96 6.05-2.89 15.5-4.29 21c-1.4 5.5-4.37 14.95-6.6 21c-2.23 6.05-6.63 16.63-15.53 36l3.86 18c2.12 9.9 4.75 24.08 5.84 31.5c1.09 7.43 2.51 20.7 3.15 29.5c0.89 12.3 0.88 19.24-0.04 30c-0.66 7.7-2.28 19.85-3.61 27c-1.32 7.15-3.8 17.73-5.5 23.5c-1.83 6.2-3.33 13.98-3.66 19c-0.5 7.54-0.22 9.68 2.52 19c1.7 5.77 4.27 15.67 5.71 22c1.44 6.33 3.49 16.56 4.56 22.75c1.3 7.56 1.93 15.92 1.92 25.5c0 7.84-0.67 19.88-1.48 26.75c-0.81 6.88-2.38 18.91-5.51 41l27.82 54.5l0.49 55.5c0.3 33.49 0.97 59.47 1.69 65.5c0.66 5.5 2 12.25 2.99 15c0.99 2.75 3.68 10.17 5.98 16.5c2.3 6.33 5.04 15.1 6.09 19.5c1.05 4.4 2.59 15.2 3.43 24c0.88 9.22 1.53 26.06 1.52 39.75c0 13.06-0.48 28.14-1.07 33.5c-0.58 5.36-1.74 13.13-2.57 17.25c-0.83 4.12-3.08 12.23-5 18c-1.92 5.77-5.94 15.45-8.94 21.5c-3 6.05-7.81 14.14-10.69 17.98c-2.88 3.84-9.29 11.21-14.24 16.39c-4.95 5.18-12.38 11.97-16.5 15.1c-4.13 3.12-14.25 10.2-22.5 15.73c-8.25 5.53-17.19 12.25-19.87 14.93c-4.41 4.42-4.82 5.21-4.32 8.38c0.31 1.93 2.13 10.7 4.05 19.5c1.92 8.8 9.66 46.37 17.19 83.5c7.54 37.12 13.93 68.62 14.21 70c0.28 1.37 0.84 2.95 1.26 3.5c0.41 0.55 7.22 5.15 15.12 10.22c7.9 5.07 17.72 12.05 21.82 15.5c4.1 3.45 10.76 10.1 14.79 14.78c5.63 6.51 8.98 11.77 14.34 22.5c3.85 7.7 8.75 19.4 10.9 26c2.15 6.6 4.61 16.05 5.48 21c0.87 4.95 2.06 17.1 2.65 27c0.65 10.98 0.82 33.41 0.43 57.5c-0.35 21.72-1.07 54.57-1.6 73c-0.53 18.42-1.43 39.57-2 47c-0.56 7.43-1.91 19.01-2.99 25.75c-1.08 6.74-4.02 20.46-6.53 30.5c-2.52 10.04-7 26.58-9.95 36.75c-2.96 10.17-8.1 26.6-11.43 36.5c-3.33 9.9-6.05 18.45-6.06 19c-0.01 0.55 1.91 1.32 4.26 1.72c2.35 0.4 13.71 2.11 25.26 3.81c11.55 1.7 28.65 4.66 38 6.59c9.35 1.92 21.27 4.57 26.5 5.89c5.22 1.31 13.78 3.81 19 5.56c5.22 1.74 13.89 4.92 19.25 7.06c5.36 2.14 13.46 5.74 18 8.01c4.54 2.27 11.85 6.47 16.25 9.35c4.4 2.87 12.05 8.37 17 12.21c4.95 3.84 13.23 10.99 18.39 15.9c5.17 4.91 13.19 13.65 17.84 19.42c4.64 5.77 12.06 15.9 16.49 22.5c4.42 6.6 10.65 17.4 13.83 24c3.18 6.6 7.58 16.5 9.77 22c2.19 5.5 5.15 13.6 6.56 18c1.42 4.4 3.59 12.05 4.83 17c1.97 7.88 2.25 11.55 2.25 29.5c0 11.27-0.57 25.22-1.26 31c-0.69 5.78-2.41 17.48-3.82 26c-1.41 8.52-3.68 19.1-5.05 23.5c-1.37 4.4-5.34 13.85-8.83 21c-3.49 7.15-8.58 16.38-11.31 20.5c-2.74 4.12-9.89 12.9-15.91 19.5c-6.01 6.6-15.6 16.05-21.29 21c-5.7 4.95-14.66 12.88-19.92 17.61c-5.26 4.74-14.37 13.96-20.25 20.5c-5.88 6.54-13.08 14.97-16 18.75c-2.92 3.77-8.61 10.97-12.63 16c-4.02 5.03-11.67 13.82-17 19.54c-5.33 5.72-13.96 13.61-19.19 17.53c-5.22 3.92-13.55 9.64-18.5 12.7c-4.95 3.07-11.92 7.05-15.5 8.86c-3.57 1.81-11.11 5.02-16.75 7.14c-5.64 2.12-18.01 6.13-27.5 8.9c-9.73 2.84-21.17 6.97-26.25 9.47c-5.6 2.75-11.64 6.77-16 10.64c-3.85 3.42-11.5 9.56-17 13.65c-5.5 4.09-12.92 9.16-16.5 11.27c-3.58 2.11-11 5.62-16.5 7.8c-5.5 2.18-14.5 4.91-20 6.06c-6.43 1.35-12.86 3.52-18 6.09c-4.4 2.2-15.04 9.28-23.65 15.74c-8.61 6.45-21.43 15.21-28.5 19.46c-7.07 4.25-16.9 9.48-21.85 11.62c-4.95 2.14-12.15 4.6-16 5.47c-3.85 0.87-13.08 2.11-20.5 2.76c-7.61 0.66-34.01 1.23-60.5 1.3c-40.69 0.11-48.41-0.11-57.5-1.64c-5.78-0.97-18.83-3.8-29-6.28c-10.17-2.48-25.47-6.57-34-9.08c-8.52-2.51-21.13-6.6-28-9.08c-6.88-2.49-16.1-6.33-20.5-8.55c-4.4-2.21-11.82-6.39-16.5-9.29c-4.67-2.89-14.13-9.2-21-14.01c-6.88-4.81-18.46-13.18-39-28.45l-44.25 20.61c-24.34 11.34-53.7 24.89-65.25 30.13c-11.55 5.23-31.8 14.24-45 20.01c-13.2 5.77-33.68 14.53-45.5 19.46c-11.82 4.93-31.18 12.7-43 17.26c-11.82 4.56-32.3 12.22-45.5 17.02c-13.2 4.8-32.55 11.62-43 15.16c-10.45 3.54-28.68 9.33-40.5 12.86c-11.82 3.53-32.3 9.39-45.5 13.01c-13.2 3.62-34.8 9.23-48 12.46c-13.2 3.23-36.38 8.65-51.5 12.03c-15.12 3.38-36.27 7.92-47 10.08c-10.73 2.16-24.45 4.59-30.5 5.39c-6.05 0.8-17.52 2.04-25.5 2.74c-10.02 0.88-35.33 1.28-82 1.27c-46.88 0-72.08-0.4-82.5-1.3c-8.25-0.71-19.95-1.98-26-2.81c-6.05-0.83-19.55-3.25-30-5.37c-10.45-2.12-29.35-6.17-42-8.99c-12.65-2.82-31.55-7.15-42-9.63c-10.45-2.48-27.55-6.76-38-9.53c-10.45-2.76-29.35-7.95-42-11.53c-12.65-3.58-32.45-9.44-44-13.02c-11.55-3.58-32.93-10.7-47.5-15.83c-14.58-5.13-34.38-12.23-44-15.79c-9.63-3.56-24.47-9.26-33-12.67c-8.53-3.41-24.95-10.17-36.5-15.02c-11.55-4.85-30.67-13.07-42.5-18.28c-11.83-5.21-33.65-15.1-48.5-21.98c-14.85-6.88-43.76-20.44-101.5-47.74l-17.25 12.71c-9.49 6.99-22.65 16.16-29.25 20.37c-6.6 4.21-16.5 10.17-22 13.24c-5.5 3.07-15.17 7.65-21.5 10.18c-6.32 2.53-18.47 6.85-27 9.58c-8.53 2.73-24.5 7.23-35.5 9.99c-11 2.76-24.95 5.89-31 6.95c-6.05 1.06-15.95 2.44-22 3.06c-6.05 0.62-26.75 1.12-46 1.12c-19.25 0-40.85-0.51-48-1.12c-7.15-0.61-17.05-1.79-22-2.61c-4.95-0.82-11.93-2.45-15.5-3.62c-3.57-1.17-10.44-4.08-15.25-6.48c-4.81-2.4-11.79-6.23-15.5-8.51c-3.71-2.28-11.7-7.78-17.75-12.2c-6.05-4.43-14.37-10.14-18.5-12.71c-4.13-2.56-11.1-6.46-15.5-8.67c-4.4-2.21-12.95-5.67-19-7.69c-6.05-2.02-17.3-6.76-25-10.52c-7.7-3.76-18.05-9.52-23-12.8c-4.95-3.27-13.16-9.17-18.25-13.1c-5.09-3.93-10.26-8.51-11.5-10.18c-1.67-2.25-4.17-3.65-9.75-5.46c-4.13-1.34-11.33-3.39-16-4.55c-4.68-1.17-14.58-4.14-22-6.62c-7.42-2.48-19.8-7.58-27.5-11.33c-7.7-3.76-19.63-10.51-26.5-15.01c-9.96-6.51-15.15-10.86-25.5-21.34c-7.15-7.24-17.57-19.24-23.15-26.66c-5.58-7.42-14.63-18.45-20.11-24.5c-5.48-6.05-19.14-19.61-30.35-30.14c-11.21-10.53-26.24-25.15-33.4-32.5c-7.16-7.35-16.06-17.41-19.78-22.36c-3.72-4.95-7.84-11.25-9.16-14c-1.32-2.75-3.76-9.05-5.42-14c-1.66-4.95-4.37-14.4-6.03-21c-1.66-6.6-3.91-17.4-5-24c-1.1-6.6-2.52-16.73-3.17-22.5c-0.74-6.57-0.97-17.24-0.6-28.5c0.36-11.23 1.3-21.76 2.5-28c1.05-5.5 3.81-15.63 6.12-22.5c2.31-6.87 7.07-18.35 10.57-25.5c3.5-7.15 10.55-19.63 15.68-27.73c5.12-8.1 12.01-18.45 15.32-22.99c3.3-4.54 11.4-13.66 18-20.27c7.87-7.88 16.38-15.11 24.74-21.01c7-4.95 18.93-12.74 26.5-17.3c11.25-6.79 16.23-9.1 27.26-12.69c7.42-2.42 21.49-6.44 31.25-8.95c9.76-2.51 27.76-6.56 40-9c12.24-2.44 29.68-5.41 38.75-6.6c9.07-1.18 16.72-2.34 17-2.57c0.27-0.23-2.36-8.17-5.86-17.65c-3.5-9.48-9.25-27.36-12.78-39.74c-3.53-12.37-7.97-29.7-9.86-38.5c-1.89-8.8-4.81-24.33-6.48-34.5c-1.67-10.17-3.92-26.38-4.98-36c-1.07-9.63-2.52-26.05-3.23-36.5c-0.74-10.85-1.3-37.67-1.3-62.5c-0.01-29.78 0.4-46.81 1.29-54c0.72-5.77 2.21-15.9 3.32-22.5c1.11-6.6 3.72-18.75 5.8-27c2.08-8.25 5.31-18.83 7.18-23.52c1.87-4.69 5.88-12.53 8.9-17.42c3.21-5.19 9.04-12.51 14-17.56c4.68-4.76 13.22-12.16 19-16.44c5.77-4.28 14.89-10.43 20.25-13.67c5.36-3.23 9.96-6.67 10.21-7.63c0.25-0.96 5.24-26.05 11.08-55.75c5.84-29.7 13.07-65.48 16.06-79.5c2.99-14.03 7.72-35.4 10.52-47.5c2.8-12.1 10.47-41.12 17.05-64.5c6.58-23.38 14.89-52.4 18.47-64.5c3.58-12.1 16.83-56.31 29.43-98.25c12.61-41.94 26.25-85.36 30.32-96.5c4.07-11.14 8.19-22.28 10.92-29.25l-9.34-17c-5.14-9.35-12.24-23.08-15.77-30.5c-3.53-7.43-7.93-18-9.77-23.5c-1.84-5.5-6.52-21.93-10.41-36.5c-3.89-14.57-8.68-33.7-10.64-42.5c-1.96-8.8-4.52-22.08-5.68-29.5c-1.77-11.33-2.11-18.01-2.13-41.5c-0.01-20.83 0.44-31.71 1.76-42.5c0.98-7.98 2.88-21.03 4.23-29c1.35-7.98 4.43-23.05 6.85-33.5c2.42-10.45 6.04-24.85 8.05-32c2.01-7.15 6.17-19.3 9.24-27c3.07-7.7 7.79-18.73 10.5-24.5c2.7-5.77 7.21-14.33 10.02-19c2.81-4.67 9.49-15.02 14.84-23c5.35-7.98 13.71-19.74 18.57-26.15c4.86-6.4 14.31-18.33 20.99-26.5c6.68-8.17 15.91-19.2 20.5-24.5c4.59-5.31 14.93-17.23 22.97-26.5c8.04-9.27 18.76-22.03 23.81-28.35c5.06-6.33 11.8-15.33 14.98-20c3.18-4.67 8.47-13 11.75-18.5c3.28-5.5 8.26-14.28 11.07-19.5c2.81-5.23 8.7-17.6 13.07-27.5c4.38-9.9 13.36-30.82 19.97-46.5c6.61-15.67 19.3-46.28 28.22-68c8.92-21.73 23.62-56.83 32.68-78c9.06-21.18 19.99-45.7 24.3-54.5c4.31-8.8 12.75-24.55 18.75-35c6.01-10.45 15.1-25.53 20.19-33.5c5.1-7.97 14.46-21.92 20.82-31c6.35-9.08 17.25-24.15 24.21-33.5c6.97-9.35 16.22-21.27 20.57-26.5c4.34-5.23 17.59-19.2 29.44-31.05c11.85-11.85 28.07-26.96 36.04-33.56c7.98-6.61 20.13-16.39 27-21.75c6.87-5.35 17.45-13.05 23.5-17.11c6.05-4.06 16.4-10.34 23-13.96c6.6-3.62 16.73-8.57 22.5-11.01c5.78-2.44 17.93-6.53 27-9.09c9.07-2.56 23.25-6.19 31.5-8.05c8.25-1.87 21.3-4.28 29-5.36c7.7-1.08 19.85-2.43 27-3.01c7.15-0.58 14.8-1.2 17-1.38c2.2-0.18 13.67-0.4 25.5-0.49zm-1 329.43c-4.13 1.39-10.43 4.11-14 6.04c-3.57 1.94-8.22 5.17-10.33 7.19c-2.11 2.01-6.41 7.49-9.56 12.16c-3.15 4.67-7.56 12.32-9.79 17c-2.23 4.67-6.78 15.7-10.11 24.5c-3.33 8.8-8.97 24.77-12.53 35.5c-3.56 10.72-7.84 24.22-9.51 30c-1.67 5.78-3.84 14.1-4.81 18.5c-1.48 6.66-1.76 12.45-1.67 34.5c0.06 14.57 0.62 33.92 1.23 43c0.61 9.07 1.33 17.96 1.6 19.75l0.48 3.25c7.36-0.97 16.47-2.97 25-5.06c8.53-2.09 22.02-5.66 30-7.94c7.98-2.28 31.38-8.41 52-13.63c20.63-5.22 50.77-12.14 67-15.38c16.23-3.24 37.83-7.24 48-8.89c10.18-1.65 25.81-4.04 34.75-5.3c13.28-1.88 16.18-2.57 15.83-3.8c-0.23-0.83-2.76-9.83-5.62-20c-2.86-10.17-7.59-25.48-10.52-34c-2.92-8.53-8.29-22.7-11.93-31.5c-3.64-8.8-9.43-21.85-12.87-29c-3.44-7.15-9.24-17.5-12.89-23c-3.65-5.5-9.25-13.02-12.45-16.72c-3.19-3.7-7.83-8.47-10.31-10.61c-2.47-2.14-8.1-6.49-12.5-9.67c-4.4-3.18-10.7-7.02-14-8.54c-3.3-1.52-10.05-3.93-15-5.36c-4.95-1.43-13.5-3.5-19-4.61c-5.88-1.18-15.77-2.19-24-2.45c-7.7-0.24-16.47 0-19.5 0.55c-3.03 0.55-8.88 2.13-13 3.52z" />
		<path id="Path 1" class="s1" d="m1149 119.47c19.7 0.24 26.85 0.72 36.5 2.44c6.6 1.18 17.17 3.3 23.5 4.72c6.33 1.41 16 4.07 21.5 5.9c5.5 1.83 17.2 6.31 26 9.95c8.8 3.64 24.78 10.96 35.5 16.27c11.32 5.61 25.17 13.46 33.02 18.7c7.44 4.97 16.89 11.79 21 15.16c4.11 3.36 11.75 10.1 16.98 14.98c5.22 4.88 13.94 13.6 19.36 19.39c5.42 5.79 14.01 15.7 19.08 22.02c5.07 6.33 11.51 14.87 14.31 19c2.79 4.13 7.79 12.67 11.11 19c3.32 6.33 9.25 18.93 13.19 28c3.94 9.07 10.01 25.05 13.49 35.5c3.48 10.45 8.81 28.22 11.84 39.5c3.03 11.27 6.64 25.45 8.03 31.5c1.38 6.05 4.12 19.1 6.09 29c1.97 9.9 5.57 29.7 8 44c2.44 14.3 5.8 35.68 7.47 47.5c1.67 11.82 4.61 30.27 6.52 41c1.91 10.73 4.39 23.1 5.5 27.5c1.11 4.4 2.81 8.69 3.77 9.53c0.96 0.84 5.8 2.52 10.75 3.73c4.95 1.21 12.83 2.88 17.5 3.71c4.67 0.83 21.1 3.1 36.5 5.05c15.4 1.95 46.9 6.24 70 9.55c23.1 3.3 51.22 7.58 62.5 9.51c11.27 1.92 29.72 5.3 41 7.51c11.27 2.21 27.47 5.83 36 8.04c8.53 2.22 29.68 8.3 47 13.52c17.33 5.22 41.4 12.78 53.5 16.8c12.1 4.02 31.23 10.8 42.5 15.06c11.28 4.26 27.25 10.63 35.5 14.16c8.25 3.53 20.06 9.09 26.25 12.37c6.19 3.28 17.44 9.62 25 14.11c7.56 4.48 18.25 11.2 23.75 14.93c5.5 3.72 15.63 11.45 22.5 17.17c6.88 5.72 17.45 14.8 23.5 20.18c6.05 5.38 21.3 19.52 33.9 31.42c12.59 11.9 26.32 24.69 30.5 28.41c4.18 3.72 9.85 8.29 12.6 10.16c2.75 1.86 6.12 3.66 7.5 4c1.6 0.39 3.43-0.02 5.1-1.16c1.43-0.97 5.4-4.92 8.82-8.77c3.42-3.85 13.51-16.42 22.4-27.93c8.9-11.51 20.65-26.36 26.12-33c5.47-6.64 15.87-18.82 23.11-27.07c7.24-8.25 20.57-22.88 29.61-32.5c9.05-9.63 23.17-23.76 31.39-31.4c8.22-7.65 19.22-17.57 24.44-22.06c5.22-4.49 13.1-11.02 17.5-14.52c4.4-3.5 14.08-10.36 21.5-15.24c7.42-4.88 22.05-13.13 32.5-18.31c10.45-5.19 23.72-10.99 29.5-12.89c5.77-1.9 15-4.36 20.5-5.45c5.5-1.1 14.5-2.49 20-3.09c5.5-0.6 21.48-1.03 35.5-0.95c15.16 0.09 29.35 0.69 35 1.49c5.22 0.74 12.2 2.29 15.5 3.43c3.3 1.15 8.02 3.27 10.5 4.71c2.47 1.44 7.12 4.69 10.31 7.21c3.46 2.73 6.57 6.21 7.68 8.59c1.03 2.2 2.41 8.5 3.08 14c0.72 5.93 0.98 14.88 0.64 22c-0.32 6.6-1.29 14.7-2.17 18c-0.87 3.3-2.74 8.93-4.15 12.5c-1.41 3.57-5.63 11.68-9.38 18c-3.75 6.33-10.49 16.68-14.98 23c-4.49 6.33-9.2 13.3-10.47 15.5c-1.27 2.2-2.93 5.66-3.69 7.69c-1.28 3.42-1.18 4.18 1.34 10.5c1.5 3.75 5.02 10.64 7.84 15.31c2.81 4.67 7.33 12.89 10.03 18.25c2.7 5.36 6.24 13.69 7.85 18.5c1.62 4.81 3.69 13.93 4.62 20.25c1.13 7.75 1.47 14.11 1.04 19.5c-0.35 4.4-1.55 11.83-2.66 16.5c-1.33 5.6-4 12.25-7.82 19.5c-3.19 6.05-8.96 15.95-12.83 22c-3.87 6.05-8.78 14.47-14.78 26.42l5.19 10.29c2.86 5.66 7.74 14.56 10.86 19.79c3.12 5.23 8.01 14 10.87 19.5c2.86 5.5 6.29 13.82 7.63 18.5c2.14 7.5 2.42 10.39 2.34 24.5c-0.06 11.17-0.6 18.26-1.79 23.5c-0.94 4.13-3.69 13.57-6.12 21c-2.43 7.43-6.01 19.35-7.96 26.5c-1.95 7.15-3.54 14.69-3.53 16.75c0.01 2.06 0.99 5.66 2.18 8c1.19 2.34 6.48 8.56 11.75 13.82c5.27 5.26 11.61 12.34 14.08 15.74c2.47 3.39 6.65 9.89 9.29 14.43c2.63 4.54 5.5 10.74 6.38 13.76c1.29 4.44 1.49 8.59 1.05 21.5c-0.41 12.05-1.16 18.59-3.03 26.5c-1.36 5.77-4.61 17.02-7.22 25c-2.61 7.97-6.27 18.55-11.54 32.5l3.59 5c1.97 2.75 7.72 10.72 12.78 17.7c5.06 6.99 11.72 16.89 14.81 22c3.09 5.11 6.35 11.43 7.25 14.05c0.9 2.61 2.31 8.69 3.15 13.5c0.83 4.81 1.51 13.93 1.51 20.25c0 6.33-0.68 15.44-1.51 20.25c-0.83 4.81-2.3 10.63-3.26 12.93c-1.06 2.53-4.36 6.58-8.36 10.25c-3.64 3.34-9.49 7.77-13 9.84c-3.51 2.08-9.99 4.93-14.39 6.34c-5.14 1.65-11.4 2.76-17.5 3.11c-7.53 0.44-11.78 0.09-20.5-1.68c-6.05-1.23-17.07-4.18-24.5-6.55c-7.42-2.37-16.2-4.88-19.5-5.56c-3.3-0.69-7.24-0.95-8.75-0.59c-1.67 0.4-3.34 1.84-4.25 3.66c-0.82 1.65-1.5 4.35-1.5 6c0 1.65 1.55 10.31 3.43 19.25c1.89 8.94 5.02 23.23 6.96 31.75c1.94 8.52 5.15 22.25 7.12 30.5c1.97 8.25 5.85 25.12 8.6 37.5c2.76 12.37 8.38 38.7 12.49 58.5c4.11 19.8 10.57 52.2 14.36 72c3.79 19.8 9.35 49.95 12.36 67c3.01 17.05 6.27 35.73 7.23 41.5c0.96 5.77 2.59 13.65 3.6 17.5c1.02 3.85 2.63 7.82 3.59 8.83c0.96 1.01 7.6 4.69 14.75 8.18c7.15 3.49 19.08 8.91 26.5 12.03c7.43 3.12 15.08 6.6 17 7.73c1.93 1.13 4.75 3.22 6.29 4.65c1.53 1.42 3.7 5.07 4.81 8.09c1.11 3.03 2.44 9.78 2.94 15c0.5 5.23 0.92 25.03 0.93 44c0.01 18.98-0.66 47.1-1.49 62.5c-0.83 15.4-2.19 36.55-3.02 47c-0.83 10.45-2.21 23.73-3.07 29.5c-0.86 5.77-2.91 15.67-4.55 22c-1.65 6.33-5.24 18.93-7.98 28c-2.74 9.08-9.17 29.1-14.3 44.5c-5.13 15.4-13.7 40.15-19.05 55c-5.35 14.85-13.09 35.78-17.21 46.5c-4.12 10.73-8.35 22.87-9.4 27c-1.05 4.13-1.92 9.53-1.94 12c-0.02 2.99 0.66 5.42 2.01 7.25c1.12 1.51 3.5 3.17 5.28 3.69c1.79 0.52 9.33 1.64 16.75 2.5c7.42 0.86 32.17 3.13 55 5.05c22.83 1.92 50.05 4.41 60.5 5.53c10.45 1.12 28 3.16 39 4.54c11 1.38 23.82 3.4 28.5 4.5c4.67 1.09 13.45 3.58 19.5 5.52c6.05 1.94 14.82 5.14 19.5 7.11c4.67 1.97 12.78 6.41 18 9.86c5.22 3.45 12.15 8.68 15.39 11.61c3.24 2.93 8.72 9.61 12.18 14.83c3.46 5.23 9.21 15.58 12.79 23c3.57 7.42 7.25 15.75 8.17 18.5c0.92 2.75 1.9 7.7 2.18 11c0.32 3.79-0.3 10.79-1.68 19c-1.2 7.15-3.28 16.26-4.61 20.25c-1.33 3.99-4.07 9.84-6.08 13c-2.01 3.16-5.95 8.02-8.75 10.79c-2.8 2.77-10.04 8.34-16.09 12.38c-6.05 4.04-17.98 10.73-26.5 14.88c-8.52 4.15-17.9 9.15-20.84 11.12c-3.58 2.4-5.94 4.89-7.16 7.58c-1 2.2-2.58 7.83-3.51 12.5c-0.93 4.67-3.03 11.87-4.67 16c-1.64 4.13-4.41 9.98-6.15 13c-1.74 3.03-4.97 7.59-7.17 10.14c-2.2 2.55-7.15 7.3-11 10.54c-3.85 3.24-10.38 7.88-14.5 10.3c-4.13 2.43-11.1 5.64-15.5 7.14c-4.4 1.5-12.05 3.21-17 3.8c-4.95 0.59-18.68 1.07-30.5 1.06c-11.82-0.01-22.85 0.26-24.5 0.59c-2.64 0.52-4.2 2.63-13 17.57c-5.5 9.34-12.71 20.21-16.03 24.17c-3.32 3.96-8.04 8.57-10.5 10.26c-3.08 2.11-7.91 3.89-15.47 5.71c-6.05 1.45-16.18 3.35-22.5 4.21c-6.32 0.86-17.35 2.5-24.5 3.64c-7.15 1.14-14.13 2.65-15.5 3.35c-1.38 0.7-3.93 3.47-5.68 6.15c-1.75 2.69-4.09 7.36-5.19 10.39c-1.11 3.02-4.06 8.31-6.57 11.75c-2.54 3.48-7.55 8.47-11.31 11.26c-4.06 3.01-9.34 5.83-13.25 7.08c-4.64 1.48-10.94 2.31-22 2.91c-10.9 0.58-21.28 0.42-35-0.55c-10.73-0.76-22.88-1.86-27-2.43c-4.13-0.58-11.1-1.72-15.5-2.55c-4.4-0.82-12.95-2.81-19-4.42c-6.05-1.61-16.4-4.8-23-7.09c-6.6-2.29-16.94-6.71-22.98-9.81c-6.04-3.1-19.09-11.04-29-17.64c-9.91-6.6-28.37-19.7-41.02-29.1c-12.65-9.4-28.74-20.99-35.75-25.75c-7.01-4.76-13.31-8.64-14-8.63c-0.69 0.01-5.41 1.81-10.5 4c-5.09 2.19-18.36 8.2-29.5 13.36c-11.14 5.16-26.1 12.19-33.25 15.62c-7.15 3.43-19.08 9.17-26.5 12.74c-7.42 3.57-18.22 8.73-24 11.48c-5.78 2.74-23.55 11.06-39.5 18.48c-15.95 7.42-40.47 18.59-54.5 24.81c-14.02 6.23-32.47 14.22-41 17.76c-8.52 3.54-26.75 10.82-40.5 16.17c-13.75 5.35-37.83 14.37-53.5 20.04c-15.67 5.68-39.07 13.72-52 17.88c-12.93 4.16-33.18 10.46-45 14.01c-11.82 3.55-28.25 8.28-36.5 10.52c-8.25 2.24-24.67 6.29-36.5 9.01c-11.82 2.72-30.5 6.77-41.5 9c-11 2.23-28.1 5.42-38 7.08c-9.9 1.66-24.07 3.69-31.5 4.51c-7.42 0.82-19.8 1.94-27.5 2.5c-7.7 0.55-27.28 1.01-43.5 1.01c-16.23 0-38.05-0.45-48.5-1c-10.45-0.55-25.53-1.69-33.5-2.54c-7.98-0.85-20.58-2.44-28-3.54c-7.43-1.1-18.45-2.93-24.5-4.05c-6.05-1.13-22.25-4.44-36-7.36c-13.75-2.92-33.1-7.34-43-9.81c-9.9-2.47-26.1-6.82-36-9.66c-9.9-2.84-26.1-7.64-36-10.66c-9.9-3.02-29.25-9.24-43-13.81c-13.75-4.57-38.5-13.36-55-19.52c-16.5-6.16-41.47-15.83-55.5-21.48c-14.02-5.66-39.23-16.36-56-23.79c-16.77-7.43-44.68-20.05-62-28.04c-17.33-7.99-36.23-16.77-42-19.51c-5.78-2.74-16.8-8-24.5-11.7c-7.7-3.7-18.28-8.76-23.5-11.24c-5.22-2.48-19.4-9.1-31.5-14.71c-12.1-5.61-26.14-11.97-40.4-18.06l-8.6 5.5c-4.73 3.03-16.34 11.15-25.8 18.06c-9.46 6.91-23.05 16.85-30.2 22.11c-7.15 5.25-19.08 13.6-26.5 18.54c-7.43 4.95-17.55 11.41-22.5 14.36c-4.95 2.95-12.38 6.78-16.5 8.51c-4.13 1.73-15.15 5.65-24.5 8.72c-13.65 4.48-19.95 5.97-32 7.57c-8.25 1.1-20.4 2.5-27 3.12c-6.6 0.62-17.85 1.47-25 1.89c-7.15 0.42-18.63 0.69-25.5 0.61c-10.71-0.14-13.36-0.51-18.5-2.6c-3.3-1.34-9.15-4.52-13-7.06c-3.85-2.54-8.97-6.58-11.37-8.98c-2.4-2.4-5.21-6.04-6.25-8.11c-1.04-2.06-1.88-4.43-1.88-5.25c0-0.83-0.99-4.09-2.2-7.25c-1.21-3.16-3.12-6.76-4.25-8c-1.32-1.45-4.89-2.97-10.05-4.28c-4.4-1.12-14.07-2.7-21.5-3.52c-7.42-0.82-16.42-1.98-20-2.56c-3.58-0.59-10.33-1.98-15-3.1c-4.68-1.11-9.85-2.71-11.5-3.55c-1.65-0.84-4.52-2.7-6.38-4.13c-1.86-1.43-6.44-6.65-10.19-11.6c-3.75-4.95-11.11-15.97-25.88-40h-31.28c-30.25 0-31.51-0.08-38.28-2.36c-3.85-1.3-9.7-3.72-13-5.37c-3.3-1.65-9.14-5.09-12.97-7.64c-3.83-2.54-10.58-8.23-15-12.63c-5.07-5.05-9.59-10.76-12.26-15.5c-2.33-4.13-5.55-11.33-7.16-16c-1.61-4.67-3.41-10.98-4-14c-0.59-3.03-2.11-7.08-3.38-9c-1.27-1.93-4.41-5.08-6.96-7c-2.55-1.92-10.41-6.61-17.45-10.42c-7.05-3.81-15.96-8.94-19.81-11.4c-3.85-2.46-10.38-7.07-14.5-10.23c-4.13-3.16-9.84-8.16-12.69-11.1c-2.86-2.94-6.79-8.05-8.75-11.35c-2.21-3.72-4.29-9.23-5.49-14.5c-1.06-4.67-2.41-11.88-2.99-16c-0.58-4.13-1.29-10.31-1.57-13.75c-0.36-4.42 0.08-8.51 1.51-14c1.11-4.26 4.91-13.6 8.45-20.75c3.54-7.15 8.78-16.6 11.66-21c2.88-4.4 8.19-10.93 11.8-14.52c3.61-3.59 11.07-9.52 16.57-13.18c5.5-3.66 13.6-8.2 18-10.09c4.4-1.89 13.18-5.1 19.5-7.15c6.32-2.05 15.55-4.56 20.5-5.59c4.95-1.02 14.18-2.56 20.5-3.41c6.32-0.85 19.15-2.43 28.5-3.51c9.35-1.08 30.5-3.11 47-4.52c16.5-1.41 40.35-3.7 53-5.09c12.65-1.39 27.27-3.16 32.5-3.94c5.22-0.78 11.86-1.88 14.75-2.46c4.22-0.84 5.68-1.68 7.44-4.29c1.2-1.79 2.39-5.05 2.64-7.25c0.27-2.44-0.42-6.92-1.78-11.5c-1.22-4.12-5.73-16.5-10.02-27.5c-4.29-11-12.75-33.95-18.81-51c-6.06-17.05-14.86-42.7-19.57-57c-4.7-14.3-10.35-32.08-12.55-39.5c-2.2-7.43-5.35-18.45-6.99-24.5c-1.65-6.05-3.46-13.7-4.03-17c-0.57-3.3-1.71-13.2-2.54-22c-0.83-8.8-2.23-26.12-3.11-38.5c-1.04-14.65-1.73-40.3-1.96-73.5c-0.29-41.07-0.08-52.46 1.06-58.5c0.78-4.13 2.67-9.98 4.2-13c2.1-4.15 4.14-6.4 8.28-9.16c3.02-2.01 11.8-6.45 19.5-9.87c7.7-3.41 17.49-7.95 21.75-10.09c4.26-2.14 10.11-5.4 13-7.25c2.89-1.85 5.77-3.99 6.42-4.75c0.64-0.76 2.3-7.24 3.7-14.39c1.39-7.15 4.58-24.7 7.09-39c2.51-14.3 5.22-29.6 6.03-34c0.81-4.4 2.58-14.07 3.94-21.5c1.36-7.43 4.49-23.85 6.95-36.5c2.47-12.65 5.89-29.75 7.6-38c1.72-8.25 6.92-32.1 11.57-53c4.65-20.9 12.01-52.18 16.37-69.5c4.36-17.32 10.93-42.3 14.6-55.5c3.68-13.2 11.4-39.75 17.16-59c5.76-19.25 14.05-46.7 18.42-61c4.37-14.3 8.59-27.8 9.38-30c0.79-2.2 2.36-4.79 3.49-5.75c1.97-1.68 2.28-1.63 8.28 1.5c3.43 1.79 14.79 8.9 25.25 15.81c10.46 6.91 23.06 14.95 28.01 17.87c4.95 2.92 12.6 7.12 17 9.33c4.4 2.21 13.18 6.24 19.5 8.95c6.32 2.71 17.8 6.88 25.5 9.27c7.7 2.39 20.75 6.15 29 8.37c8.25 2.22 18.6 4.71 23 5.55c4.4 0.84 14.53 2.44 22.5 3.55c7.97 1.11 23.05 2.71 33.5 3.54c10.45 0.83 30.02 1.51 43.5 1.5c17-0.01 27.72-0.49 35-1.57c5.78-0.86 16.8-2.89 24.5-4.52c7.7-1.63 21.2-4.78 30-7c8.8-2.22 23.09-6.03 31.75-8.47c8.66-2.44 20.36-6.02 26-7.97c5.64-1.95 14.3-5.47 19.25-7.82c4.95-2.35 14.4-7.36 21-11.13c6.6-3.77 17.18-10.21 23.5-14.32c6.32-4.11 17.58-12.01 25-17.56c7.42-5.55 18.68-14.42 25-19.71c6.32-5.29 16.9-15.2 23.5-22.03c6.6-6.83 16.32-17.59 21.59-23.91c5.28-6.32 12.31-15.09 15.63-19.49c3.32-4.4 9.85-13.85 14.52-21c4.66-7.15 12-19.07 16.31-26.5c4.3-7.43 9.95-18 12.55-23.5c2.6-5.5 6.72-15.4 9.18-22c2.45-6.6 6.52-18.98 9.05-27.5c2.52-8.53 5.94-20.9 7.59-27.5c1.65-6.6 5.03-21.45 7.5-33c2.47-11.55 5.25-26.85 6.18-34c1.3-10.07 1.54-16.94 1.05-30.5c-0.35-9.62-1.28-23.8-2.08-31.5c-0.79-7.7-2.57-21.2-3.95-30c-1.38-8.8-3.46-20.5-4.64-26c-1.18-5.5-5.74-23.95-10.15-41c-4.4-17.05-9.54-34.71-11.41-39.25c-1.88-4.54-5.49-12.41-8.03-17.5c-2.54-5.09-8.47-16-13.19-24.25c-4.72-8.25-12.15-20.85-16.53-28c-4.38-7.15-13.59-21.78-20.48-32.5c-6.89-10.73-14.7-23.21-17.35-27.75c-2.87-4.9-4.83-9.47-4.83-11.25c0-2.21 0.73-3.44 2.75-4.65c1.51-0.91 9.28-3.81 17.25-6.45c7.98-2.64 23.27-7.33 34-10.42c10.73-3.09 28.95-8.04 40.5-10.99c11.55-2.96 30.22-7.19 41.5-9.39c11.27-2.21 33.1-6.05 48.5-8.54c15.4-2.49 44.2-6.8 64-9.58c19.8-2.78 45.45-6.38 57-8c11.55-1.62 24.04-3.86 27.75-4.96c4.82-1.43 7.32-2.79 8.75-4.76c1.1-1.51 2.48-5.68 3.07-9.25c0.59-3.57 1.05-19.32 1.04-35c-0.02-21.73-0.52-33.13-2.11-48c-1.14-10.72-2.98-24-4.08-29.5c-1.1-5.5-3.37-15.18-5.04-21.5c-1.67-6.33-4.83-17.8-7.03-25.5c-2.2-7.7-6.04-20.3-8.54-28c-2.5-7.7-7.59-21.88-11.32-31.5c-3.72-9.63-9.09-22.9-11.93-29.5c-2.84-6.6-8.1-17.63-11.69-24.5c-3.59-6.87-8.89-16.1-11.77-20.5c-2.88-4.4-8.13-11.6-11.66-15.99c-3.53-4.4-11.6-13.34-17.92-19.88c-6.32-6.54-16.23-15.96-22-20.95c-5.78-4.99-15-12.41-20.5-16.49c-5.5-4.08-14.05-9.35-19-11.7c-4.95-2.36-16.42-7.05-25.5-10.44c-9.07-3.39-21-7.44-26.5-9.02c-5.5-1.58-13.6-3.58-18-4.44c-4.4-0.87-12.27-2.02-17.5-2.56c-5.22-0.54-16.7-0.99-25.5-0.99c-8.8 0-21.4 0.45-28 1c-6.6 0.55-17.4 2.1-24 3.44c-6.6 1.34-16.73 4.06-22.5 6.05c-5.78 1.99-17.7 7.11-26.5 11.38c-8.8 4.27-19.38 9.92-23.5 12.56c-4.13 2.64-12.45 8.51-18.5 13.04c-6.05 4.53-12.81 10.21-15.02 12.62c-2.21 2.41-8.49 11.36-13.95 19.88c-5.46 8.53-11.84 19.1-14.17 23.5c-2.33 4.4-6.76 13.85-9.84 21c-3.08 7.15-7.6 18.4-10.04 25c-2.44 6.6-6.28 18.07-8.53 25.5c-2.25 7.42-6.27 22.05-8.94 32.5c-2.67 10.45-5.99 24.62-7.37 31.5c-1.38 6.87-3.44 19.25-4.57 27.5c-1.13 8.25-2.96 24.9-4.06 37c-1.45 15.82-2.01 30-2.02 50.5c-0.01 19.76 0.46 32.18 1.52 40.5c0.84 6.6 2.69 16.73 4.12 22.5c1.42 5.77 4.38 16.35 6.56 23.5c2.19 7.15 8.25 23.57 13.47 36.5c5.22 12.92 13 30.25 17.28 38.5c4.29 8.25 12.18 22.65 17.55 32c5.37 9.35 13.69 23.07 18.5 30.5c4.81 7.43 12.35 19.35 16.76 26.5c4.41 7.15 9.65 15.47 11.65 18.5c2 3.03 6.96 12.03 11.02 20c4.06 7.97 12.78 26.2 19.38 40.5c6.6 14.3 13.15 29.83 14.55 34.5c1.41 4.67 3.46 12.1 4.55 16.5c1.1 4.4 2.72 13.18 3.61 19.5c1.17 8.32 1.59 18.55 1.54 37c-0.07 21.52-0.45 28-2.48 41.5c-1.32 8.8-3.58 20.73-5.03 26.5c-1.45 5.77-4.38 16.35-6.52 23.5c-2.14 7.15-5.8 17.95-8.14 24c-2.34 6.05-7.43 17.3-11.31 25c-3.88 7.7-9.98 18.65-13.56 24.32c-3.57 5.68-8.88 13.33-11.79 17c-2.91 3.67-10.56 12.49-17 19.6c-6.44 7.11-18.06 18.81-25.84 26c-11.23 10.39-16.78 14.66-27 20.8c-7.07 4.24-16.69 9.78-21.36 12.3c-4.67 2.52-13.22 6.84-19 9.6c-5.78 2.76-15.67 7.07-22 9.57c-6.32 2.5-16 6.01-21.5 7.8c-5.5 1.79-14.72 4.24-20.5 5.44c-5.77 1.2-13.88 2.61-18 3.13c-4.13 0.52-19.43 0.95-34 0.95c-16.06 0-33-0.6-43-1.53c-9.07-0.84-22.13-2.4-29-3.46c-6.88-1.06-15.65-2.9-19.5-4.08c-3.85-1.19-13.75-4.85-22-8.13c-8.25-3.29-20.63-8.84-27.5-12.34c-6.88-3.5-17-9.17-22.5-12.6c-5.5-3.43-13.38-8.79-17.5-11.91c-4.13-3.12-12-9.63-17.5-14.47c-5.5-4.84-15.13-14.01-21.39-20.39c-6.27-6.38-14.29-15.2-17.84-19.6c-3.54-4.4-10.04-13.4-14.43-20c-4.4-6.6-11.3-18.75-15.35-27c-4.05-8.25-10.29-22.88-13.86-32.5c-3.57-9.63-8.28-23.8-10.46-31.5c-2.18-7.7-4.97-19.63-6.21-26.5c-1.7-9.44-2.36-17.65-2.7-33.5c-0.25-11.69 0.06-26.76 0.69-34c0.63-7.15 2.3-20.43 3.71-29.5c1.41-9.07 3.65-20.1 4.98-24.5c1.32-4.4 4.27-12.95 6.55-19c2.28-6.05 6.44-16.17 9.26-22.5c2.81-6.32 7.74-16.22 10.95-22c3.21-5.78 10.04-16.8 15.18-24.5c5.82-8.73 19.02-25.49 35.03-44.5c14.13-16.78 32.94-39.68 41.8-50.9c8.86-11.22 23.31-29.41 32.11-40.42c8.8-11.01 17.28-21.63 18.83-23.6c1.56-1.97 5.87-8.76 9.59-15.08c3.72-6.33 9.7-16.9 13.31-23.5c3.6-6.6 12.8-24.6 20.44-40c7.64-15.4 18.57-37.68 24.29-49.5c5.72-11.83 13.97-28.93 18.33-38c4.36-9.07 10.63-22.8 13.93-30.5c3.3-7.7 8.46-20.3 11.45-28c3-7.7 8.08-21.43 11.3-30.5c3.22-9.07 7.41-20.55 9.32-25.5c1.91-4.95 7.61-18.67 12.68-30.5c5.07-11.82 12.53-28.02 16.58-36c4.05-7.97 11.93-22.6 17.51-32.5c5.58-9.9 13.89-23.62 18.47-30.5c4.58-6.87 13.37-18.8 19.54-26.5c6.17-7.7 16.27-19.62 22.45-26.5c6.18-6.87 16.14-17.02 22.12-22.55c5.98-5.53 15.15-13.66 20.37-18.08c5.22-4.42 13.1-10.76 17.5-14.1c4.4-3.34 12.61-8.81 18.25-12.17c5.64-3.36 14.75-8.35 20.25-11.1c5.5-2.75 13.26-6.1 17.25-7.44c3.99-1.34 11.3-3.34 16.25-4.44c4.95-1.1 14.62-2.96 21.5-4.14c6.88-1.18 16.32-2.52 21-2.97c4.67-0.46 19.52-0.7 33-0.53z" />
		<path id="Path 2" class="s0" d="m2477.5 743.14c8.98-0.11 14.85 0.33 19 1.4c3.3 0.86 7.91 2.66 10.25 4.01c2.34 1.35 6.08 4.36 8.32 6.7c2.24 2.34 5.59 7.4 7.45 11.25c1.86 3.85 3.91 10.15 4.56 14c0.99 5.84 0.91 8.62-0.45 16.75c-0.9 5.36-2.6 11.66-3.77 14c-1.18 2.34-3.82 6.72-5.88 9.75c-2.05 3.03-6.15 7.79-9.11 10.6c-2.96 2.8-8.52 6.68-12.37 8.62c-3.85 1.94-10.38 4.74-14.5 6.22c-4.13 1.48-14.7 4.66-23.5 7.08c-8.8 2.41-24.1 7.13-34 10.47c-12.21 4.13-24.11 9.1-37 15.47c-10.45 5.16-22.6 11.78-27 14.7c-4.4 2.92-14.25 11.4-21.9 18.83c-7.64 7.43-20.91 21.39-29.47 31.01c-8.57 9.63-20.09 22.15-25.6 27.82c-7.77 8.01-11.49 11.03-16.53 13.45c-6.16 2.96-6.73 3.06-11 1.86c-2.47-0.69-6.97-2.69-10-4.44c-3.03-1.75-7.82-5.43-10.65-8.18c-2.83-2.75-6.08-7.03-7.23-9.5c-1.2-2.6-2.09-6.61-2.11-9.5c-0.03-3.8 0.89-6.91 3.83-13c2.13-4.4 7.19-12.95 11.24-19c4.06-6.05 12.52-17.53 18.81-25.5c6.29-7.97 17.99-22.15 26.01-31.5c8.02-9.35 23.13-25.71 33.59-36.35c10.46-10.64 23.44-23.24 28.84-28c5.4-4.76 13.28-11.04 17.5-13.97c4.22-2.92 12.62-8.39 18.67-12.15c6.05-3.76 16.18-9.5 22.5-12.75c6.32-3.25 17.35-8.2 24.5-11.01c7.15-2.8 16.38-5.8 20.5-6.66c4.13-0.86 8.85-1.74 10.5-1.94c1.65-0.21 8.85-0.44 16-0.53zm17.5 195.17c10.68 0.2 11.89 0.43 16.9 3.2c2.97 1.64 8.49 6.02 12.25 9.73c3.77 3.71 7.94 8.66 9.28 11c1.34 2.34 2.98 7.4 3.64 11.25c0.7 4.08 0.96 10.55 0.62 15.5c-0.32 4.67-1.38 10.75-2.35 13.5c-1.12 3.18-3.82 7.18-7.41 11c-3.1 3.3-8.3 7.42-11.54 9.15c-3.24 1.73-8.82 4.05-12.4 5.15c-3.57 1.1-17.3 4.09-30.5 6.64c-13.2 2.55-31.88 6.68-41.5 9.16c-9.63 2.48-23.8 6.33-31.5 8.54c-7.7 2.21-23.45 7.1-35 10.86c-11.55 3.76-23.47 7.58-26.5 8.49c-3.03 0.91-10 2.97-15.5 4.57c-5.5 1.61-11.8 2.93-14 2.94c-3 0.02-5.57-0.99-10.25-4c-3.44-2.21-7.71-6.07-9.5-8.57c-1.79-2.5-4.02-6.66-4.96-9.25c-0.94-2.59-1.72-6.28-1.74-8.2c-0.02-1.93 1.09-5.86 2.46-8.75c1.66-3.51 5.73-8.45 12.24-14.89c5.36-5.3 14.25-12.91 19.75-16.92c5.5-4 15.85-10.97 23-15.48c7.15-4.51 22.45-12.82 34-18.48c11.55-5.66 27.75-12.98 36-16.28c8.25-3.3 19.05-7.38 24-9.07c4.95-1.69 14.18-4.25 20.5-5.68c6.32-1.43 15.32-3.23 20-3.99c4.67-0.76 13.67-1.28 20-1.16zm9.5 176.31c3.85 0.16 9.25 0.79 12 1.4c2.75 0.61 7.2 2.32 9.88 3.8c2.68 1.48 6.08 4.03 7.55 5.68c1.47 1.65 3.74 5.7 5.04 9c1.87 4.74 2.39 7.99 2.45 15.5c0.07 8.09-0.27 10.17-2.25 14c-1.28 2.47-5.78 8.02-10 12.33c-4.22 4.31-10.37 9.79-13.67 12.19c-3.3 2.39-8.02 5.07-10.5 5.94c-2.47 0.87-6.97 2.02-10 2.54c-3.03 0.53-15.18 1.63-27 2.46c-11.82 0.83-31.17 1.99-43 2.59c-11.83 0.6-26.68 1.1-33 1.13c-9.27 0.03-12.37-0.34-16-1.91c-2.47-1.07-6.5-4.16-8.95-6.86c-2.45-2.7-5.33-6.93-6.4-9.4c-1.07-2.47-2.16-7.2-2.43-10.5c-0.32-4.02 0.09-7.98 1.25-12c0.95-3.3 2.59-7.24 3.63-8.75c1.11-1.62 4.99-4.19 9.4-6.25c4.13-1.93 14.81-5.95 23.75-8.96c8.94-3 27.05-8.37 40.25-11.94c13.2-3.57 28.5-7.42 34-8.56c5.5-1.14 13.82-2.44 18.5-2.89c4.67-0.45 11.65-0.69 15.5-0.54zm-42.5 165.8c15.67 0.3 33.9 1.01 40.5 1.58c6.6 0.57 18.52 1.95 26.5 3.06c7.98 1.11 16.3 2.5 18.5 3.09c2.2 0.58 6.25 2.21 9 3.62c2.75 1.41 7.17 4.62 9.82 7.14c3.64 3.46 5.22 5.93 6.44 10.09c0.94 3.19 1.65 9.29 1.68 14.5c0.05 7.66-0.33 9.82-2.52 14.5c-1.42 3.03-4.79 7.68-7.5 10.35c-2.71 2.67-7.4 6.03-10.42 7.48c-4.44 2.13-6.85 2.61-12.5 2.53c-3.85-0.06-11.05-0.88-16-1.82c-4.95-0.94-14.4-2.99-21-4.56c-6.6-1.56-18.97-4.85-27.5-7.3c-8.52-2.45-20-6.13-25.5-8.17c-5.5-2.04-13.55-5.58-17.89-7.86c-5.76-3.02-8.78-5.36-11.18-8.64c-1.81-2.47-4-6.19-4.86-8.25c-0.87-2.06-1.56-5.89-1.55-8.5c0.01-2.61 0.84-6.55 1.85-8.75c1-2.2 3.13-5.54 4.73-7.42c1.6-1.88 4.7-4.27 6.9-5.31c3.72-1.76 5.97-1.85 32.5-1.34zm-1977 1107.64c1.38-0.05 4.98 1.14 8 2.63c3.03 1.49 7.79 4.99 10.59 7.76c2.8 2.78 6.11 7.07 7.36 9.55c1.25 2.48 2.49 6.53 2.77 9c0.27 2.48 0.01 7.2-0.58 10.5c-1.03 5.76-1.41 6.32-9.35 13.83c-4.56 4.31-13.68 11.66-20.28 16.33c-6.6 4.68-18.52 12.66-26.5 17.74c-7.98 5.08-24.63 15.11-37 22.3c-12.38 7.19-31.95 18.16-43.5 24.39c-11.55 6.23-28.43 14.77-37.5 18.99c-9.07 4.22-21.22 9.28-27 11.26c-6.24 2.14-15.36 4.29-22.5 5.31c-10.3 1.47-12.85 1.53-18 0.42c-5.61-1.21-6.59-1.89-15.17-10.43c-6.75-6.71-9.89-10.72-11.9-15.13c-2.35-5.18-2.66-6.89-2.2-12.5c0.29-3.57 1.48-9.2 2.65-12.5c1.17-3.3 4.27-9.13 6.88-12.95c2.61-3.82 8.35-10.57 12.75-15c4.4-4.43 12.95-11.4 19-15.5c6.05-4.1 15.05-9.21 20-11.36c4.95-2.15 17.1-7.06 27-10.91c9.9-3.85 29.7-11.26 44-16.48c14.3-5.22 40.63-14.66 58.5-20.97c17.87-6.31 36.32-12.54 41-13.83c4.67-1.29 9.62-2.39 11-2.44zm2027.5 0.3c2.75 0.26 12.42 2.73 21.5 5.48c9.08 2.75 29.78 9.58 46 15.18c16.23 5.6 40.07 14.01 53 18.7c12.92 4.68 31.15 11.58 40.5 15.32c9.35 3.74 19.59 7.97 22.75 9.39c3.16 1.42 9.46 4.88 14 7.7c4.54 2.81 11.63 7.73 15.75 10.93c4.13 3.19 10.2 8.87 13.5 12.61c3.3 3.74 7.94 9.73 10.32 13.32c2.38 3.59 5.2 9.45 6.27 13.03c1.07 3.58 1.95 9.2 1.94 12.5c-0.01 5.09-0.55 6.91-3.58 12c-1.96 3.3-6.81 9.26-10.77 13.25c-4.65 4.68-8.96 8-12.19 9.38c-4.34 1.85-6.2 2.05-14 1.52c-4.95-0.33-13.27-1.72-18.5-3.07c-5.22-1.36-14.45-4.3-20.5-6.54c-6.05-2.24-19.1-8.08-29-12.98c-9.9-4.9-24.3-12.37-32-16.61c-7.7-4.23-22.1-12.44-32-18.24c-9.9-5.8-27.68-16.6-39.5-24c-11.82-7.4-26.9-17.1-33.5-21.55c-6.6-4.45-14.53-10.58-17.62-13.62c-4.1-4.03-5.95-6.75-6.83-10.03c-0.67-2.47-1.17-8.21-1.13-12.75c0.05-5.11 0.69-9.68 1.67-12c0.87-2.06 2.78-5.2 4.25-6.96c1.47-1.77 5.36-5.28 8.66-7.81c5.66-4.34 6.28-4.57 11-4.12zm-1947 82.97c2.75 0.25 7.24 1.51 9.99 2.81c2.74 1.3 6.54 3.93 8.44 5.86c1.9 1.92 4.55 5.97 5.9 9c2.04 4.57 2.33 6.34 1.73 10.5c-0.4 2.75-1.56 7.25-2.58 10c-1.49 4-4.23 7.31-13.67 16.5c-6.5 6.32-16.98 15.95-23.3 21.39c-6.32 5.44-20.05 16.71-30.5 25.06c-10.45 8.34-22.6 17.9-27 21.23c-4.4 3.33-13.85 9.88-21 14.55c-7.15 4.67-17.72 11.2-23.5 14.52c-5.78 3.32-13.2 7.17-16.5 8.55c-3.3 1.38-8.93 3.48-12.5 4.66c-3.57 1.18-9.54 2.8-13.25 3.6c-3.71 0.8-9.68 1.45-13.25 1.45c-3.58 0-7.96-0.61-9.75-1.36c-1.79-0.75-5.68-3.79-8.65-6.75c-2.97-2.96-6.69-7.19-8.28-9.39c-2.18-3.03-2.87-5.09-2.85-8.5c0.02-2.47 0.99-7.87 2.15-12c1.16-4.13 3.69-10.65 5.63-14.5c1.94-3.85 5.77-10.38 8.53-14.5c2.75-4.13 8.88-11.27 13.61-15.87c4.73-4.6 12.65-11.43 17.6-15.18c4.95-3.75 13.05-9.35 18-12.46c4.95-3.1 23.18-12.71 40.5-21.35c17.33-8.64 38.25-18.59 46.5-22.12c8.25-3.53 21.3-8.6 29-11.28c11.54-4.01 14.88-4.79 19-4.42zm1872.5 0.31c3.03 0.29 8.88 1.67 13 3.08c4.13 1.41 14.93 5.68 24 9.5c9.07 3.82 28.65 12.95 43.5 20.3c14.85 7.35 34.2 17.5 43 22.56c8.8 5.06 19.82 11.7 24.5 14.76c5.24 3.43 13.56 10.57 21.68 18.62c12.13 12 13.52 13.77 17.4 22.05c2.32 4.95 5.51 14.18 7.09 20.5c1.58 6.32 2.86 12.96 2.85 14.75c-0.01 1.79-0.8 4.89-1.77 6.89c-0.96 2-4.21 5.71-7.23 8.25c-3.01 2.54-7.06 5.4-9 6.37c-2.32 1.16-5.82 1.76-10.27 1.75c-3.71 0-10.01-0.65-14-1.43c-3.99-0.78-11.3-2.82-16.25-4.52c-4.95-1.71-13.95-5.71-20-8.89c-6.05-3.18-17-9.59-24.34-14.23c-7.34-4.64-19.26-12.9-26.5-18.36c-7.24-5.46-20.59-15.87-29.66-23.14c-9.07-7.27-21.67-17.65-27.99-23.08c-6.32-5.43-16.59-14.81-22.81-20.86c-6.31-6.13-12.17-12.77-13.24-15c-1.05-2.2-2.44-6.48-3.09-9.5c-1.03-4.8-0.94-6.14 0.69-10.5c1.03-2.75 3.48-7.02 5.45-9.5c1.97-2.47 5.36-5.6 7.53-6.95c2.18-1.35 5.3-2.78 6.95-3.19c1.65-0.41 5.48-0.5 8.5-0.22zm-1801.75 70.37c0.96-0.01 3.89 1.05 6.5 2.35c2.61 1.3 7.56 4.68 11 7.5c3.69 3.03 7.46 7.28 9.21 10.38c1.63 2.89 3.24 6.82 3.58 8.75c0.34 1.93 0.13 5.97-0.47 9c-0.62 3.15-3.12 9.04-5.83 13.76c-2.61 4.54-8.62 13.09-13.36 19c-4.74 5.91-15.58 18.84-24.11 28.74c-8.52 9.9-20.75 23.62-27.17 30.5c-6.42 6.87-16.95 17.37-23.39 23.33c-6.44 5.95-15.32 13.25-19.72 16.21c-4.4 2.96-10.7 6.36-14 7.54c-4.7 1.69-8.28 2.16-16.5 2.17c-6.32 0.01-13.19-0.64-17.25-1.62c-3.71-0.9-8.1-2.31-9.75-3.13c-1.65-0.83-3.9-2.96-5-4.75c-1.63-2.65-2-5-1.99-12.75c0-5.22 0.47-12.42 1.05-16c0.57-3.57 2.37-10.32 3.99-15c1.62-4.68 4.41-10.95 6.2-13.95c1.79-3 10.45-12.83 19.25-21.85c8.8-9.02 23.42-22.86 32.5-30.75c9.08-7.9 24.15-20.47 33.5-27.93c9.35-7.46 20.6-16.04 25-19.07c4.4-3.02 11.82-7.05 16.5-8.95c4.68-1.9 9.29-3.47 10.25-3.48zm1728.5 2.02c2.34-0.02 6.61 0.85 9.5 1.93c2.89 1.08 9.3 4.5 14.25 7.6c4.95 3.1 11.93 7.95 15.5 10.77c3.57 2.82 11.45 9.18 17.5 14.12c6.05 4.94 18.65 15.59 28 23.65c9.35 8.06 23.77 21.58 32.05 30.03c8.28 8.45 16.57 17.61 18.44 20.36c1.87 2.75 4.65 7.7 6.19 11c1.54 3.3 3.93 10.5 5.32 16c1.45 5.72 2.52 12.78 2.51 16.5c-0.01 3.57-0.52 8.3-1.13 10.5c-0.61 2.2-2.54 5.35-4.28 7c-1.74 1.65-5.4 3.75-8.13 4.66c-2.73 0.91-8.79 2.19-13.46 2.84c-6.39 0.89-10.36 0.9-16 0.06c-4.13-0.62-10.2-2.37-13.5-3.89c-3.3-1.52-9.15-4.99-13-7.7c-3.85-2.71-13.47-11.24-21.39-18.95c-7.91-7.71-20.9-21.22-28.86-30.02c-7.96-8.8-19.94-22.68-26.61-30.85c-6.68-8.17-16.14-20.32-21.04-27c-4.89-6.68-9.79-14.17-10.89-16.65c-1.56-3.52-1.89-5.91-1.51-11c0.3-4.09 1.45-8.54 3.09-12c1.43-3.03 4.76-7.65 7.4-10.28c3.2-3.19 6.62-5.43 10.29-6.72c3.03-1.06 7.41-1.95 9.75-1.97z" />
	</g>
	
	<path id="Path 0" fill-rule="evenodd" class="s3" d="m435.23 383c0.54 0 6 8.57 12.13 19.04c6.13 10.47 11.71 19.02 12.4 19c0.69-0.02 10.36-1.38 21.5-3.02c11.14-1.64 20.36-2.88 20.51-2.75c0.14 0.13-0.87 2.82-2.25 5.98c-1.38 3.16-3.07 5.95-3.76 6.2c-0.69 0.25-8.45 1.18-17.25 2.06c-8.8 0.89-16.11 1.81-16.25 2.05c-0.14 0.24 1.48 3.02 3.6 6.18c2.12 3.16 6.39 9.69 15.15 23.25l-3.02 6.25c-1.66 3.44-3.18 6.02-3.37 5.75c-0.2-0.27-5.14-8.94-10.98-19.25c-8.87-15.64-11-18.75-12.88-18.74c-1.24 0-11.25 1.13-22.25 2.51c-11 1.38-20.11 2.27-20.25 1.99c-0.14-0.28 1.05-3.09 5.52-12.01l17.37-1.32c9.55-0.72 17.48-1.51 17.62-1.75c0.14-0.24-4.17-7.07-19.39-29.93l2.44-5.75c1.34-3.16 2.89-5.75 3.43-5.75zm-19.48 75.08c4.86-0.05 9.31 0.61 13.5 2c3.44 1.15 8.72 3.49 11.75 5.2c3.02 1.72 7.77 5.39 10.55 8.17c2.78 2.78 6.14 7.3 7.48 10.05c1.66 3.42 2.54 7.21 2.79 12c0.27 5.25-0.15 8.37-1.67 12.5c-1.12 3.03-3.75 7.43-5.84 9.79c-2.56 2.88-5.78 5.08-15.81 9.08l16 7.65c8.8 4.21 17.69 8.28 19.75 9.06c2.06 0.78 3.76 1.75 3.77 2.17c0.01 0.41-0.89 2.89-2 5.5c-1.71 4-2.38 4.68-4.27 4.28c-1.24-0.26-23.18-10.4-48.75-22.55c-25.58-12.14-46.87-22.4-47.32-22.78c-0.45-0.39 0.23-3.08 1.5-5.99c1.27-2.91 2.43-5.27 2.57-5.25c0.14 0.02 2.5 1.16 5.25 2.54c2.75 1.37 5.22 2.5 5.5 2.5c0.28 0-0.5-2.14-1.72-4.75c-1.63-3.47-2.23-6.63-2.24-11.75c-0.01-5.4 0.57-8.26 2.52-12.5c1.39-3.03 4.54-7.43 6.99-9.8c2.45-2.36 6.25-4.91 8.45-5.67c2.2-0.76 7.26-1.41 11.25-1.45zm-16.88 21.45c-2.63 3.79-3.45 6.07-3.72 10.41c-0.21 3.38 0.25 7.13 1.18 9.56c0.84 2.2 3.73 6.02 6.42 8.5c3.12 2.87 8.13 5.9 13.82 8.37c7.79 3.37 9.7 3.82 15 3.5c4.78-0.29 6.98-1.01 10.32-3.37c2.67-1.89 5.15-4.85 6.68-8c1.52-3.11 2.43-6.7 2.41-9.5c-0.02-2.47-0.86-6.3-1.88-8.5c-1.01-2.2-3.82-5.94-6.23-8.31c-2.41-2.37-7.54-5.89-11.39-7.83c-5.33-2.68-8.67-3.64-14-4.02c-6.14-0.45-7.51-0.21-11.13 1.91c-2.27 1.33-5.65 4.61-7.5 7.28zm-50.37 46.47c4.12 0.01 7.56 0.74 11 2.33c2.75 1.27 6.46 4.08 8.25 6.24c1.79 2.16 3.93 5.95 4.76 8.43c0.83 2.47 1.5 5.29 1.5 6.25c-0.01 1.49 0.7 1.3 4.74-1.25c2.61-1.65 7.23-3.5 10.25-4.11c3.03-0.61 7.52-0.83 10-0.49c2.47 0.34 6.75 1.7 9.5 3.02c2.75 1.32 6.46 4.02 8.25 5.99c1.79 1.97 4.21 5.5 5.39 7.84c1.18 2.34 2.36 6.95 2.63 10.25c0.33 4.03-0.08 7.97-1.24 12c-0.95 3.3-2.59 7.69-3.63 9.75c-1.04 2.06-3.81 5.81-6.15 8.33c-2.34 2.52-6.72 5.77-9.75 7.23c-4.38 2.11-6.92 2.64-12.5 2.61c-5.4-0.03-8.25-0.63-12.5-2.64c-3.03-1.43-7.04-4.33-8.92-6.44c-1.88-2.11-4.47-6.09-5.74-8.84c-1.27-2.75-2.32-6.91-2.33-9.25c-0.01-2.34-0.12-4.25-0.26-4.25c-0.14 0-2.95 1.12-6.25 2.48c-3.3 1.36-7.8 2.48-10 2.49c-2.2 0.01-5.69-0.43-7.75-0.98c-2.06-0.55-5.64-2.46-7.94-4.24c-2.4-1.86-5.4-5.6-7.03-8.75c-2.31-4.48-2.83-6.76-2.81-12.25c0.02-4.16 0.78-8.77 1.98-12c1.07-2.89 3.69-7.27 5.82-9.75c2.13-2.47 6.31-5.74 9.3-7.26c4.17-2.12 6.83-2.76 11.43-2.74zm-14.74 18.73c-1.03 1.52-2.3 4.46-2.82 6.52c-0.63 2.49-0.58 5.18 0.14 8c0.6 2.34 2.51 5.73 4.25 7.53c1.74 1.8 4.97 3.99 7.17 4.85c2.71 1.07 5.29 1.35 8 0.89c2.2-0.38 5.35-1.5 7-2.49c1.65-0.99 3.73-2.87 4.63-4.17c0.9-1.3 2.12-4.16 2.73-6.36c0.8-2.9 0.8-5.1 0.01-8c-0.6-2.2-2.05-5.32-3.23-6.94c-1.17-1.62-3.94-3.74-6.14-4.73c-2.2-0.98-5.8-1.78-8-1.77c-2.2 0.01-5.77 0.89-7.93 1.96c-2.16 1.06-4.77 3.18-5.8 4.71zm43.04 16.9c-1.48 1.58-3.4 4.56-4.25 6.63c-0.85 2.06-1.56 5.89-1.57 8.5c-0.01 3.06 0.81 6.35 2.31 9.25c1.59 3.06 3.91 5.47 7.27 7.54c2.71 1.67 6.85 3.36 9.19 3.75c2.41 0.4 6.09 0.23 8.5-0.4c2.69-0.7 5.77-2.63 8.39-5.25c3.05-3.05 4.59-5.72 5.83-10.14c1.03-3.66 1.42-7.17 1-9c-0.38-1.65-1.66-4.7-2.83-6.78c-1.18-2.08-3.38-4.67-4.89-5.75c-1.51-1.08-4.66-2.65-7-3.49c-2.34-0.84-5.83-1.5-7.75-1.48c-1.93 0.02-5.3 0.88-7.5 1.89c-2.2 1.02-5.21 3.15-6.7 4.73zm-63.8 40.64c4.68 0.25 7.76 1.07 11 2.92c2.47 1.41 6.19 4.42 8.25 6.69c2.06 2.27 4.2 5.81 4.74 7.87c0.55 2.06 1 6.11 1.01 14.25l4.25-4.55c2.34-2.5 6.16-5.43 8.5-6.5c2.63-1.2 6.45-1.95 10-1.96c4.32-0.01 7.1 0.68 11.18 2.75c2.99 1.52 7.17 4.79 9.28 7.26c2.12 2.48 4.51 6.53 5.33 9c0.81 2.48 1.48 7.43 1.49 11c0.01 3.66-0.86 9.34-1.98 13c-1.09 3.57-3.4 8.75-5.12 11.5c-1.72 2.75-4.55 6.5-6.29 8.33c-1.73 1.83-3.94 3.75-4.9 4.25c-1.24 0.65-3.35 0.19-12.75-4.08l5.25-3.89c2.89-2.14 6.2-5.18 7.35-6.75c1.16-1.57 3.25-5.11 4.66-7.86c1.41-2.75 2.88-7.25 3.28-10c0.47-3.3 0.26-6.36-0.62-9c-0.73-2.2-2.48-5.31-3.88-6.92c-1.4-1.61-4.34-3.73-6.54-4.73c-2.2-0.99-5.91-1.82-8.25-1.83c-2.34-0.01-5.9 0.77-7.92 1.73c-2.02 0.96-5.21 3.55-7.09 5.75c-1.88 2.2-5.18 7.49-7.33 11.75c-2.15 4.26-4.13 7.75-4.41 7.75c-0.28 0-2.3-0.9-4.5-2c-2.2-1.1-4.01-2.11-4.03-2.25c-0.02-0.14 1.45-3.4 3.25-7.25c2.87-6.12 3.28-8.03 3.28-15.18c0-7.71-0.17-8.36-3-11.38c-1.65-1.76-4.8-4.03-7-5.05c-2.2-1.02-6.03-1.87-8.5-1.9c-3.09-0.03-5.6 0.67-8 2.26c-2.3 1.52-4.7 4.68-7 9.18c-3.1 6.08-3.5 7.74-3.5 22.23l-10-4.46l0.25-6.6c0.14-3.73 1.19-9.11 2.41-12.35c1.19-3.16 3.15-7.32 4.36-9.25c1.21-1.93 3.73-5.02 5.59-6.87c1.87-1.85 5.19-4.24 7.39-5.29c3.01-1.45 5.6-1.83 10.5-1.57zm-50.21 77.62c2.04 1.04 21.04 10.1 42.21 20.14c21.18 10.04 41.31 19.54 51 23.98l-2.62 5.25c-1.44 2.89-2.68 5.35-2.75 5.48c-0.07 0.13-17.68-8.1-39.13-18.27c-21.45-10.18-39.68-18.71-40.5-18.97c-1.29-0.4-1.46 1.36-1 25.51l-2.25-0.63c-1.24-0.34-3.75-1.36-8.94-3.87l0.15-11.5c0.08-6.32-0.33-14.54-0.91-18.25c-0.73-4.67-0.73-7.37-0.02-8.75c1.03-1.98 1.08-1.98 4.75-0.11zm-15.56 99.12c0.54 0 6 8.57 12.13 19.04c6.13 10.47 11.71 19.02 12.4 19c0.69-0.02 10.36-1.38 21.5-3.02c11.14-1.64 20.36-2.88 20.51-2.75c0.14 0.13-0.87 2.82-2.25 5.98c-1.38 3.16-3.07 5.95-3.76 6.2c-0.69 0.25-8.45 1.18-17.25 2.07c-8.8 0.89-16.11 1.81-16.25 2.05c-0.14 0.24 1.48 3.02 3.6 6.18c2.12 3.16 6.39 9.69 15.15 23.25l-3.02 6.25c-1.66 3.44-3.18 6.02-3.37 5.75c-0.2-0.27-5.14-8.94-10.98-19.25c-8.87-15.64-11-18.75-12.88-18.74c-1.24 0-11.25 1.13-22.25 2.51c-11 1.38-20.11 2.27-20.25 1.99c-0.14-0.28 1.05-3.09 5.52-12.01l17.37-1.32c9.55-0.72 17.48-1.51 17.62-1.75c0.14-0.24-4.17-7.07-19.39-29.93l2.44-5.75c1.34-3.16 2.89-5.75 3.43-5.75zm-19.48 75.08c4.86-0.05 9.31 0.61 13.5 2c3.44 1.15 8.72 3.49 11.75 5.2c3.03 1.72 7.77 5.39 10.55 8.17c2.78 2.78 6.14 7.3 7.48 10.05c1.66 3.42 2.54 7.21 2.79 12c0.27 5.25-0.15 8.37-1.67 12.5c-1.12 3.03-3.75 7.43-5.84 9.79c-2.56 2.88-5.78 5.08-15.81 9.08l16 7.65c8.8 4.21 17.69 8.28 19.75 9.06c2.06 0.78 3.76 1.75 3.77 2.17c0.01 0.41-0.89 2.89-2 5.5c-1.71 4-2.38 4.68-4.27 4.28c-1.24-0.26-23.18-10.4-48.75-22.55c-25.57-12.14-46.87-22.4-47.32-22.78c-0.45-0.39 0.23-3.08 1.5-5.99c1.27-2.91 2.43-5.27 2.57-5.25c0.14 0.02 2.5 1.16 5.25 2.54c2.75 1.37 5.22 2.5 5.5 2.5c0.27 0-0.5-2.14-1.72-4.75c-1.63-3.47-2.23-6.63-2.24-11.75c-0.01-5.4 0.57-8.26 2.52-12.5c1.39-3.03 4.54-7.43 6.99-9.8c2.45-2.36 6.25-4.91 8.45-5.67c2.2-0.76 7.26-1.41 11.25-1.45zm-16.88 21.45c-2.63 3.79-3.45 6.07-3.72 10.41c-0.21 3.38 0.25 7.13 1.18 9.56c0.84 2.2 3.73 6.02 6.42 8.5c3.12 2.87 8.13 5.9 13.82 8.37c7.79 3.37 9.7 3.82 15 3.5c4.78-0.29 6.98-1.01 10.32-3.37c2.67-1.89 5.15-4.85 6.68-8c1.52-3.11 2.43-6.7 2.41-9.5c-0.02-2.47-0.86-6.3-1.88-8.5c-1.01-2.2-3.82-5.94-6.23-8.31c-2.41-2.37-7.54-5.89-11.39-7.83c-5.33-2.68-8.67-3.64-14-4.02c-6.14-0.45-7.51-0.21-11.13 1.91c-2.27 1.33-5.65 4.61-7.5 7.28zm-59.86 34.37l3 1.55c1.65 0.85 6.22 5.94 10.15 11.3c3.94 5.36 11.02 14.48 15.74 20.25c4.72 5.77 13.54 15.46 19.59 21.52c6.05 6.06 15.18 14.16 20.29 18c5.1 3.84 9.27 7.32 9.25 7.73c-0.02 0.41-1.15 3-5.03 10.75l-2.75-1.66c-1.51-0.91-6.13-4.47-10.25-7.91c-4.13-3.44-12.26-11.13-18.08-17.09c-5.82-5.96-13.92-14.89-18.01-19.84c-4.09-4.95-10.35-12.95-13.92-17.78c-3.57-4.83-6.57-8.65-6.67-8.5c-0.1 0.15-4.96 10.4-10.8 22.78c-5.84 12.37-10.94 22.87-11.32 23.32c-0.39 0.45-2.82-0.22-10.1-3.82l8.32-17.5c4.57-9.62 11.08-23.26 14.45-30.3l6.14-12.8zm-37.96 80.37l4.96 2.12c2.73 1.16 4.98 2.34 5 2.62c0.03 0.27-3.57 8.15-8 17.5c-4.42 9.35-7.92 17.04-7.77 17.09c0.15 0.05 6.01 3.31 13.02 7.25c7.01 3.94 12.97 7.16 13.25 7.16c0.28 0 2.08-3.37 4-7.5c1.92-4.13 5.64-9.82 8.25-12.65c2.61-2.83 7-6.2 9.75-7.49c3.56-1.67 6.8-2.35 11.25-2.35c4.05-0.01 8.27 0.76 12 2.19c3.16 1.21 7.55 3.59 9.75 5.28c2.2 1.7 5.47 5.32 7.28 8.05c1.8 2.73 3.78 7.44 4.39 10.47c0.83 4.12 0.82 7.26-0.07 12.5c-0.65 3.85-2.69 10.15-4.54 14c-1.84 3.85-5.38 9.25-12.35 17l-11.71-5.6l5.5-4.79c3.4-2.96 6.82-7.24 8.94-11.2c2.9-5.4 3.45-7.44 3.47-12.91c0.02-4.8-0.56-7.61-2.19-10.75c-1.3-2.49-4.08-5.49-6.72-7.25c-2.47-1.65-6.64-3.5-9.25-4.11c-3.41-0.8-5.88-0.81-8.75-0.04c-2.2 0.59-5.97 2.78-8.39 4.86c-3.27 2.83-5.59 6.34-9.11 13.79c-2.6 5.5-5.12 11-5.61 12.22c-0.86 2.14-1.68 1.78-23.39-10.39c-12.38-6.94-22.73-12.77-23-12.97c-0.27-0.2 4.12-10.2 9.77-22.23l10.27-21.86z" />
	<path id="Path 0" class="s4" d="m730 1766.56c1.38 0.34 4.75 1.45 7.5 2.45c3.4 1.24 6.38 3.38 9.3 6.66c2.37 2.65 5.21 7.3 6.32 10.33c1.11 3.03 2.85 10.68 3.88 17c1.03 6.32 2.13 13.52 2.45 16c0.32 2.47 1.23 10.12 2.02 17c0.79 6.87 1.9 19.48 2.46 28c0.56 8.53 1.49 29.45 2.06 46.5c0.57 17.05 1.48 54.63 2.02 83.5c0.54 28.88 0.99 56.78 1.01 71.5l-8.26-0.69c-5.45-0.46-11.82-1.93-18.76-4.34c-5.77-2.01-16.35-6.13-23.5-9.16c-7.15-3.03-20.65-9.28-30-13.89c-9.35-4.61-21.95-11.33-28-14.94c-6.05-3.61-12.47-8-14.27-9.77c-3.08-3.02-3.27-3.62-3.25-10.21c0.01-3.85 0.92-13.52 2.03-21.5c1.11-7.97 3.4-21.93 5.09-31c1.69-9.07 4.86-24.6 7.04-34.5c2.18-9.9 5.72-24.97 7.86-33.5c2.14-8.52 6.45-23.38 9.57-33c3.13-9.63 7.15-21.32 8.94-26c1.79-4.68 5.07-12.32 7.3-17c2.22-4.67 6.33-11.99 9.12-16.25c2.79-4.26 6.99-9.84 9.33-12.4c2.66-2.91 6.87-5.91 11.25-8.03c4.87-2.35 7.76-3.19 9.5-2.76zm1541.5 2.05c2.75 0.27 7.93 1.82 11.5 3.44c3.57 1.62 7.69 4.18 9.15 5.7c1.45 1.51 4.49 5.79 6.75 9.5c2.26 3.71 6.19 10.91 8.74 16c2.55 5.09 6.63 14.43 9.07 20.75c2.44 6.33 6.88 19.26 9.86 28.75c2.99 9.49 6.99 23.21 8.9 30.5c1.91 7.29 5.49 22.25 7.96 33.25c2.47 11 5.9 27.65 7.62 37c1.72 9.35 3.75 22.18 4.51 28.5c0.76 6.32 1.39 14.99 1.41 19.25c0.03 7.11-0.2 8.02-2.81 11c-1.57 1.79-7.3 6.15-12.75 9.7c-5.45 3.55-18 10.37-27.9 15.16c-9.9 4.79-24.75 11.71-33 15.39c-8.25 3.67-19.05 8.03-24 9.68c-5.93 1.97-11.29 3.05-15.72 3.16c-5.51 0.13-7.08-0.2-8.75-1.84c-1.28-1.26-2.44-4.41-3.14-8.5c-0.72-4.26-0.88-14.43-0.47-29.5c0.35-12.65 1.29-39.65 2.08-60c0.8-20.35 1.68-40.15 1.96-44c0.28-3.85 0.73-10.83 0.99-15.5c0.26-4.67 0.74-13.68 1.06-20c0.32-6.33 1.23-20.16 2.03-30.75c0.79-10.59 2.34-25.66 3.45-33.5c1.1-7.84 2.67-18.07 3.49-22.75c0.82-4.67 2.81-11.2 4.41-14.5c1.61-3.3 4.65-7.83 6.76-10.06c2.31-2.44 5.43-4.51 7.84-5.19c2.2-0.62 6.25-0.91 9-0.64zm-927.5 56.43c0.83 0 3.3 0.84 5.5 1.86c2.2 1.02 5.21 3.15 6.7 4.73c1.48 1.58 4.27 6.25 6.19 10.38c1.92 4.12 4.63 11.77 6.02 17c1.39 5.22 3.69 15.8 5.1 23.5c1.41 7.7 4.11 23.67 5.99 35.5c1.88 11.83 5.01 33.2 6.97 47.5c1.96 14.3 5.55 41.75 8 61c2.44 19.25 4.72 37.48 5.06 40.5c0.34 3.02 0.79 6.62 1 8c0.21 1.37 1.07 8.57 1.91 16c0.84 7.43 2.22 21.6 3.06 31.5c0.84 9.9 1.95 26.1 2.46 36c0.51 9.9 0.56 23.4 0.12 30c-0.44 6.6-1.31 13.01-1.93 14.25c-0.62 1.24-2.35 3.04-3.83 4c-2.27 1.47-4.79 1.72-15.75 1.55c-7.17-0.11-24.29-1.14-38.04-2.3c-13.75-1.15-34.9-3.2-47-4.56c-12.1-1.36-27.85-3.39-35-4.52c-7.15-1.13-13.79-2.25-14.75-2.49c-1.64-0.41-1.73-2.91-1.36-38.69c0.3-29.94 0.85-42.49 2.49-57.75c1.16-10.72 3.26-25.58 4.66-33c1.41-7.43 3.9-20.03 5.55-28c1.64-7.97 5.01-23.5 7.48-34.5c2.47-11 6.98-29.68 10.02-41.5c3.04-11.83 8.17-30.73 11.4-42c3.23-11.27 8.31-27.47 11.3-36c2.98-8.52 6.91-19.1 8.73-23.5c1.82-4.4 4.9-10.47 6.86-13.5c1.96-3.03 6.07-7.97 9.14-11c3.07-3.02 7.59-6.51 10.03-7.74c2.45-1.23 5.12-2.23 5.95-2.23zm312.25-0.05c0.96 0.01 3.21 0.67 5 1.48c1.79 0.81 5.05 2.99 7.25 4.85c2.2 1.86 6.32 6.71 9.15 10.78c2.83 4.07 7.18 11.45 9.66 16.4c2.48 4.95 5.94 13.05 7.67 18c1.74 4.95 6.45 20.48 10.48 34.5c4.03 14.03 10.27 37.2 13.88 51.5c3.6 14.3 8.8 35.9 11.55 48c2.75 12.1 6.57 29.65 8.48 39c1.91 9.35 4.41 23.52 5.56 31.5c1.15 7.97 2.57 20.13 3.16 27c0.59 6.87 1.32 28.93 1.62 49c0.49 33.42 0.39 36.65-1.16 38.25c-0.93 0.96-3.01 1.75-4.63 1.75c-1.61 0-17.67 1.56-35.68 3.47c-18.01 1.91-41.07 4.14-51.25 4.97c-10.18 0.83-21.65 1.74-25.5 2.03c-3.85 0.29-14.65 0.83-41 1.86l0.72-27.91c0.4-15.35 1.41-36.69 2.26-47.41c0.85-10.72 2.23-26.25 3.08-34.5c0.85-8.25 1.94-17.92 2.42-21.5c0.48-3.57 1.16-8.97 1.5-12c0.34-3.03 2.19-17.65 4.12-32.5c1.92-14.85 5.07-38.48 6.99-52.5c1.92-14.03 3.72-26.85 4.01-28.5c0.28-1.65 1.85-12.23 3.48-23.5c1.63-11.27 4.98-32.43 7.46-47c2.47-14.57 5.17-28.98 5.99-32c0.82-3.03 2.56-7.3 3.86-9.5c1.3-2.2 3.47-5.35 4.82-7c1.35-1.65 4.89-4.24 7.87-5.76c2.98-1.52 6.21-2.76 7.17-2.75zm-623 46.09c1.51-0.04 5.34 0.91 8.5 2.13c3.16 1.21 7.37 3.8 9.35 5.75c1.98 1.95 4.77 5.57 6.21 8.04c1.44 2.47 3.8 7.87 5.24 12c1.44 4.13 3.48 11.78 4.52 17c1.04 5.22 2.77 15.8 3.85 23.5c1.07 7.7 2.2 16.47 2.49 19.5c0.3 3.03 1.23 13.15 2.08 22.5c0.85 9.35 1.98 26.68 2.51 38.5c0.54 11.82 1.46 37.25 2.05 56.5c0.73 23.75 0.75 41.75 0.08 56c-0.54 11.55-1.47 22.24-2.06 23.75c-0.9 2.32-1.65 2.75-4.82 2.75c-2.06 0-7.35-0.63-11.75-1.4c-4.4-0.77-17.23-3.48-28.5-6.01c-11.28-2.54-34.74-8.09-52.13-12.35c-17.4-4.25-32.02-8.11-32.5-8.56c-0.49-0.46-0.35-8.33 0.32-18c0.65-9.45 2.58-26.85 4.29-38.68c1.71-11.83 5.09-31.4 7.52-43.5c2.43-12.1 7.17-33.03 10.54-46.5c3.37-13.47 9.63-35.07 13.9-48c4.28-12.93 9.55-27.33 11.73-32c2.17-4.67 5.78-11.2 8.01-14.5c2.23-3.3 5.8-7.6 7.94-9.56c2.14-1.96 6.36-4.48 9.39-5.61c3.03-1.13 6.18-2.3 7-2.61c0.82-0.31 2.74-0.59 4.25-0.64zm933.5-0.03c1.79-0.03 4.49 0.49 6 1.16c1.51 0.67 5.22 2.87 8.25 4.9c3.02 2.03 7.13 5.42 9.11 7.54c1.99 2.12 5.56 6.77 7.94 10.35c2.38 3.57 6 10.1 8.05 14.5c2.05 4.4 5.81 14.75 8.36 23c2.55 8.25 7.1 24 10.11 35c3 11 7.46 29 9.91 40c2.44 11 6.01 28.55 7.92 39c1.91 10.45 4.15 23.95 4.98 30c0.83 6.05 1.79 14.15 2.14 18c0.35 3.85 1.05 10.83 1.56 15.5c0.51 4.67 0.94 10.75 0.97 13.5c0.03 2.88-0.5 5.5-1.24 6.18c-0.71 0.65-8.49 3.21-17.29 5.69c-8.8 2.48-26.8 7.22-40 10.51c-13.2 3.3-31.65 7.55-41 9.45c-9.35 1.9-19.81 3.72-29.5 4.67l-0.75-3.75c-0.41-2.06-0.71-28.27-0.66-58.25c0.05-29.98 0.61-63.95 1.23-75.5c0.63-11.55 1.4-26.85 1.71-34c0.31-7.15 1.24-21.77 2.06-32.5c0.84-11.02 2.6-24.94 4.05-32c1.41-6.87 3.67-16.33 5.03-21c1.36-4.67 3.56-10.52 4.89-13c1.33-2.47 4.79-6.9 7.68-9.82c3.36-3.4 7.06-6 10.26-7.2c2.75-1.03 6.46-1.9 8.25-1.93z" />
	 
</svg>