<svg version="1.2" baseProfile="tiny-ps" xmlns="http://www.w3.org/2000/svg" x="0" y="0">
	<title>Path 0</title>
	<style>
		tspan { white-space:pre }
		.shp0 { opacity: 0.996;fill: #ececec } 
	</style>
	<path id="Path 0" fill-rule="evenodd" class="shp0" d="M2296.5 0.16C2336.65 0.08 2378.27 0.45 2389 0.98C2399.72 1.5 2413.67 2.19 2420 2.51C2426.32 2.82 2441.62 3.75 2454 4.55C2466.37 5.36 2482.12 6.48 2489 7.03C2495.87 7.59 2506 8.48 2511.5 9.01C2517 9.54 2530.72 10.91 2542 12.04C2553.27 13.18 2574.65 15.64 2589.5 17.52C2604.35 19.39 2625.95 22.31 2637.5 24.01C2649.05 25.7 2669.3 28.9 2682.5 31.12C2695.7 33.34 2715.72 36.89 2727 39.01C2738.27 41.14 2755.37 44.48 2765 46.46C2774.62 48.43 2791.72 52.09 2803 54.6C2814.27 57.11 2833.4 61.56 2845.5 64.5C2857.6 67.43 2878.75 72.82 2892.5 76.47C2906.25 80.13 2927.62 86.06 2940 89.64C2952.37 93.23 2971.72 99.04 2983 102.54C2994.27 106.04 3013.62 112.25 3026 116.35C3038.37 120.45 3058.85 127.5 3071.5 132C3084.15 136.51 3103.95 143.79 3115.5 148.18C3127.05 152.57 3149.1 161.26 3164.5 167.49C3179.9 173.72 3203.3 183.53 3216.5 189.28C3229.7 195.04 3250.62 204.4 3263 210.08C3275.37 215.76 3301.47 228.35 3321 238.05C3340.52 247.76 3364.37 259.88 3374 265C3383.62 270.11 3398.47 278.12 3407 282.79C3415.52 287.47 3432.85 297.25 3445.5 304.53C3458.15 311.81 3475.92 322.24 3485 327.7C3494.07 333.16 3510.72 343.42 3522 350.49C3533.27 357.56 3554.2 371.08 3568.5 380.54C3582.8 390 3604.62 404.84 3617 413.52C3629.37 422.2 3647.82 435.41 3658 442.88C3668.17 450.35 3684.15 462.28 3693.5 469.39C3702.85 476.51 3719.27 489.31 3730 497.84C3740.72 506.37 3758.5 520.83 3769.5 529.97C3780.5 539.11 3796.7 552.84 3805.5 560.47C3814.3 568.1 3827.33 579.56 3834.46 585.93C3841.58 592.29 3857.11 606.49 3868.96 617.49C3880.81 628.48 3905.62 652.56 3924.09 670.99C3942.57 689.42 3965.07 712.38 3974.09 722C3983.12 731.63 3996.63 746.25 4004.12 754.5C4011.61 762.75 4024.61 777.37 4033.01 787C4041.41 796.62 4056.92 814.85 4067.48 827.5C4078.03 840.15 4093.64 859.27 4102.16 870C4110.67 880.72 4123.47 897.15 4130.59 906.5C4137.71 915.85 4149.65 931.82 4157.12 942C4164.59 952.17 4177.8 970.62 4186.48 983C4195.16 995.37 4210 1017.2 4219.47 1031.5C4228.94 1045.8 4244.12 1069.42 4253.21 1084C4262.3 1098.57 4275.7 1120.62 4282.98 1133C4290.26 1145.37 4301.51 1164.95 4307.97 1176.5C4314.43 1188.05 4325.02 1207.4 4331.51 1219.5C4337.99 1231.6 4351.46 1257.92 4361.43 1278C4371.41 1298.07 4384.23 1324.62 4389.92 1337C4395.62 1349.37 4406 1372.77 4413.01 1389C4420.01 1405.22 4430.26 1429.75 4435.78 1443.5C4441.3 1457.25 4450.76 1481.77 4456.8 1498C4462.85 1514.22 4471.19 1537.4 4475.35 1549.5C4479.5 1561.6 4485.59 1579.82 4488.87 1590C4492.16 1600.17 4496.19 1612.77 4497.84 1618C4499.48 1623.22 4504.44 1639.87 4508.86 1655C4513.27 1670.12 4519.82 1693.52 4523.39 1707C4526.97 1720.47 4532.36 1741.62 4535.37 1754C4538.37 1766.37 4542.89 1785.72 4545.4 1797C4547.91 1808.27 4551.57 1825.37 4553.54 1835C4555.51 1844.62 4558.91 1861.95 4561.09 1873.5C4563.27 1885.05 4567.27 1908 4569.98 1924.5C4572.7 1941 4576.27 1964.17 4577.93 1976C4579.58 1987.82 4582.27 2008.52 4583.9 2022C4585.53 2035.47 4587.58 2053.7 4588.45 2062.5C4589.32 2071.3 4590.47 2083 4591 2088.5C4591.53 2094 4592.41 2104.12 4592.97 2111C4593.52 2117.87 4594.64 2133.62 4595.45 2146C4596.25 2158.37 4597.17 2173.67 4597.49 2180C4597.81 2186.32 4598.5 2200.27 4599.02 2211C4599.55 2221.72 4599.98 2261.77 4599.98 2300C4599.98 2338.22 4599.55 2378.27 4599.02 2389C4598.5 2399.72 4597.81 2413.67 4597.49 2420C4597.17 2426.32 4596.25 2441.62 4595.45 2454C4594.64 2466.37 4593.52 2482.12 4592.97 2489C4592.41 2495.87 4591.53 2506 4591 2511.5C4590.47 2517 4589.32 2528.7 4588.45 2537.5C4587.58 2546.3 4585.53 2564.52 4583.9 2578C4582.27 2591.47 4579.58 2612.17 4577.93 2624C4576.27 2635.82 4572.89 2657.87 4570.41 2673C4567.94 2688.12 4564.11 2710.17 4561.91 2722C4559.71 2733.82 4556.12 2752.27 4553.93 2763C4551.74 2773.72 4547.9 2791.72 4545.39 2803C4542.89 2814.27 4538.37 2833.62 4535.37 2846C4532.36 2858.37 4526.97 2879.52 4523.39 2893C4519.82 2906.47 4513.27 2929.87 4508.86 2945C4504.44 2960.12 4499.48 2976.77 4497.84 2982C4496.19 2987.22 4492.16 2999.82 4488.87 3010C4485.59 3020.17 4479.5 3038.4 4475.35 3050.5C4471.19 3062.6 4462.85 3085.77 4456.8 3102C4450.76 3118.22 4441.3 3142.75 4435.78 3156.5C4430.26 3170.25 4420.01 3194.77 4413.01 3211C4406 3227.22 4395.62 3250.62 4389.92 3263C4384.23 3275.37 4371.41 3301.92 4361.43 3322C4351.46 3342.07 4337.99 3368.4 4331.51 3380.5C4325.02 3392.6 4314.43 3411.95 4307.97 3423.5C4301.51 3435.05 4290.26 3454.62 4282.98 3467C4275.7 3479.37 4262.3 3501.42 4253.21 3516C4244.12 3530.57 4228.94 3554.2 4219.46 3568.5C4209.99 3582.8 4195.14 3604.62 4186.47 3617C4177.8 3629.37 4164.59 3647.82 4157.12 3658C4149.65 3668.17 4137.71 3684.15 4130.59 3693.5C4123.47 3702.85 4110.67 3719.27 4102.16 3730C4093.64 3740.72 4078.03 3759.85 4067.48 3772.5C4056.92 3785.15 4041.41 3803.37 4033.01 3813C4024.61 3822.62 4011.61 3837.25 4004.12 3845.5C3996.63 3853.74 3983.1 3868.37 3974.07 3878C3965.03 3887.62 3943.65 3909.48 3926.57 3926.57C3909.48 3943.65 3887.62 3965.03 3878 3974.07C3868.37 3983.1 3853.74 3996.63 3845.5 4004.12C3837.25 4011.61 3822.62 4024.61 3813 4033.01C3803.37 4041.41 3785.15 4056.92 3772.5 4067.48C3759.85 4078.03 3740.72 4093.64 3730 4102.17C3719.27 4110.7 3702.85 4123.49 3693.5 4130.61C3684.15 4137.72 3668.17 4149.65 3658 4157.12C3647.82 4164.59 3629.37 4177.8 3617 4186.48C3604.62 4195.16 3582.8 4210 3568.5 4219.46C3554.2 4228.92 3533.27 4242.44 3522 4249.51C3510.72 4256.58 3494.07 4266.83 3485 4272.3C3475.92 4277.76 3458.15 4288.19 3445.5 4295.47C3432.85 4302.75 3415.52 4312.53 3407 4317.21C3398.47 4321.88 3383.62 4329.89 3374 4335C3364.37 4340.12 3340.52 4352.24 3321 4361.95C3301.47 4371.65 3275.37 4384.24 3263 4389.92C3250.62 4395.6 3229.7 4404.96 3216.5 4410.72C3203.3 4416.47 3179.9 4426.28 3164.5 4432.51C3149.1 4438.74 3127.05 4447.43 3115.5 4451.82C3103.95 4456.21 3084.15 4463.49 3071.5 4468C3058.85 4472.5 3038.37 4479.55 3026 4483.65C3013.62 4487.75 2994.27 4493.96 2983 4497.46C2971.72 4500.96 2952.37 4506.77 2940 4510.35C2927.62 4513.94 2906.25 4519.87 2892.5 4523.53C2878.75 4527.18 2857.6 4532.57 2845.5 4535.5C2833.4 4538.44 2814.27 4542.89 2803 4545.4C2791.72 4547.91 2774.62 4551.57 2765 4553.54C2755.37 4555.51 2738.27 4558.86 2727 4560.99C2715.72 4563.11 2695.7 4566.66 2682.5 4568.88C2669.3 4571.1 2649.05 4574.3 2637.5 4575.99C2625.95 4577.69 2604.35 4580.61 2589.5 4582.48C2574.65 4584.36 2553.27 4586.82 2542 4587.96C2530.72 4589.09 2517 4590.46 2511.5 4590.99C2506 4591.52 2495.87 4592.41 2489 4592.97C2482.12 4593.52 2466.37 4594.64 2454 4595.45C2441.62 4596.25 2426.32 4597.17 2420 4597.49C2413.67 4597.81 2399.72 4598.5 2389 4599.02C2378.27 4599.55 2338.22 4599.98 2300 4599.98C2261.77 4599.98 2221.72 4599.55 2211 4599.02C2200.27 4598.5 2186.32 4597.81 2180 4597.49C2173.67 4597.17 2158.37 4596.25 2146 4595.45C2133.62 4594.64 2117.87 4593.52 2111 4592.97C2104.12 4592.41 2094 4591.52 2088.5 4590.99C2083 4590.46 2069.27 4589.09 2058 4587.96C2046.72 4586.82 2025.35 4584.36 2010.5 4582.48C1995.65 4580.61 1974.05 4577.69 1962.5 4576C1950.95 4574.31 1932.05 4571.34 1920.5 4569.4C1908.95 4567.46 1889.82 4564.08 1878 4561.9C1866.17 4559.71 1847.72 4556.12 1837 4553.93C1826.27 4551.74 1808.27 4547.9 1797 4545.39C1785.72 4542.89 1766.6 4538.44 1754.5 4535.5C1742.4 4532.57 1721.25 4527.18 1707.5 4523.53C1693.75 4519.87 1672.37 4513.94 1660 4510.35C1647.62 4506.77 1628.27 4500.96 1617 4497.46C1605.72 4493.96 1586.37 4487.75 1574 4483.65C1561.62 4479.55 1541.15 4472.5 1528.5 4468C1515.85 4463.49 1496.05 4456.21 1484.5 4451.82C1472.95 4447.43 1450.9 4438.74 1435.5 4432.51C1420.1 4426.28 1396.7 4416.47 1383.5 4410.72C1370.3 4404.96 1349.37 4395.6 1337 4389.92C1324.62 4384.24 1298.52 4371.65 1279 4361.95C1259.47 4352.24 1235.62 4340.12 1226 4335C1216.37 4329.89 1199.5 4320.75 1188.5 4314.69C1177.5 4308.62 1160.4 4298.96 1150.5 4293.21C1140.6 4287.46 1126.42 4279.13 1119 4274.7C1111.57 4270.27 1094.7 4259.9 1081.5 4251.66C1068.3 4243.41 1045.8 4228.92 1031.5 4219.46C1017.2 4210 995.37 4195.16 983 4186.48C970.62 4177.8 952.17 4164.59 942 4157.12C931.82 4149.65 915.85 4137.72 906.5 4130.61C897.15 4123.49 880.72 4110.69 870 4102.16C859.27 4093.63 841.5 4079.17 830.5 4070.03C819.5 4060.89 803.3 4047.16 794.5 4039.53C785.7 4031.89 772.67 4020.44 765.54 4014.07C758.42 4007.71 742.89 3993.51 731.04 3982.51C719.19 3971.52 694.38 3947.44 675.91 3929.01C657.43 3910.58 634.93 3887.62 625.91 3878C616.88 3868.37 603.37 3853.74 595.88 3845.5C588.39 3837.25 575.39 3822.62 566.99 3813C558.59 3803.37 543.08 3785.15 532.52 3772.5C521.97 3759.85 506.36 3740.72 497.84 3730C489.33 3719.27 476.53 3702.85 469.41 3693.5C462.29 3684.15 450.35 3668.17 442.88 3658C435.41 3647.82 422.2 3629.37 413.52 3617C404.84 3604.62 390 3582.8 380.53 3568.5C371.06 3554.2 355.88 3530.57 346.79 3516C337.7 3501.42 324.3 3479.37 317.02 3467C309.74 3454.62 298.49 3435.05 292.03 3423.5C285.57 3411.95 274.98 3392.6 268.49 3380.5C262.01 3368.4 248.54 3342.07 238.57 3322C228.59 3301.92 215.77 3275.37 210.08 3263C204.38 3250.62 194 3227.22 186.99 3211C179.99 3194.77 169.74 3170.25 164.22 3156.5C158.7 3142.75 149.24 3118.22 143.2 3102C137.15 3085.77 128.81 3062.6 124.65 3050.5C120.5 3038.4 114.41 3020.17 111.13 3010C107.84 2999.82 103.81 2987.22 102.16 2982C100.52 2976.77 95.56 2960.12 91.14 2945C86.73 2929.87 80.18 2906.47 76.61 2893C73.03 2879.52 67.64 2858.37 64.63 2846C61.63 2833.62 57.11 2814.27 54.6 2803C52.09 2791.72 48.43 2774.62 46.46 2765C44.48 2755.37 41.09 2738.05 38.91 2726.5C36.73 2714.95 32.73 2692 30.02 2675.5C27.3 2659 23.73 2635.82 22.07 2624C20.42 2612.17 17.73 2591.47 16.1 2578C14.47 2564.52 12.42 2546.3 11.55 2537.5C10.68 2528.7 9.53 2517 9 2511.5C8.47 2506 7.59 2495.87 7.03 2489C6.48 2482.12 5.36 2466.37 4.55 2454C3.75 2441.62 2.82 2426.32 2.51 2420C2.19 2413.67 1.5 2399.72 0.98 2389C0.45 2378.27 0.02 2338.22 0.02 2300C0.02 2261.77 0.45 2221.72 0.98 2211C1.5 2200.27 2.19 2186.32 2.51 2180C2.82 2173.67 3.75 2158.37 4.55 2146C5.36 2133.62 6.48 2117.87 7.03 2111C7.59 2104.12 8.47 2094 9 2088.5C9.53 2083 10.68 2071.3 11.55 2062.5C12.42 2053.7 14.47 2035.47 16.1 2022C17.73 2008.52 20.42 1987.82 22.07 1976C23.73 1964.17 27.3 1941 30.02 1924.5C32.73 1908 36.73 1885.05 38.91 1873.5C41.09 1861.95 44.48 1844.62 46.46 1835C48.43 1825.37 52.09 1808.27 54.6 1797C57.11 1785.72 61.63 1766.37 64.63 1754C67.64 1741.62 73.03 1720.47 76.61 1707C80.18 1693.52 86.73 1670.12 91.14 1655C95.56 1639.87 100.52 1623.22 102.16 1618C103.81 1612.77 107.84 1600.17 111.13 1590C114.41 1579.82 120.5 1561.6 124.65 1549.5C128.81 1537.4 137.15 1514.22 143.2 1498C149.25 1481.77 158.25 1458.37 163.2 1446C168.14 1433.62 177.49 1411.12 183.98 1396C190.46 1380.87 200.14 1358.82 205.48 1347C210.83 1335.17 223.84 1307.95 234.4 1286.5C244.97 1265.05 258.26 1238.72 263.95 1228C269.64 1217.27 280.92 1196.57 289.02 1182C297.13 1167.42 309.72 1145.37 317.01 1133C324.29 1120.62 337.7 1098.57 346.79 1084C355.88 1069.42 371.06 1045.8 380.53 1031.5C390 1017.2 404.84 995.37 413.52 983C422.2 970.62 435.41 952.17 442.88 942C450.35 931.82 462.29 915.85 469.41 906.5C476.53 897.15 489.33 880.72 497.84 870C506.36 859.27 521.97 840.15 532.52 827.5C543.08 814.85 558.59 796.62 566.99 787C575.39 777.37 588.39 762.75 595.88 754.5C603.37 746.25 616.88 731.63 625.91 722C634.93 712.38 657.43 689.42 675.91 670.99C694.38 652.56 719.19 628.48 731.04 617.49C742.89 606.49 758.42 592.29 765.54 585.93C772.67 579.56 785.7 568.1 794.5 560.47C803.3 552.84 819.5 539.11 830.5 529.97C841.5 520.83 859.27 506.37 870 497.84C880.72 489.31 897.15 476.51 906.5 469.39C915.85 462.28 931.82 450.35 942 442.88C952.17 435.41 970.62 422.2 983 413.52C995.37 404.84 1017.2 390 1031.5 380.54C1045.8 371.08 1066.72 357.56 1078 350.49C1089.27 343.42 1105.92 333.16 1115 327.7C1124.07 322.24 1141.85 311.81 1154.5 304.53C1167.15 297.25 1184.47 287.47 1193 282.79C1201.52 278.12 1216.37 270.11 1226 265C1235.62 259.88 1259.47 247.76 1279 238.05C1298.52 228.35 1324.62 215.76 1337 210.08C1349.37 204.4 1370.3 195.04 1383.5 189.28C1396.7 183.53 1420.1 173.72 1435.5 167.49C1450.9 161.26 1472.95 152.57 1484.5 148.18C1496.05 143.79 1515.85 136.51 1528.5 132C1541.15 127.5 1561.62 120.45 1574 116.35C1586.37 112.25 1605.72 106.04 1617 102.54C1628.27 99.04 1647.62 93.23 1660 89.64C1672.37 86.06 1693.75 80.13 1707.5 76.47C1721.25 72.82 1742.4 67.43 1754.5 64.5C1766.6 61.56 1785.72 57.11 1797 54.6C1808.27 52.09 1825.37 48.43 1835 46.46C1844.62 44.48 1861.72 41.14 1873 39.01C1884.27 36.89 1904.3 33.34 1917.5 31.12C1930.7 28.9 1950.95 25.7 1962.5 24.01C1974.05 22.31 1995.65 19.39 2010.5 17.52C2025.35 15.64 2046.72 13.18 2058 12.04C2069.27 10.91 2083 9.54 2088.5 9.01C2094 8.48 2104.12 7.59 2111 7.03C2117.87 6.48 2133.4 5.37 2145.5 4.56C2157.6 3.76 2173.57 2.8 2181 2.44C2188.42 2.07 2201.02 1.44 2209 1.04C2216.97 0.64 2256.35 0.24 2296.5 0.16ZM1824 423.5C1814.37 424.36 1799.75 425.75 1791.5 426.59C1783.25 427.43 1772.9 428.75 1768.5 429.52C1764.1 430.28 1758.02 431.39 1755 431.98C1751.97 432.57 1746.35 433.97 1742.5 435.09C1738.65 436.21 1733.02 437.96 1730 438.98C1726.97 439.99 1720.9 442.25 1716.5 443.99C1712.1 445.73 1704.22 449.29 1699 451.91C1693.77 454.53 1684.77 459.52 1679 462.99C1673.22 466.47 1665.35 471.65 1661.5 474.49C1657.65 477.34 1650 483.4 1644.5 487.96C1639 492.53 1629.1 501.04 1622.5 506.87C1615.9 512.71 1602.4 525.18 1592.5 534.58C1582.6 543.99 1570.04 556.37 1564.6 562.09C1559.15 567.82 1550.12 577.9 1544.51 584.5C1538.91 591.1 1530.94 601 1526.79 606.5C1522.65 612 1510.49 629.55 1499.78 645.5C1489.07 661.45 1476.24 681.25 1471.28 689.5C1466.32 697.75 1459.11 710.12 1455.26 717C1451.42 723.87 1445.68 734.67 1442.51 741C1439.33 747.32 1433.83 758.8 1430.27 766.5C1426.71 774.2 1417.3 796.92 1409.34 817C1401.39 837.07 1390.8 863.4 1385.82 875.5C1380.83 887.6 1370.91 911 1363.77 927.5C1356.63 944 1347.43 965.6 1343.31 975.5C1339.2 985.4 1333.44 999.8 1330.51 1007.5C1327.59 1015.2 1321.38 1032.52 1316.71 1046C1312.04 1059.47 1305.87 1077.47 1302.99 1086C1300.12 1094.52 1293.94 1112.3 1289.27 1125.5C1284.59 1138.7 1278.75 1154.22 1276.28 1160C1273.81 1165.77 1268.5 1177.02 1264.47 1185C1260.44 1192.97 1252.08 1207.6 1245.9 1217.5C1239.71 1227.4 1232.85 1237.97 1230.66 1241C1228.46 1244.02 1223.05 1251 1218.65 1256.5C1214.25 1262 1206.11 1271.67 1200.57 1277.98C1195.03 1284.29 1183.11 1297.34 1174.08 1306.98C1165.05 1316.62 1142.78 1339.8 1124.6 1358.5C1106.41 1377.2 1085.64 1398.57 1078.45 1406C1071.26 1413.42 1060.9 1424.22 1055.43 1430C1049.96 1435.77 1039.34 1447.7 1031.82 1456.5C1024.31 1465.3 1015.37 1476.1 1011.96 1480.5C1008.55 1484.9 1002.13 1493.9 997.69 1500.5C993.25 1507.1 986.07 1518.35 981.74 1525.5C977.4 1532.65 969.69 1546.82 964.6 1557C959.51 1567.17 952.96 1581.57 950.04 1589C947.12 1596.42 942.58 1609.02 939.95 1617C937.32 1624.97 933.57 1637.57 931.62 1645C929.67 1652.42 926.53 1666.37 924.64 1676C922.75 1685.62 920.59 1698.22 919.85 1704C918.89 1711.5 918.5 1727.79 918.5 1761C918.5 1794.46 918.88 1810.16 919.84 1817C920.58 1822.22 922.28 1832.12 923.62 1839C924.95 1845.87 926.77 1854.65 927.66 1858.5C928.54 1862.35 930.36 1869.77 931.7 1875C933.04 1880.22 937.21 1893.72 940.97 1905C944.72 1916.27 949.92 1930.45 952.51 1936.5C955.11 1942.55 961.06 1955.15 965.74 1964.5C970.42 1973.85 976.62 1985.55 979.53 1990.5C982.43 1995.45 990.19 2007.6 996.77 2017.5C1003.91 2028.26 1013.3 2040.73 1020.09 2048.5C1026.35 2055.65 1038.67 2068.87 1047.48 2077.87C1056.29 2086.87 1068.67 2098.83 1075 2104.44C1081.32 2110.05 1089.87 2117.36 1094 2120.68C1098.12 2124.01 1107.12 2130.56 1114 2135.24C1120.87 2139.92 1133.47 2147.94 1142 2153.06C1150.52 2158.18 1164.7 2165.85 1173.5 2170.1C1182.3 2174.34 1195.12 2180.17 1202 2183.05C1208.87 2185.93 1221.25 2190.5 1229.5 2193.21C1237.75 2195.91 1250.35 2199.64 1257.5 2201.5C1264.65 2203.36 1276.35 2206 1283.5 2207.38C1290.65 2208.75 1304.37 2211 1314 2212.39C1323.62 2213.77 1337.35 2215.41 1344.5 2216.04C1351.65 2216.66 1364.02 2217.18 1372 2217.18C1379.97 2217.18 1393.02 2216.66 1401 2216.03C1408.97 2215.39 1420.45 2214.24 1426.5 2213.47C1432.55 2212.69 1441.1 2211.58 1445.5 2210.99C1449.9 2210.39 1459.12 2208.76 1466 2207.36C1472.87 2205.96 1481.87 2203.93 1486 2202.84C1490.12 2201.76 1497.32 2199.8 1502 2198.49C1506.67 2197.18 1515 2194.54 1520.5 2192.63C1526 2190.71 1536.57 2186.6 1544 2183.48C1551.42 2180.36 1564.7 2174.34 1573.5 2170.1C1582.3 2165.86 1596.02 2158.65 1604 2154.09C1611.97 2149.52 1624.12 2142.04 1631 2137.45C1637.87 2132.87 1650.7 2123.36 1659.5 2116.33C1668.3 2109.29 1682.41 2096.77 1690.86 2088.52C1699.32 2080.26 1710.63 2068.55 1716.02 2062.5C1721.4 2056.45 1729.31 2047 1733.6 2041.5C1737.89 2036 1744.59 2027 1748.5 2021.5C1752.4 2016 1757.66 2008.12 1760.2 2004C1762.73 1999.87 1767.71 1991.32 1771.27 1985C1774.83 1978.67 1780 1969 1782.76 1963.5C1785.51 1958 1791.01 1945.85 1794.98 1936.5C1798.94 1927.15 1804.58 1912.3 1807.51 1903.5C1810.44 1894.7 1814.62 1880.52 1816.79 1872C1818.96 1863.47 1821.03 1854.92 1821.39 1853C1821.76 1851.07 1822.91 1844.55 1823.95 1838.5C1825 1832.45 1826.55 1821.42 1827.41 1814C1828.27 1806.57 1829.42 1796.45 1829.98 1791.5C1830.54 1786.55 1830.99 1772.37 1830.99 1760C1831 1747.07 1830.37 1731.54 1829.51 1723.5C1828.7 1715.8 1827.35 1704.32 1826.51 1698C1825.67 1691.67 1824.07 1681.32 1822.94 1675C1821.81 1668.67 1819.32 1657.2 1817.4 1649.5C1815.48 1641.8 1812.77 1631.67 1811.37 1627C1809.97 1622.32 1807.57 1614.9 1806.02 1610.5C1804.48 1606.1 1800.43 1595.75 1797.02 1587.5C1793.62 1579.25 1787.52 1565.75 1783.48 1557.5C1779.43 1549.25 1772.44 1536.2 1767.95 1528.5C1763.45 1520.8 1757.25 1510.67 1754.16 1506C1751.07 1501.32 1744.68 1492.32 1739.96 1486C1735.25 1479.67 1729.01 1471.57 1726.11 1468C1723.2 1464.42 1716.67 1456.32 1711.58 1450C1706.5 1443.67 1699.41 1434.67 1695.83 1430C1692.25 1425.32 1683.69 1413.17 1676.81 1403C1669.93 1392.82 1660.1 1377.75 1654.95 1369.5C1649.81 1361.25 1641.38 1347.3 1636.22 1338.5C1631.06 1329.7 1623.99 1316.65 1620.51 1309.5C1617.03 1302.35 1612.14 1291.32 1609.65 1285C1607.16 1278.67 1603.12 1266.97 1600.66 1259C1598.21 1251.02 1595.27 1240 1594.14 1234.5C1593 1229 1590.73 1214.82 1589.08 1203C1587.42 1191.17 1585.61 1173.17 1585.03 1163C1584.46 1152.82 1584 1133.59 1584 1120.25C1584 1106.91 1584.47 1086.89 1585.04 1075.75C1585.61 1064.61 1586.73 1049.65 1587.53 1042.5C1588.33 1035.35 1589.64 1024.32 1590.43 1018C1591.22 1011.67 1592.38 1004.25 1593 1001.5C1593.63 998.75 1596.15 984.57 1598.6 970C1601.05 955.42 1604.89 934.5 1607.13 923.5C1609.38 912.5 1611.78 900.8 1612.47 897.5C1613.15 894.2 1615.35 884.52 1617.34 876C1619.32 867.47 1622.28 855.32 1623.9 849C1625.51 842.67 1627.8 833.9 1628.97 829.5C1630.15 825.1 1633.29 814.3 1635.96 805.5C1638.63 796.7 1641.27 787.92 1641.81 786C1642.36 784.07 1644.87 775.64 1647.4 767.25C1649.93 758.86 1654.96 744.01 1658.58 734.25C1662.2 724.49 1667.93 710.87 1671.32 704C1674.71 697.12 1680.58 686.1 1684.35 679.5C1688.13 672.9 1694.18 663.22 1697.8 658C1701.41 652.77 1707.1 644.9 1710.43 640.5C1713.76 636.1 1721.26 627.1 1727.1 620.5C1732.95 613.9 1742.4 603.98 1748.11 598.46C1753.83 592.94 1761.42 586.33 1765 583.78C1768.57 581.23 1775.32 577.36 1780 575.18C1784.67 573.01 1791.87 570.1 1796 568.71C1800.12 567.32 1805.97 565.73 1809 565.16C1812.02 564.6 1822.37 563.6 1832 562.94C1843.16 562.17 1859.65 561.95 1877.5 562.33C1892.9 562.66 1910 563.42 1915.5 564.01C1921 564.6 1931.12 566.22 1938 567.6C1944.87 568.98 1958.15 571.93 1967.5 574.15C1976.85 576.37 1989.67 579.68 1996 581.49C2002.32 583.31 2012.9 586.91 2019.5 589.49C2026.1 592.07 2036 596.54 2041.5 599.42C2047 602.3 2056 607.47 2061.5 610.9C2067 614.33 2074.87 619.83 2079 623.13C2083.12 626.42 2090.95 633.03 2096.39 637.81C2101.83 642.59 2111.24 651.67 2117.3 658C2123.36 664.32 2131.13 673.1 2134.56 677.5C2138 681.9 2144.61 691.8 2149.27 699.5C2153.92 707.2 2160.41 718.45 2163.7 724.5C2166.98 730.55 2171.36 739.1 2173.43 743.5C2175.5 747.9 2179.89 757.8 2183.19 765.5C2186.49 773.2 2191.44 785.35 2194.19 792.5C2196.93 799.65 2202.08 814.05 2205.63 824.5C2209.17 834.95 2214.73 852.5 2217.98 863.5C2221.23 874.5 2225 887.77 2226.37 893C2227.73 898.22 2230.25 909.25 2231.97 917.5C2233.68 925.75 2236.37 939.7 2237.95 948.5C2239.52 957.3 2241.29 967.42 2241.87 971C2242.46 974.57 2243.46 984.7 2244.1 993.5C2244.86 1003.88 2245.04 1020.04 2244.62 1039.5C2244.01 1067.83 2243.87 1069.61 2241.96 1071.5C2240.45 1072.99 2237.96 1073.67 2232.22 1074.18C2227.97 1074.55 2216.62 1075.57 2207 1076.45C2197.37 1077.32 2185.45 1078.5 2180.5 1079.06C2175.55 1079.62 2167 1080.71 2161.5 1081.48C2156 1082.26 2144.75 1084.23 2136.5 1085.86C2128.25 1087.49 2118.57 1089.29 2115 1089.88C2111.42 1090.46 2105.35 1091.38 2101.5 1091.93C2097.65 1092.47 2092.25 1093.15 2089.5 1093.43C2086.75 1093.71 2080.45 1094.4 2075.5 1094.97C2070.55 1095.54 2060.65 1096.7 2053.5 1097.54C2046.35 1098.38 2035.77 1099.77 2030 1100.62C2024.22 1101.47 2016.57 1102.59 2013 1103.1C2009.42 1103.62 1998.62 1105.65 1989 1107.61C1979.37 1109.58 1962.95 1113.36 1952.5 1116.02C1942.05 1118.68 1921.8 1123.84 1907.5 1127.49C1893.2 1131.13 1875.65 1136.08 1868.5 1138.47C1861.35 1140.87 1850.77 1144.72 1845 1147.03C1839.22 1149.35 1831.35 1152.33 1827.5 1153.67C1823.65 1155.01 1808.8 1159.49 1794.5 1163.63C1780.2 1167.76 1762.2 1173.18 1754.5 1175.67C1746.8 1178.17 1733.07 1183.14 1724 1186.72C1714.92 1190.31 1703.79 1194.99 1699.25 1197.12C1692.03 1200.51 1691.05 1201.28 1691.44 1203.25C1691.68 1204.49 1694.85 1212.92 1698.48 1222C1702.11 1231.07 1706.98 1242.98 1709.29 1248.45C1711.61 1253.93 1717.05 1264.95 1721.38 1272.95C1725.72 1280.95 1734.67 1296.5 1741.28 1307.5C1747.88 1318.5 1757.38 1333.49 1762.39 1340.81C1767.4 1348.13 1774.62 1358.48 1778.44 1363.81C1782.26 1369.14 1789.67 1378.9 1794.9 1385.5C1800.14 1392.1 1806.52 1399.97 1809.09 1403C1811.65 1406.02 1817.47 1413.45 1822.01 1419.5C1826.55 1425.55 1838.01 1442.2 1847.47 1456.5C1856.94 1470.8 1866.3 1485.42 1868.27 1489C1870.25 1492.57 1875.21 1502.7 1879.3 1511.5C1883.39 1520.3 1889.21 1532.67 1892.24 1539C1895.26 1545.32 1898.89 1554.1 1900.3 1558.5C1901.7 1562.9 1905.11 1574.6 1907.87 1584.5C1910.62 1594.4 1914.06 1607 1915.51 1612.5C1916.95 1618 1919.47 1627.67 1921.1 1634C1922.73 1640.32 1924.96 1650 1926.05 1655.5C1927.14 1661 1928.45 1667.97 1928.97 1671C1929.48 1674.02 1930.36 1679.2 1930.92 1682.5C1931.48 1685.8 1932.69 1696.82 1933.61 1707C1934.82 1720.35 1935.29 1736.22 1935.3 1764C1935.32 1793.63 1934.93 1806.07 1933.62 1818C1932.68 1826.52 1930.79 1839.8 1929.42 1847.5C1928.06 1855.2 1926.48 1863.75 1925.92 1866.5C1925.36 1869.25 1924.49 1873.3 1923.98 1875.5C1923.48 1877.7 1922.1 1883.55 1920.91 1888.5C1919.73 1893.45 1916.32 1905.82 1913.34 1916C1910.36 1926.17 1904.83 1943.72 1901.06 1955C1897.28 1966.27 1892.32 1980.22 1890.03 1986C1887.74 1991.77 1882 2003.7 1877.29 2012.5C1872.57 2021.3 1865.33 2034.12 1861.21 2041C1857.08 2047.87 1848.4 2061.37 1841.91 2071C1835.42 2080.62 1824.9 2095.25 1818.54 2103.5C1812.18 2111.75 1802.59 2123.67 1797.23 2129.99C1791.88 2136.31 1779.62 2149.39 1770 2159.06C1760.37 2168.73 1746.87 2181.15 1740 2186.67C1733.12 2192.18 1720.06 2202.28 1710.97 2209.1C1701.88 2215.92 1688.94 2225.32 1682.21 2230C1675.48 2234.67 1664.92 2241.56 1658.74 2245.29C1652.56 2249.02 1641.42 2255.16 1634 2258.91C1626.57 2262.67 1615.32 2268.03 1609 2270.82C1602.67 2273.6 1589.85 2278.8 1580.5 2282.36C1571.15 2285.92 1556.97 2290.85 1549 2293.32C1541.02 2295.79 1528.2 2299.47 1520.5 2301.5C1512.8 2303.52 1502.22 2306.27 1497 2307.6C1491.77 2308.94 1480.3 2311.35 1471.5 2312.97C1462.7 2314.59 1451.67 2316.4 1447 2317C1442.32 2317.6 1430.62 2318.73 1421 2319.51C1410.63 2320.36 1390.26 2320.95 1371 2320.95C1350.57 2320.96 1332.37 2320.41 1322 2319.49C1312.92 2318.69 1302.35 2317.57 1298.5 2317C1294.65 2316.43 1283.17 2314.36 1273 2312.4C1262.82 2310.43 1247.75 2307.08 1239.5 2304.94C1231.25 2302.81 1220.67 2299.96 1216 2298.62C1211.32 2297.27 1204.12 2295.21 1200 2294.03C1195.87 2292.85 1187.55 2290.15 1181.5 2288.03C1175.45 2285.91 1167.57 2283.05 1164 2281.68C1160.42 2280.31 1151.2 2276.42 1143.5 2273.05C1135.8 2269.67 1123.65 2263.84 1116.5 2260.09C1109.35 2256.34 1099 2250.69 1093.5 2247.54C1088 2244.38 1077.87 2238.06 1071 2233.5C1064.12 2228.93 1049.5 2218.48 1038.5 2210.27C1027.5 2202.06 1016.47 2194.11 1014 2192.59C1011.52 2191.08 1009.24 2190.21 1008.93 2190.67C1008.62 2191.13 1006.9 2198.47 1005.11 2207C1003.33 2215.52 998.27 2236.9 993.88 2254.5C989.49 2272.1 984.8 2291.22 983.45 2297C982.1 2302.77 978.51 2318.97 975.48 2333C972.44 2347.02 968.85 2363.67 967.5 2370C966.16 2376.32 963.21 2390.95 960.96 2402.5C958.71 2414.05 955.08 2432.27 952.89 2443C950.7 2453.72 946.91 2472.85 944.46 2485.5C942 2498.15 939.56 2510.75 939.03 2513.5C938.51 2516.25 936.93 2525.92 935.54 2535C934.14 2544.07 931.59 2560.5 929.88 2571.5C928.16 2582.5 926.34 2593.75 925.83 2596.5C925.32 2599.25 924.28 2605.32 923.51 2610C922.73 2614.67 921.29 2623.51 920.3 2629.64C919.31 2635.76 918.27 2640.98 918 2641.22C917.72 2641.47 910.07 2644.5 901 2647.95C891.92 2651.41 873.47 2658.74 860 2664.25C846.52 2669.77 834.68 2675 833.68 2675.89C832.68 2676.78 830.82 2679.75 829.53 2682.5C828.25 2685.25 825.55 2693.35 823.54 2700.5C821.52 2707.65 819.22 2717.55 818.42 2722.5C817.54 2727.99 816.74 2743.01 816.38 2761C816.04 2777.99 816.27 2801.31 816.93 2816C817.56 2830.02 818.47 2847.35 818.95 2854.5C819.43 2861.65 820.34 2874.92 820.96 2884C821.58 2893.07 822.75 2906.57 823.57 2914C824.38 2921.42 825.46 2930.42 825.96 2934C826.46 2937.57 827.81 2947.92 828.94 2957C830.08 2966.07 831.47 2977.1 832.03 2981.5C832.59 2985.9 833.26 2991.07 833.52 2993C833.78 2994.92 835.23 2998.09 836.74 3000.04C838.26 3001.99 840.32 3006.72 841.33 3010.54C842.33 3014.37 844.27 3021.55 845.64 3026.5C847.01 3031.45 851.76 3044.05 856.21 3054.5C860.66 3064.95 865.82 3078 867.69 3083.5C869.56 3089 874.42 3105.2 878.49 3119.5C882.56 3133.8 886.97 3148.87 888.29 3153C889.62 3157.12 896.66 3175.57 903.94 3194C911.22 3212.42 919.22 3231.55 921.71 3236.5C924.21 3241.45 927.1 3246.74 928.13 3248.25C929.16 3249.76 930.01 3251.34 930.01 3251.75C930.02 3252.16 926.08 3253.08 921.26 3253.78C916.44 3254.48 909.12 3255.49 905 3256.01C900.87 3256.54 890.3 3257.64 881.5 3258.45C872.7 3259.26 859.87 3260.38 853 3260.93C846.12 3261.48 836 3262.19 830.5 3262.51C825 3262.83 814.87 3263.52 808 3264.04C801.12 3264.56 789.42 3265.45 782 3266C774.57 3266.56 760.17 3267.69 750 3268.5C739.82 3269.32 727 3270.47 721.5 3271.05C716 3271.63 705.87 3272.78 699 3273.6C692.12 3274.42 679.97 3276.42 672 3278.03C664.02 3279.65 653 3282.5 647.5 3284.38C642 3286.26 634.57 3288.93 631 3290.31C627.42 3291.69 619.32 3295.16 613 3298.02C606.67 3300.88 598.57 3304.93 595 3307.02C591.42 3309.11 585.35 3313.47 581.5 3316.71C577.65 3319.95 571.2 3326.4 567.17 3331.05C563.14 3335.7 556.07 3345.12 551.47 3352C545.93 3360.26 540.83 3369.58 536.42 3379.5C532.75 3387.75 528.16 3399.22 526.22 3405C522.95 3414.77 522.7 3416.37 522.69 3428C522.68 3434.87 523.23 3444.55 523.91 3449.5C524.59 3454.45 526.05 3463 527.17 3468.5C528.28 3474 530.11 3481.2 531.24 3484.5C532.36 3487.8 534.29 3492.52 535.52 3495C536.76 3497.47 539.7 3501.97 542.08 3505C544.45 3508.02 549.34 3513.35 552.94 3516.84C556.55 3520.33 563.1 3526.01 567.5 3529.46C571.9 3532.92 578.65 3537.78 582.5 3540.26C586.35 3542.74 594.9 3547.47 601.5 3550.78C608.1 3554.08 620.25 3559.09 628.5 3561.9C639.93 3565.79 643.79 3567.54 644.71 3569.25C645.46 3570.65 646.03 3577.21 646.21 3586.54L646.5 3601.58C654.47 3617.79 659.19 3625.95 662.14 3630.17C665.09 3634.39 670.87 3641.63 675 3646.25C679.12 3650.87 686.32 3657.71 691 3661.46C695.67 3665.2 702.54 3669.78 706.25 3671.63C709.96 3673.48 716.26 3676.3 720.25 3677.88C724.24 3679.47 732.45 3682.44 738.5 3684.48C746.51 3687.19 751.81 3688.34 758 3688.7C763.9 3689.04 772.77 3688.4 787 3686.58C798.27 3685.14 810.35 3683.86 813.84 3683.73C819.81 3683.51 820.32 3683.67 822.57 3686.5C823.88 3688.15 826.35 3692.87 828.06 3697C829.77 3701.12 833.45 3708.77 836.23 3714C839.02 3719.22 843.82 3727.3 846.9 3731.95C849.98 3736.6 854.75 3742.7 857.5 3745.49C860.48 3748.52 865.73 3752.24 870.5 3754.69C874.9 3756.96 882.32 3759.94 887 3761.32C891.67 3762.69 897.75 3764.31 900.5 3764.91C903.25 3765.51 910.45 3766.45 916.5 3767.01C922.55 3767.57 937.51 3768.36 949.74 3768.77L971.97 3769.5C973.7 3778.02 975.28 3784.44 976.6 3789.25C977.92 3794.06 979.85 3799.69 980.88 3801.75C981.92 3803.81 984.62 3807.86 986.88 3810.75C989.15 3813.64 994.26 3818.28 998.25 3821.07C1002.24 3823.86 1009.55 3828.14 1014.5 3830.57C1019.45 3833 1026.2 3835.74 1029.5 3836.66C1034.32 3838 1041.61 3838.42 1066.5 3838.77C1084.59 3839.03 1104.58 3838.73 1114.5 3838.05C1123.85 3837.42 1136.45 3836.22 1142.5 3835.39C1148.55 3834.56 1160.7 3832.51 1169.5 3830.84C1178.3 3829.16 1190 3826.46 1195.5 3824.82C1201 3823.19 1209.1 3820.59 1213.5 3819.05C1217.9 3817.51 1225.44 3814.61 1230.25 3812.62C1235.06 3810.63 1245.19 3805.89 1252.75 3802.09C1260.31 3798.29 1270.1 3792.98 1274.5 3790.29C1278.9 3787.6 1292.17 3778.03 1304 3769.01C1315.82 3760 1337.6 3742.92 1352.39 3731.06C1367.18 3719.2 1382.7 3706.84 1386.89 3703.59C1392.73 3699.05 1394.85 3697.91 1396 3698.69C1396.82 3699.24 1407.85 3705.23 1420.5 3712C1433.15 3718.78 1459.47 3732.25 1479 3741.94C1498.52 3751.63 1528.67 3766.25 1546 3774.44C1563.32 3782.63 1590.1 3795.15 1605.5 3802.27C1620.9 3809.39 1640.92 3818.49 1650 3822.49C1659.07 3826.5 1673.7 3832.79 1682.5 3836.49C1691.3 3840.18 1712 3848.96 1728.5 3855.99C1745 3863.03 1767.27 3872.27 1778 3876.53C1788.72 3880.79 1802.45 3886.04 1808.5 3888.21C1814.55 3890.37 1827.82 3895.09 1838 3898.69C1848.17 3902.29 1870.45 3909.9 1887.5 3915.59C1904.55 3921.29 1925.25 3928.02 1933.5 3930.56C1941.75 3933.1 1950.52 3935.79 1953 3936.53C1955.47 3937.26 1968.52 3941.07 1982 3944.98C1995.47 3948.9 2017.3 3954.73 2030.5 3957.95C2043.7 3961.16 2059.67 3965 2066 3966.47C2072.32 3967.95 2082.9 3970.28 2089.5 3971.65C2096.1 3973.02 2107.57 3975.25 2115 3976.6C2122.42 3977.95 2133.9 3979.95 2140.5 3981.05C2147.1 3982.14 2155.2 3983.47 2158.5 3984C2161.8 3984.53 2169.67 3985.65 2176 3986.49C2182.32 3987.33 2190.87 3988.45 2195 3988.99C2199.12 3989.53 2208.35 3990.66 2215.5 3991.5C2222.65 3992.35 2231.65 3993.48 2235.5 3994.03C2239.35 3994.57 2248.8 3995.46 2256.5 3996C2264.2 3996.54 2283.55 3996.98 2299.5 3996.98C2315.45 3996.97 2335.02 3996.53 2343 3996C2350.97 3995.46 2360.65 3994.58 2364.5 3994.03C2368.35 3993.49 2377.35 3992.35 2384.5 3991.5C2391.65 3990.66 2400.87 3989.53 2405 3988.99C2409.12 3988.45 2417.67 3987.33 2424 3986.49C2430.32 3985.65 2438.2 3984.53 2441.5 3984C2444.8 3983.47 2452.9 3982.14 2459.5 3981.05C2466.1 3979.95 2477.57 3977.95 2485 3976.6C2492.42 3975.25 2503.9 3973.02 2510.5 3971.65C2517.1 3970.28 2527.67 3967.95 2534 3966.47C2540.32 3965 2556.3 3961.16 2569.5 3957.95C2582.7 3954.73 2604.52 3948.9 2618 3944.98C2631.47 3941.07 2644.52 3937.26 2647 3936.53C2649.47 3935.79 2658.25 3933.11 2666.5 3930.57C2674.75 3928.03 2695.45 3921.29 2712.5 3915.58C2729.55 3909.88 2751.82 3902.28 2762 3898.68C2772.17 3895.08 2785.45 3890.37 2791.5 3888.21C2797.55 3886.04 2811.27 3880.79 2822 3876.54C2832.72 3872.29 2852.3 3864.17 2865.5 3858.5C2878.7 3852.83 2898.95 3844.26 2910.5 3839.47C2922.05 3834.67 2944.55 3825.01 2960.5 3818.01C2976.45 3811 2998.95 3800.98 3010.5 3795.74C3022.05 3790.5 3061.42 3771.38 3098 3753.25C3134.57 3735.12 3173.95 3715.31 3185.5 3709.23L3206.5 3698.16C3217.52 3706.95 3232.82 3719.2 3247.61 3731.06C3262.4 3742.92 3284.17 3760 3296 3769.01C3307.82 3778.03 3321.1 3787.6 3325.5 3790.29C3329.9 3792.98 3339.69 3798.29 3347.25 3802.09C3354.81 3805.89 3364.94 3810.63 3369.75 3812.62C3374.56 3814.61 3382.1 3817.51 3386.5 3819.05C3390.9 3820.59 3399 3823.19 3404.5 3824.82C3410 3826.46 3421.7 3829.16 3430.5 3830.84C3439.3 3832.51 3451.45 3834.56 3457.5 3835.39C3463.55 3836.22 3476.15 3837.42 3485.5 3838.05C3495.42 3838.73 3515.41 3839.03 3533.5 3838.77C3558.39 3838.42 3565.68 3838 3570.5 3836.66C3573.8 3835.74 3580.55 3833 3585.5 3830.57C3590.45 3828.14 3597.76 3823.86 3601.75 3821.07C3605.74 3818.28 3610.87 3813.64 3613.15 3810.75C3615.44 3807.86 3618.53 3802.8 3620.01 3799.5C3621.5 3796.2 3623.44 3790.57 3624.33 3787C3625.23 3783.42 3626.42 3777.91 3626.98 3774.75L3628 3769C3653.96 3768.24 3669.15 3767.56 3678.5 3767C3688.99 3766.38 3698.57 3765.22 3703.5 3763.98C3707.9 3762.87 3713.75 3761.24 3716.5 3760.36C3719.25 3759.47 3725.1 3756.91 3729.5 3754.66C3734.32 3752.2 3739.49 3748.55 3742.5 3745.49C3745.25 3742.7 3750.02 3736.6 3753.1 3731.95C3756.18 3727.3 3760.98 3719.22 3763.77 3714C3766.55 3708.77 3770.23 3701.12 3771.94 3697C3773.65 3692.87 3776.12 3688.15 3777.43 3686.5C3779.68 3683.67 3780.19 3683.51 3786.16 3683.73C3789.65 3683.86 3801.72 3685.14 3813 3686.58C3827.23 3688.4 3836.1 3689.04 3842 3688.7C3848.19 3688.34 3853.49 3687.19 3861.5 3684.48C3867.55 3682.44 3875.76 3679.47 3879.75 3677.88C3883.74 3676.3 3890.04 3673.48 3893.75 3671.63C3897.46 3669.78 3904.32 3665.2 3909 3661.46C3913.67 3657.71 3920.87 3650.87 3925 3646.25C3929.12 3641.63 3934.91 3634.39 3937.86 3630.17C3940.81 3625.95 3945.53 3617.79 3948.36 3612.04L3953.5 3601.58C3954.27 3576.4 3954.95 3568.65 3955.5 3568.1C3956.05 3567.56 3963.25 3564.78 3971.5 3561.94C3979.75 3559.1 3991.9 3554.08 3998.5 3550.78C4005.1 3547.47 4013.65 3542.74 4017.5 3540.26C4021.35 3537.78 4028.1 3532.92 4032.5 3529.46C4036.9 3526.01 4043.45 3520.33 4047.06 3516.84C4050.66 3513.35 4055.55 3508.02 4057.92 3505C4060.29 3501.97 4063.24 3497.47 4064.48 3495C4065.71 3492.52 4067.64 3487.8 4068.76 3484.5C4069.89 3481.2 4071.72 3474 4072.83 3468.5C4073.95 3463 4075.41 3454.45 4076.09 3449.5C4076.77 3444.55 4077.32 3434.87 4077.31 3428C4077.3 3416.37 4077.05 3414.77 4073.77 3405C4071.84 3399.22 4067.25 3387.75 4063.58 3379.5C4059.17 3369.58 4054.07 3360.26 4048.53 3352C4043.93 3345.12 4036.86 3335.7 4032.83 3331.05C4028.8 3326.4 4022.35 3319.95 4018.5 3316.71C4014.65 3313.47 4008.57 3309.11 4005 3307.02C4001.42 3304.93 3993.32 3300.88 3987 3298.02C3980.67 3295.16 3972.57 3291.69 3969 3290.31C3965.42 3288.93 3958 3286.26 3952.5 3284.38C3947 3282.5 3935.97 3279.65 3928 3278.03C3920.02 3276.42 3907.87 3274.42 3901 3273.6C3894.12 3272.78 3884 3271.63 3878.5 3271.05C3873 3270.47 3860.17 3269.32 3850 3268.5C3839.82 3267.69 3825.42 3266.56 3818 3266C3810.57 3265.45 3798.87 3264.56 3792 3264.04C3785.12 3263.52 3775 3262.83 3769.5 3262.51C3764 3262.19 3753.87 3261.48 3747 3260.93C3740.12 3260.38 3727.3 3259.26 3718.5 3258.45C3709.7 3257.64 3699.12 3256.54 3695 3256.01C3690.87 3255.49 3683.56 3254.48 3678.74 3253.78C3673.92 3253.08 3669.98 3252.16 3669.99 3251.75C3669.99 3251.34 3670.84 3249.76 3671.87 3248.25C3672.9 3246.74 3675.79 3241.45 3678.29 3236.5C3680.78 3231.55 3688.78 3212.42 3696.06 3194C3703.34 3175.57 3710.38 3157.12 3711.71 3153C3713.03 3148.87 3717.03 3135.15 3720.6 3122.5C3724.17 3109.85 3728.93 3093.87 3731.19 3087C3733.45 3080.12 3738.66 3066.62 3742.77 3057C3746.87 3047.37 3751.1 3037.02 3752.17 3034C3753.23 3030.97 3755.36 3023.32 3756.9 3017C3758.44 3010.67 3760.89 3003.02 3762.33 3000C3763.78 2996.97 3765.65 2990.67 3766.5 2986C3767.34 2981.32 3768.45 2974.8 3768.95 2971.5C3769.45 2968.2 3770.76 2959.2 3771.85 2951.5C3772.95 2943.8 3774.31 2933 3774.89 2927.5C3775.46 2922 3776.39 2911.87 3776.96 2905C3777.54 2898.12 3778.48 2885.97 3779.05 2878C3779.63 2870.02 3780.55 2856.52 3781.11 2848C3781.66 2839.47 3782.36 2812.25 3782.67 2787.5C3783.04 2756.71 3782.85 2738.39 3782.04 2729.5C3781.39 2722.35 3779.82 2712.22 3778.55 2707C3777.28 2701.77 3774.73 2693.68 3772.87 2689.01C3771.02 2684.34 3768.6 2679.22 3767.5 2677.64C3766.09 2675.59 3762.72 2673.59 3756 2670.8C3750.77 2668.63 3738.4 2663.57 3728.5 2659.57C3718.6 2655.57 3704.2 2649.93 3696.5 2647.04C3688.8 2644.15 3682.27 2641.56 3682 2641.28C3681.72 2641 3680.69 2635.76 3679.7 2629.64C3678.71 2623.51 3677.27 2614.67 3676.49 2610C3675.72 2605.32 3674.68 2599.25 3674.17 2596.5C3673.66 2593.75 3671.83 2582.5 3670.11 2571.5C3668.39 2560.5 3666.26 2546.77 3665.4 2541C3664.53 2535.22 3663.19 2526.79 3662.41 2522.25C3661.63 2517.71 3660.3 2510.06 3659.45 2505.25C3658.59 2500.44 3656.36 2488.85 3654.49 2479.5C3652.61 2470.15 3649.29 2453.72 3647.1 2443C3644.91 2432.27 3641.08 2413.15 3638.59 2400.5C3636.1 2387.85 3632.94 2372.1 3631.56 2365.5C3630.19 2358.9 3627.97 2348.32 3626.62 2342C3625.28 2335.67 3623.23 2326.22 3622.06 2321C3620.9 2315.77 3619 2307.45 3617.85 2302.5C3616.7 2297.55 3613.18 2283.15 3610.02 2270.5C3606.86 2257.85 3603.51 2244.12 3602.56 2240C3601.62 2235.87 3598.62 2223.5 3595.89 2212.5C3593.16 2201.5 3589.79 2188.67 3588.4 2184C3587.01 2179.32 3584.74 2171.67 3583.36 2167C3581.98 2162.32 3580.99 2158.4 3581.17 2158.28C3581.35 2158.16 3590.05 2162.33 3600.5 2167.56C3613.46 2174.03 3622.2 2177.73 3628 2179.19C3635.57 2181.1 3639.41 2181.34 3663 2181.42C3682.31 2181.48 3690.99 2181.13 3695 2180.13C3698.02 2179.38 3704.1 2177.1 3708.5 2175.06C3712.9 2173.02 3720.32 2168.98 3725 2166.08C3729.67 2163.19 3735.75 2159.1 3738.5 2157C3741.97 2154.34 3745.11 2150.48 3748.79 2144.34C3751.7 2139.48 3754.97 2132.57 3756.07 2129C3757.16 2125.42 3758.81 2118.45 3759.73 2113.5C3760.98 2106.83 3761.42 2098.66 3761.46 2082C3761.49 2063.89 3761.16 2058.09 3759.75 2052.25C3758.79 2048.26 3756.85 2041.96 3755.45 2038.25C3754.05 2034.54 3748.55 2024.52 3743.22 2016C3737.89 2007.47 3730.94 1997.01 3727.76 1992.75C3724.59 1988.49 3718.17 1980.95 3713.5 1976L3705 1967C3707.14 1961.19 3709.78 1955 3712.26 1949.5C3714.74 1944 3718.8 1934.55 3721.28 1928.5C3723.76 1922.45 3727.15 1913.45 3728.81 1908.5C3730.48 1903.55 3732.6 1895 3733.54 1889.5C3734.91 1881.47 3735.15 1875.47 3734.76 1859C3734.36 1842.3 3733.87 1837.02 3732.12 1830.5C3730.95 1826.1 3727.33 1817.1 3724.09 1810.5C3720.85 1803.9 3715.34 1794.51 3711.85 1789.63C3708.36 1784.74 3701.9 1777.31 3697.5 1773.11C3693.1 1768.9 3685.9 1763.06 3681.5 1760.13C3677.1 1757.2 3673.11 1754.06 3672.62 1753.15C3672.14 1752.24 3672.03 1750.26 3672.37 1748.75C3672.72 1747.24 3676.11 1738.46 3679.92 1729.25C3683.73 1720.04 3688.92 1706.42 3691.46 1699C3694 1691.57 3697.67 1678.97 3699.62 1671C3701.95 1661.47 3703.4 1652.73 3703.84 1645.5C3704.23 1639 3704.03 1630 3703.34 1623.5C3702.7 1617.45 3701.47 1609.12 3700.62 1605C3699.5 1599.63 3696.65 1592.67 3690.57 1580.5C3685.89 1571.15 3678.34 1557.88 3673.79 1551.02C3669.23 1544.15 3661.84 1534.7 3657.36 1530.02L3649.21 1521.5C3659.21 1509.87 3665.84 1501.55 3670.4 1495.5C3674.96 1489.45 3680.23 1481.8 3682.12 1478.5C3684.01 1475.2 3687.9 1467.44 3690.78 1461.25C3693.65 1455.06 3697.09 1446.74 3698.43 1442.75C3700.07 1437.85 3701.26 1430.95 3702.08 1421.5C3703.11 1409.6 3703.05 1404.95 3701.67 1390.5C3700.76 1380.89 3698.98 1369.37 3697.59 1364C3696.23 1358.77 3693.49 1350.45 3691.49 1345.5C3689.5 1340.55 3686.25 1333.57 3684.27 1330C3682.29 1326.42 3678.61 1320.35 3676.11 1316.5C3673.6 1312.65 3668.61 1305.6 3665.02 1300.84C3661.44 1296.08 3657.71 1290.79 3656.75 1289.09L3655 1286C3661.04 1278.64 3666.93 1272 3671.98 1266.5C3677.03 1261 3683.09 1253.8 3685.46 1250.5C3687.82 1247.2 3692.49 1239.55 3695.83 1233.5C3699.17 1227.45 3705.04 1215.52 3708.86 1207C3712.68 1198.47 3716.75 1188.69 3717.9 1185.25C3719.75 1179.75 3720 1176.68 3719.98 1159.75C3719.97 1149.16 3719.34 1135.77 3718.59 1130C3717.74 1123.46 3716.37 1117.8 3714.97 1115C3713.74 1112.52 3710.8 1107.8 3708.45 1104.5C3706.11 1101.2 3701.33 1095.76 3697.84 1092.4C3694.35 1089.05 3688.8 1084.59 3685.5 1082.49C3682.2 1080.39 3677.47 1077.8 3675 1076.73C3672.52 1075.66 3667.35 1073.69 3663.5 1072.36C3659.65 1071.02 3653.35 1069.31 3649.5 1068.54C3645.65 1067.78 3637.77 1066.56 3632 1065.83C3625.05 1064.95 3609.66 1064.5 3586.5 1064.5C3553.34 1064.5 3550.97 1064.62 3541.5 1066.84C3536 1068.12 3523.62 1071.13 3514 1073.53C3504.37 1075.93 3490.42 1079.75 3483 1082.03C3475.57 1084.3 3465 1088.44 3459.5 1091.22C3454 1093.99 3445 1098.99 3439.5 1102.32C3434 1105.65 3422.75 1112.86 3414.5 1118.33C3406.25 1123.81 3392.75 1133.24 3384.5 1139.29C3376.25 1145.34 3365.25 1153.72 3360.05 1157.9C3354.85 1162.08 3346.07 1169.59 3340.55 1174.59C3335.02 1179.59 3319.7 1194.69 3306.5 1208.15C3293.3 1221.61 3276.42 1239.35 3268.98 1247.56C3261.55 1255.78 3250.96 1267.67 3245.45 1274C3239.94 1280.32 3232.71 1288.87 3229.39 1293C3226.07 1297.12 3220.12 1304.66 3216.17 1309.75C3212.23 1314.84 3202.41 1328.79 3194.35 1340.75C3186.3 1352.71 3176.29 1366.77 3172.1 1371.98C3167.92 1377.19 3161.57 1384.52 3158 1388.27C3154.42 1392.02 3151.05 1395.06 3150.5 1395.02C3149.95 1394.99 3145.86 1391.03 3141.41 1386.23C3136.97 1381.43 3129.05 1372.55 3123.81 1366.5C3118.58 1360.45 3109.61 1351 3103.88 1345.5C3098.15 1340 3088.07 1330.78 3081.48 1325.01C3074.89 1319.24 3063.42 1308.63 3056 1301.44C3048.57 1294.25 3037.77 1284.54 3032 1279.85C3026.22 1275.16 3016.1 1267.27 3009.5 1262.31C3002.9 1257.36 2991.42 1249.25 2984 1244.3C2976.57 1239.34 2964.87 1231.91 2958 1227.79C2951.12 1223.66 2939.42 1216.98 2932 1212.95C2924.57 1208.92 2912.99 1203.01 2906.25 1199.81C2899.51 1196.61 2886.91 1191.12 2878.25 1187.6C2869.59 1184.08 2858 1179.77 2852.5 1178.01C2847 1176.26 2831.47 1171.45 2818 1167.33C2804.52 1163.22 2786.3 1157.44 2777.5 1154.5C2768.7 1151.55 2752.5 1146.04 2741.5 1142.24C2730.5 1138.45 2716.32 1133.93 2710 1132.2C2703.67 1130.48 2690.51 1127.03 2680.75 1124.53C2670.99 1122.04 2655.24 1118.01 2645.75 1115.59C2636.26 1113.16 2621.52 1109.81 2613 1108.14C2604.47 1106.47 2591.65 1104.18 2584.5 1103.04C2577.35 1101.89 2568.8 1100.53 2565.5 1100.01C2562.2 1099.48 2554.55 1098.38 2548.5 1097.57C2542.45 1096.76 2531.42 1095.39 2524 1094.52C2516.57 1093.66 2506.9 1092.5 2502.5 1091.95C2498.1 1091.4 2487.07 1089.81 2478 1088.43C2468.92 1087.05 2458.35 1085.23 2454.5 1084.4C2450.65 1083.56 2443 1082.25 2437.5 1081.48C2432 1080.71 2421.42 1079.41 2414 1078.57C2406.57 1077.73 2394.2 1076.59 2386.5 1076.03C2378.8 1075.48 2367.32 1074.58 2361 1074.05C2354.67 1073.52 2345 1072.6 2339.5 1072C2334 1071.4 2327.92 1070.58 2326 1070.17C2322.9 1069.51 2322.47 1069.04 2322.22 1065.96C2322.07 1064.06 2321.3 1058.45 2320.52 1053.5C2319.73 1048.55 2318.22 1039.32 2317.17 1033C2316.11 1026.67 2314.76 1017.67 2314.17 1013C2313.57 1008.32 2312.82 1001.8 2312.5 998.5C2312.19 995.2 2311.49 989.35 2310.96 985.5C2310.42 981.65 2308.85 970.4 2307.45 960.5C2306.06 950.6 2303.8 935.52 2302.44 927C2301.07 918.47 2298.81 904.52 2297.41 896C2296.01 887.47 2292.17 867 2288.87 850.5C2285.57 834 2281.77 815.77 2280.42 810C2279.07 804.22 2277.53 797.7 2276.98 795.5C2276.43 793.3 2274.4 785.42 2272.47 778C2270.53 770.57 2266.67 757.3 2263.9 748.5C2261.13 739.7 2257.49 728.45 2255.81 723.5C2254.13 718.55 2249.92 706.85 2246.46 697.5C2242.99 688.15 2238.41 676.45 2236.27 671.5C2234.13 666.55 2228.89 656.2 2224.61 648.5C2220.34 640.8 2212.22 627.52 2206.56 619C2200.9 610.47 2192.1 597.87 2186.99 591C2181.89 584.12 2174.77 575.12 2171.18 571C2167.59 566.87 2161.24 559.97 2157.07 555.65C2152.91 551.34 2144.55 543.45 2138.5 538.12C2132.45 532.79 2123.45 525.12 2118.5 521.07C2113.55 517.02 2104.32 510.03 2098 505.53C2091.67 501.03 2082.22 494.77 2077 491.62C2071.77 488.47 2057.6 481 2045.5 475.02C2033.4 469.03 2015.62 460.79 2006 456.69C1996.37 452.59 1983.1 447.21 1976.5 444.72C1969.9 442.24 1960 438.83 1954.5 437.15C1949 435.47 1940 432.92 1934.5 431.47C1929 430.01 1919.1 427.71 1912.5 426.34C1905.9 424.97 1893.52 422.99 1885 421.94C1876.47 420.88 1864.55 420.05 1858.5 420.1C1852.45 420.14 1846.15 420.57 1844.5 421.06C1842.85 421.55 1833.62 422.65 1824 423.5ZM3549.25 1248.13C3554.06 1248.06 3561.15 1248.67 3565 1249.5C3568.85 1250.32 3574.53 1252.24 3577.63 1253.75C3580.73 1255.26 3584.55 1257.96 3586.13 1259.75C3587.71 1261.54 3589.9 1264.8 3591 1267C3592.1 1269.2 3593.73 1273.81 3594.63 1277.25C3595.87 1282 3596.1 1285.79 3595.62 1293C3595.27 1298.22 3594.36 1304.97 3593.59 1308C3592.82 1311.02 3591.62 1315.07 3590.93 1317C3590.24 1318.92 3588.24 1322.75 3586.48 1325.5C3584.73 1328.25 3580.64 1333.02 3577.39 1336.09C3574.15 1339.17 3569.02 1343.25 3566 1345.16C3562.97 1347.07 3559.15 1349.16 3557.5 1349.8C3555.85 1350.43 3552.47 1351.39 3550 1351.92C3547.52 1352.46 3540.55 1353.63 3534.5 1354.52C3528.45 1355.42 3519.67 1357.06 3515 1358.17C3510.32 1359.28 3499.97 1362.21 3492 1364.68C3484.02 1367.15 3470.97 1371.63 3463 1374.64C3455.02 1377.65 3441.75 1383.09 3433.5 1386.74C3425.25 1390.38 3414.67 1395.37 3410 1397.82C3405.32 1400.27 3397.45 1404.64 3392.5 1407.53C3387.55 1410.42 3380.8 1414.77 3377.5 1417.2C3374.2 1419.62 3367 1425.61 3361.5 1430.5C3356 1435.38 3350.6 1440.31 3349.5 1441.45C3348.4 1442.58 3343.66 1447.78 3338.98 1453C3334.29 1458.23 3322.37 1472.62 3312.5 1485C3302.62 1497.37 3291.34 1511.1 3287.42 1515.5C3282.85 1520.64 3278.37 1524.54 3274.9 1526.4C3271.21 1528.38 3268.08 1529.3 3265 1529.29C3262.52 1529.28 3259.37 1528.71 3258 1528.01C3256.62 1527.32 3253.25 1525.09 3250.5 1523.06C3247.75 1521.03 3244.03 1517.14 3242.23 1514.43C3239.33 1510.06 3238.97 1508.76 3239.05 1503C3239.11 1499.42 3239.68 1495.06 3240.33 1493.29C3240.97 1491.52 3243.3 1487.93 3245.5 1485.3C3247.7 1482.67 3251.5 1477.58 3253.94 1474.01C3256.38 1470.43 3263.55 1460.52 3269.87 1452C3276.19 1443.47 3286.07 1430.87 3291.83 1424C3297.58 1417.12 3308.41 1404.82 3315.89 1396.66C3323.38 1388.5 3330.62 1380.4 3331.99 1378.66C3333.36 1376.92 3338.31 1370.79 3342.99 1365.03C3347.67 1359.28 3355.55 1350.48 3360.5 1345.5C3365.45 1340.51 3374.9 1331.94 3381.5 1326.45C3388.1 1320.96 3399.35 1312.22 3406.5 1307.04C3413.65 1301.85 3425.8 1293.47 3433.5 1288.41C3441.2 1283.35 3450.87 1277.4 3455 1275.18C3459.12 1272.97 3467.9 1268.93 3474.5 1266.2C3481.1 1263.46 3491.45 1259.64 3497.5 1257.7C3503.55 1255.76 3511.42 1253.4 3515 1252.46C3518.57 1251.52 3525.77 1250.19 3531 1249.51C3536.22 1248.82 3544.44 1248.2 3549.25 1248.13ZM3567.75 1495.16C3570.64 1495.07 3575.14 1495.72 3577.75 1496.61C3580.36 1497.5 3585.2 1500.14 3588.5 1502.48C3591.8 1504.82 3596.41 1508.82 3598.75 1511.37C3601.09 1513.92 3604.24 1518.36 3605.75 1521.25C3608.32 1526.16 3608.5 1527.29 3608.44 1538.5C3608.4 1546.58 3607.84 1552.3 3606.73 1556C3605.82 1559.02 3603.77 1563.3 3602.17 1565.5C3600.56 1567.7 3596.15 1572.05 3592.37 1575.17C3588.59 1578.29 3584.37 1581.27 3583 1581.8C3581.62 1582.32 3574.87 1583.7 3568 1584.86C3561.12 1586.02 3550.1 1587.68 3543.5 1588.55C3536.9 1589.42 3527.9 1590.76 3523.5 1591.53C3519.1 1592.3 3511.9 1593.6 3507.5 1594.4C3503.1 1595.21 3494.1 1597.04 3487.5 1598.47C3480.9 1599.9 3469.2 1602.66 3461.5 1604.62C3453.8 1606.57 3440.97 1610.18 3433 1612.64C3425.02 1615.1 3415.8 1618.06 3412.5 1619.21C3409.2 1620.36 3394.12 1626.35 3379 1632.52C3363.87 1638.69 3347.79 1644.93 3343.25 1646.37C3338.71 1647.82 3333.2 1649 3331 1649C3327.68 1649 3326.22 1648.28 3322.41 1644.75C3319.59 1642.14 3316.65 1637.99 3314.8 1634C3312.46 1628.95 3311.88 1626.5 3312.21 1623C3312.44 1620.52 3313.56 1616.7 3314.7 1614.5C3315.84 1612.3 3318.73 1608.78 3321.13 1606.68C3323.54 1604.59 3327.52 1601.33 3330 1599.44C3332.47 1597.55 3340.8 1591.21 3348.5 1585.36C3356.2 1579.5 3366.32 1572.16 3371 1569.04C3375.67 1565.92 3383.32 1561.07 3388 1558.28C3392.67 1555.48 3400.77 1550.87 3406 1548.04C3411.22 1545.21 3422.7 1539.57 3431.5 1535.52C3440.3 1531.48 3451.1 1526.73 3455.5 1524.98C3459.9 1523.22 3472.72 1518.71 3484 1514.96C3495.27 1511.2 3511.47 1506.33 3520 1504.14C3528.52 1501.95 3540.22 1499.29 3545.99 1498.23C3551.76 1497.16 3557.84 1496.08 3559.49 1495.81C3561.15 1495.54 3564.86 1495.25 3567.75 1495.16ZM3577 1722.1C3583.32 1722.04 3591.2 1722.51 3594.5 1723.15C3599.79 1724.18 3601.16 1724.98 3606.08 1729.91C3610.66 1734.49 3611.9 1736.49 3612.98 1741C3614.03 1745.41 3614.06 1748.19 3613.11 1755C3612.32 1760.63 3611.01 1765.16 3609.21 1768.42C3607.72 1771.12 3604.66 1775.4 3602.41 1777.92C3600.16 1780.44 3595.21 1784.83 3591.41 1787.68C3587.61 1790.53 3582.47 1793.75 3580 1794.84C3577.52 1795.94 3571.45 1797.29 3566.5 1797.86C3561.55 1798.42 3549.17 1799.36 3539 1799.95C3528.82 1800.53 3507.22 1801.69 3491 1802.53C3474.77 1803.37 3457 1804.55 3451.5 1805.15C3446 1805.75 3437.67 1806.05 3433 1805.8C3426.77 1805.48 3423.3 1804.75 3420 1803.07C3417.52 1801.81 3414.22 1799.59 3412.66 1798.14C3411.1 1796.69 3409.23 1794.37 3408.5 1793C3407.77 1791.62 3406.84 1787.8 3406.43 1784.5C3405.75 1779.09 3405.96 1777.91 3408.56 1772.5C3410.14 1769.2 3411.34 1765.94 3411.22 1765.25C3411.1 1764.56 3412.01 1763.72 3413.25 1763.37C3414.49 1763.02 3416.74 1761.9 3418.25 1760.87C3419.76 1759.84 3423.14 1758.61 3425.75 1758.14C3428.36 1757.66 3435.9 1755.59 3442.5 1753.54C3449.1 1751.49 3466.42 1746.46 3481 1742.36C3495.57 1738.26 3514.7 1733.17 3523.5 1731.04C3532.3 1728.92 3543.1 1726.46 3547.5 1725.58C3551.9 1724.7 3557.75 1723.58 3560.5 1723.1C3563.25 1722.62 3570.67 1722.17 3577 1722.1ZM3503 1930.05C3506.57 1930.04 3513.32 1930.46 3518 1930.97C3522.67 1931.49 3531.9 1932.61 3538.5 1933.46C3545.1 1934.31 3557.02 1935.44 3565 1935.97C3572.97 1936.49 3588.72 1937.18 3600 1937.51C3611.27 1937.84 3623.2 1938.56 3626.5 1939.12C3629.8 1939.69 3634.3 1941.19 3636.5 1942.47C3638.7 1943.75 3643.24 1947.66 3646.59 1951.15C3649.95 1954.64 3653.49 1959.07 3654.47 1961C3655.93 1963.85 3656.16 1966.08 3655.73 1973C3655.44 1977.67 3654.64 1983.3 3653.96 1985.5C3653.27 1987.7 3650.64 1991.69 3648.11 1994.36C3645.57 1997.03 3641.47 2000.38 3639 2001.79C3634.76 2004.21 3633.95 2004.32 3625 2003.74C3619.77 2003.4 3611.22 2002.17 3606 2001.01C3600.77 1999.84 3592.9 1997.99 3588.5 1996.88C3584.1 1995.77 3562.05 1989.5 3539.5 1982.95C3516.95 1976.4 3496.59 1970.13 3494.25 1969.02C3491.91 1967.91 3488.95 1965.54 3487.66 1963.75C3486.38 1961.96 3484.58 1958.47 3483.67 1956C3482.76 1953.52 3482.01 1950.26 3482.01 1948.75C3482 1947.24 3482.86 1944.31 3483.91 1942.25C3484.96 1940.19 3487.33 1937.1 3489.16 1935.38C3491 1933.67 3493.4 1931.77 3494.5 1931.16C3495.6 1930.56 3499.42 1930.06 3503 1930.05ZM1322 2543.76C1323.92 2544.06 1327.3 2545.07 1329.5 2546.01C1331.7 2546.94 1335.04 2549.01 1336.93 2550.61C1338.9 2552.27 1341.6 2556.26 1343.28 2560C1344.89 2563.57 1347.09 2570.77 1348.17 2576C1349.24 2581.22 1350.79 2590.45 1351.61 2596.5C1352.43 2602.55 1353.54 2611.55 1354.08 2616.5C1354.62 2621.45 1355.51 2631.12 1356.06 2638C1356.61 2644.87 1357.71 2660.85 1358.51 2673.5C1359.31 2686.15 1360.2 2700.77 1360.49 2706C1360.78 2711.22 1361.46 2724.95 1362 2736.5C1362.54 2748.05 1363.72 2783.15 1364.62 2814.5C1365.53 2846.58 1365.98 2880.68 1365.64 2892.5C1365.31 2904.05 1364.7 2914.53 1364.27 2915.79C1363.85 2917.06 1362.71 2918.29 1361.75 2918.54C1360.79 2918.79 1356.06 2917.7 1351.25 2916.11C1346.44 2914.52 1329.9 2907.82 1314.5 2901.22C1299.1 2894.62 1278.85 2885.75 1269.5 2881.51C1260.15 2877.27 1245.3 2870.15 1236.5 2865.69C1227.13 2860.94 1219.03 2856.11 1216.95 2854.04C1214.92 2852.01 1213.1 2849 1212.69 2847C1212.3 2845.07 1211.98 2840.91 1211.99 2837.75C1211.99 2834.59 1212.46 2827.61 1213.02 2822.25C1213.59 2816.89 1215.18 2805.07 1216.58 2796C1217.97 2786.92 1221.15 2768.92 1223.64 2756C1226.14 2743.07 1228.58 2730.92 1229.08 2729C1229.58 2727.07 1231.8 2717.85 1234.02 2708.5C1236.24 2699.15 1239.67 2685.42 1241.63 2678C1243.6 2670.57 1246.32 2660.67 1247.69 2656C1249.05 2651.32 1251.75 2642.32 1253.69 2636C1255.63 2629.67 1260.14 2617.07 1263.72 2608C1267.29 2598.92 1272.69 2586.55 1275.72 2580.5C1278.75 2574.45 1283.2 2566.46 1285.61 2562.75C1288.08 2558.95 1292.08 2554.48 1294.75 2552.51C1297.36 2550.6 1301.97 2548.08 1305 2546.93C1308.02 2545.77 1312.3 2544.46 1314.5 2544.02C1316.7 2543.58 1320.07 2543.47 1322 2543.76ZM3283 2543.61C3285.47 2543.96 3289.97 2545.1 3293 2546.15C3296.02 2547.2 3300.86 2549.62 3303.75 2551.53C3306.64 2553.44 3310.56 2557.14 3312.46 2559.75C3314.36 2562.36 3318.38 2569 3321.38 2574.5C3324.39 2580 3329.54 2591.02 3332.83 2599C3336.11 2606.97 3340.62 2618.9 3342.85 2625.5C3345.08 2632.1 3348.67 2643.57 3350.84 2651C3353.01 2658.42 3356.39 2670.57 3358.36 2678C3360.33 2685.42 3363.76 2699.15 3365.99 2708.5C3368.21 2717.85 3370.51 2727.52 3371.09 2730C3371.67 2732.47 3372.54 2736.3 3373.02 2738.5C3373.5 2740.7 3374.36 2744.75 3374.92 2747.5C3375.47 2750.25 3377.04 2758.35 3378.4 2765.5C3379.76 2772.65 3381.17 2780.75 3381.53 2783.5C3381.89 2786.25 3382.84 2792.32 3383.62 2797C3384.41 2801.67 3385.72 2811.35 3386.52 2818.5C3387.32 2825.65 3387.99 2834.2 3388 2837.5C3388.01 2840.8 3387.7 2845.07 3387.31 2847C3386.9 2849 3385.08 2852.01 3383.05 2854.04C3380.97 2856.11 3372.87 2860.93 3363.5 2865.68C3354.7 2870.14 3337.82 2878.16 3326 2883.49C3314.17 2888.82 3294.15 2897.59 3281.5 2902.98C3268.85 2908.37 3254.22 2914.24 3249 2916.02C3241.19 2918.69 3239.1 2919.06 3237.25 2918.13C3235.78 2917.39 3234.77 2915.71 3234.33 2913.25C3233.95 2911.19 3234.19 2891.72 3234.85 2870C3235.5 2848.27 3236.04 2820.37 3236.05 2808C3236.05 2795.62 3236.48 2772.45 3237 2756.5C3237.52 2740.55 3238.4 2718.95 3238.96 2708.5C3239.51 2698.05 3240.64 2680.27 3241.46 2669C3242.29 2657.72 3243.41 2642.87 3243.95 2636C3244.49 2629.12 3245.39 2619.22 3245.95 2614C3246.5 2608.77 3247.65 2599.77 3248.5 2594C3249.35 2588.22 3250.44 2581.7 3250.91 2579.5C3251.39 2577.3 3252.39 2573.05 3253.14 2570.05C3253.89 2567.05 3255.85 2561.89 3257.5 2558.58C3259.15 2555.28 3262.07 2551.33 3264 2549.81C3265.92 2548.28 3269.97 2546.13 3273 2545.02C3276.99 2543.55 3279.73 2543.16 3283 2543.61ZM2102.25 2617.05C2104.31 2617.02 2107.69 2617.84 2109.75 2618.86C2111.81 2619.89 2114.79 2622.25 2116.37 2624.11C2117.95 2625.98 2120.05 2629.07 2121.03 2631C2122.01 2632.92 2123.75 2636.97 2124.89 2640C2126.03 2643.02 2128.5 2652.25 2130.37 2660.5C2132.24 2668.75 2134.51 2680.45 2135.42 2686.5C2136.33 2692.55 2137.51 2700.31 2138.04 2703.75C2138.57 2707.19 2139.44 2712.81 2139.98 2716.25C2140.52 2719.69 2142.34 2732.62 2144.01 2745C2145.68 2757.37 2147.47 2770.42 2147.99 2774C2148.5 2777.57 2150.05 2788.82 2151.42 2799C2152.79 2809.17 2155.06 2826.05 2156.45 2836.5C2157.85 2846.95 2159.42 2858.42 2159.94 2862C2160.46 2865.57 2161.35 2872.1 2161.92 2876.5C2162.48 2880.9 2163.64 2890.35 2164.49 2897.5C2165.34 2904.65 2166.47 2913.87 2167.01 2918C2167.55 2922.12 2168.69 2931.8 2169.54 2939.5C2170.39 2947.2 2172.17 2962.5 2173.5 2973.5C2174.83 2984.5 2176.37 2998.67 2176.91 3005C2177.46 3011.32 2178.44 3028.65 2179.1 3043.5C2179.75 3058.35 2180.08 3075 2179.81 3080.5C2179.55 3086.1 2178.71 3091.8 2177.92 3093.44C2176.95 3095.46 2175.4 3096.67 2173 3097.29C2170.84 3097.85 2162.61 3097.77 2151.5 3097.08C2141.6 3096.47 2126.52 3095.32 2118 3094.53C2109.47 3093.73 2098.22 3092.64 2093 3092.1C2087.77 3091.56 2076.97 3090.43 2069 3089.59C2061.02 3088.76 2050.22 3087.59 2045 3087.01C2039.77 3086.43 2031.67 3085.51 2027 3084.98C2022.32 3084.45 2013.1 3083.52 2006.5 3082.92C1999.9 3082.31 1992.06 3081.52 1983.67 3080.5L1983.9 3044C1984.03 3023.92 1984.55 3001.87 1985.05 2995C1985.56 2988.12 1986.4 2978.67 1986.92 2974C1987.43 2969.32 1989.01 2958.3 1990.42 2949.5C1991.83 2940.7 1993.42 2931.02 1993.94 2928C1994.46 2924.97 1995.83 2917.32 1996.99 2911C1998.14 2904.67 2000.41 2892.97 2002.03 2885C2003.65 2877.02 2007.73 2858.35 2011.09 2843.5C2014.45 2828.65 2017.81 2813.8 2018.56 2810.5C2019.31 2807.2 2022.83 2793.02 2026.39 2779C2029.95 2764.97 2034.22 2748.55 2035.87 2742.5C2037.53 2736.45 2039.99 2727.67 2041.35 2723C2042.7 2718.32 2045.63 2708.65 2047.85 2701.5C2050.07 2694.35 2053.53 2683.77 2055.55 2678C2057.57 2672.22 2061.3 2662.77 2063.83 2657C2066.37 2651.22 2070.04 2644.14 2071.98 2641.26C2073.91 2638.38 2078.65 2632.82 2082.5 2628.89C2086.35 2624.96 2091.52 2620.7 2094 2619.42C2096.47 2618.14 2100.19 2617.07 2102.25 2617.05ZM2498 2617.04C2499.92 2617.03 2503.52 2618.02 2506 2619.22C2508.47 2620.43 2513.58 2624.59 2517.35 2628.46C2521.12 2632.33 2525.86 2637.97 2527.87 2641C2529.89 2644.02 2533.62 2651.22 2536.16 2657C2538.7 2662.77 2542.43 2672.22 2544.45 2678C2546.47 2683.77 2549.94 2694.35 2552.17 2701.5C2554.4 2708.65 2557.33 2718.32 2558.68 2723C2560.04 2727.67 2562.49 2736.45 2564.14 2742.5C2565.79 2748.55 2570.05 2764.97 2573.61 2779C2577.17 2793.02 2580.69 2807.2 2581.44 2810.5C2582.19 2813.8 2585.55 2828.65 2588.91 2843.5C2592.27 2858.35 2596.35 2877.02 2597.97 2885C2599.59 2892.97 2601.86 2904.67 2603.01 2911C2604.17 2917.32 2606.19 2929.02 2607.51 2937C2608.83 2944.97 2610.58 2956.22 2611.4 2962C2612.21 2967.77 2613.4 2978.12 2614.04 2985C2614.67 2991.87 2615.52 3015.95 2615.92 3038.5C2616.33 3061.05 2616.4 3079.8 2616.08 3080.16C2615.76 3080.52 2607.62 3081.55 2598 3082.45C2588.37 3083.34 2577.12 3084.47 2573 3084.95C2568.87 3085.43 2561 3086.33 2555.5 3086.95C2550 3087.57 2538.97 3088.76 2531 3089.59C2523.02 3090.43 2512.22 3091.56 2507 3092.1C2501.77 3092.64 2490.52 3093.73 2482 3094.53C2473.47 3095.32 2458.4 3096.47 2448.5 3097.08C2437.39 3097.77 2429.16 3097.85 2427 3097.29C2424.64 3096.68 2423.01 3095.42 2422 3093.44C2420.8 3091.08 2420.51 3086.23 2420.56 3069C2420.59 3057.17 2421.16 3037.6 2421.82 3025.5C2422.47 3013.4 2423.66 2997.87 2424.44 2991C2425.23 2984.12 2426.82 2969.95 2427.97 2959.5C2429.13 2949.05 2430.71 2934.87 2431.5 2928C2432.29 2921.12 2433.41 2911.9 2434 2907.5C2434.58 2903.1 2435.75 2894.32 2436.59 2888C2437.43 2881.67 2438.51 2873.8 2438.99 2870.5C2439.47 2867.2 2440.36 2860.67 2440.96 2856C2441.57 2851.32 2442.75 2842.77 2443.59 2837C2444.43 2831.22 2445.77 2821.32 2446.58 2815C2447.39 2808.67 2448.48 2800.12 2448.99 2796C2449.5 2791.87 2450.4 2784.9 2450.99 2780.5C2451.58 2776.1 2452.75 2767.32 2453.59 2761C2454.43 2754.67 2455.5 2746.8 2455.98 2743.5C2456.46 2740.2 2457.34 2733.9 2457.94 2729.5C2458.53 2725.1 2459.47 2718.69 2460.01 2715.25C2460.56 2711.81 2461.44 2706.19 2461.99 2702.75C2462.53 2699.31 2463.68 2692 2464.54 2686.5C2465.4 2681 2467.47 2670.2 2469.16 2662.5C2470.84 2654.8 2473.13 2645.8 2474.25 2642.5C2475.36 2639.2 2477.28 2634.47 2478.51 2632C2479.74 2629.52 2482.04 2625.96 2483.62 2624.08C2485.21 2622.2 2488.3 2619.84 2490.5 2618.85C2492.7 2617.86 2496.07 2617.04 2498 2617.04ZM1709.5 2677.59C1715.12 2677.89 1719.79 2678.71 1721.93 2679.79C1723.81 2680.73 1727.3 2683.75 1729.68 2686.5C1732.37 2689.61 1735.28 2694.71 1737.38 2700C1739.24 2704.67 1741.68 2712.32 1742.81 2717C1743.93 2721.67 1745.76 2730.9 1746.87 2737.5C1747.98 2744.1 1749.57 2755.57 1750.41 2763C1751.25 2770.42 1752.42 2782.57 1753.01 2790C1753.59 2797.42 1754.52 2810.02 1755.05 2818C1755.59 2825.97 1756.69 2843.97 1757.49 2858C1758.28 2872.02 1759.19 2888.22 1759.5 2894C1759.81 2899.77 1760.28 2907.42 1760.55 2911C1760.82 2914.57 1761.46 2933.47 1761.97 2953C1762.51 2973.75 1762.53 2997.02 1762.02 3009C1761.54 3020.27 1760.93 3030.17 1760.66 3031C1760.39 3031.82 1759.9 3033.74 1759.58 3035.25C1759.07 3037.66 1758.54 3038 1755.25 3037.99C1753.19 3037.98 1745.87 3036.14 1739 3033.9C1732.12 3031.65 1720.42 3028.09 1713 3025.98C1705.57 3023.87 1695.67 3021.23 1691 3020.11C1686.32 3018.99 1676.42 3016.77 1669 3015.17C1661.57 3013.57 1652.35 3011.7 1648.5 3011.02C1644.65 3010.34 1636.77 3008.66 1631 3007.29C1625.22 3005.91 1617.12 3003.67 1613 3002.29C1608.87 3000.92 1604.6 2999.31 1603.5 2998.73C1601.56 2997.7 1601.52 2997.02 1602.21 2976.08C1602.6 2964.21 1603.4 2951.35 1603.98 2947.5C1604.56 2943.65 1605.74 2935.77 1606.61 2930C1607.47 2924.22 1608.83 2915.67 1609.63 2911C1610.43 2906.32 1611.96 2897.32 1613.02 2891C1614.09 2884.67 1615.41 2877.7 1615.95 2875.5C1616.5 2873.3 1618.36 2865.2 1620.1 2857.5C1621.84 2849.8 1623.83 2841.02 1624.52 2838C1625.22 2834.97 1626.95 2827.32 1628.36 2821C1629.78 2814.67 1631.65 2806.8 1632.52 2803.5C1633.4 2800.2 1635.92 2790.97 1638.13 2783C1640.34 2775.02 1643.95 2762.87 1646.15 2756C1648.36 2749.12 1652.43 2737.42 1655.2 2730C1657.97 2722.57 1661.81 2713.35 1663.73 2709.5C1665.66 2705.65 1669.32 2699.37 1671.87 2695.55C1674.41 2691.72 1678.75 2686.83 1681.5 2684.67C1684.25 2682.52 1687.62 2680.32 1689 2679.78C1690.37 2679.25 1693.52 2678.42 1696 2677.96C1698.47 2677.49 1704.55 2677.32 1709.5 2677.59ZM2893 2677.11C2895.47 2677.04 2899.97 2677.45 2903 2678.03C2906.02 2678.61 2910.07 2679.85 2912 2680.78C2913.92 2681.71 2918.43 2685.4 2922.01 2688.98C2925.81 2692.8 2930.38 2698.82 2933.01 2703.49C2935.48 2707.88 2939.58 2716.66 2942.12 2722.99C2944.65 2729.32 2949.24 2742.15 2952.3 2751.5C2955.37 2760.85 2959.68 2775.02 2961.89 2783C2964.09 2790.97 2966.6 2800.2 2967.48 2803.5C2968.35 2806.8 2970.22 2814.67 2971.64 2821C2973.05 2827.32 2974.78 2834.97 2975.48 2838C2976.17 2841.02 2978.16 2849.8 2979.9 2857.5C2981.64 2865.2 2983.5 2873.3 2984.05 2875.5C2984.59 2877.7 2985.95 2884.9 2987.08 2891.5C2988.2 2898.1 2989.55 2905.97 2990.07 2909C2990.6 2912.02 2991.73 2919 2992.58 2924.5C2993.44 2930 2994.78 2939.22 2995.56 2945C2996.34 2950.77 2997.32 2965.02 2998.5 2997.81L2992.5 3000.46C2989.2 3001.92 2981.32 3004.42 2975 3006C2968.67 3007.59 2961.7 3009.17 2959.5 3009.53C2957.3 3009.88 2952.12 3010.83 2948 3011.64C2943.87 3012.45 2935.32 3014.23 2929 3015.59C2922.67 3016.95 2913.67 3018.99 2909 3020.1C2904.32 3021.22 2894.42 3023.87 2887 3025.98C2879.57 3028.09 2867.87 3031.65 2861 3033.9C2854.12 3036.14 2846.81 3037.98 2844.75 3037.99C2841.46 3038 2840.93 3037.66 2840.42 3035.25C2840.1 3033.74 2839.61 3031.82 2839.34 3031C2839.07 3030.17 2838.46 3020.27 2837.98 3009C2837.47 2997.02 2837.49 2973.75 2838.03 2953C2838.54 2933.47 2839.18 2914.57 2839.45 2911C2839.72 2907.42 2840.19 2899.77 2840.5 2894C2840.81 2888.22 2841.72 2872.02 2842.51 2858C2843.31 2843.97 2844.41 2825.97 2844.95 2818C2845.48 2810.02 2846.41 2797.42 2846.99 2790C2847.58 2782.57 2848.75 2770.42 2849.59 2763C2850.43 2755.57 2852.02 2744.1 2853.13 2737.5C2854.24 2730.9 2856.07 2721.67 2857.19 2717C2858.32 2712.32 2860.75 2704.67 2862.61 2700C2864.89 2694.23 2867.52 2689.73 2870.81 2686C2874.47 2681.84 2876.73 2680.2 2880.07 2679.28C2882.51 2678.61 2885.4 2677.88 2886.5 2677.65C2887.6 2677.42 2890.52 2677.17 2893 2677.11ZM1008.5 3346.06C1013.2 3345.97 1015.25 3346.44 1017.95 3348.22C1019.85 3349.47 1022.66 3352.52 1024.19 3355C1025.71 3357.47 1027.44 3361.97 1028.02 3365C1028.59 3368.02 1028.78 3372.3 1028.44 3374.5C1028.09 3376.7 1027.18 3379.51 1026.4 3380.75C1025.42 3382.32 1025.3 3383.45 1026 3384.5C1026.55 3385.32 1026.77 3386.45 1026.5 3387C1026.22 3387.55 1023.19 3389.4 1019.75 3391.11C1016.31 3392.82 1010.12 3396.79 1006 3399.94C1001.87 3403.09 995.12 3407.92 991 3410.68C986.87 3413.44 974.27 3421.33 963 3428.21C951.72 3435.09 932.6 3446.69 920.5 3453.99C908.4 3461.29 889.5 3472.44 878.5 3478.76C867.5 3485.09 850.85 3494.23 841.5 3499.08C832.15 3503.94 818.42 3510.66 811 3514.03C803.57 3517.4 792.1 3522.1 785.5 3524.48C778.9 3526.86 770.35 3529.63 766.5 3530.65C761.98 3531.84 756.13 3532.48 750 3532.46C741.11 3532.43 739.99 3532.18 732.5 3528.64C728.1 3526.55 722.73 3523.42 720.57 3521.67C718.19 3519.75 715.54 3516.14 713.82 3512.5C712.02 3508.67 711.01 3504.87 711.01 3502C711.02 3499.52 711.63 3495.47 712.38 3493C713.13 3490.52 715.43 3485.12 717.51 3481C719.58 3476.87 722.95 3471.02 724.99 3468C727.04 3464.97 730.96 3460.02 733.7 3457C736.45 3453.97 742.03 3448.96 746.1 3445.85C750.17 3442.75 758.45 3437.38 764.5 3433.92C770.55 3430.46 779.32 3425.86 784 3423.69C788.67 3421.52 795.42 3418.64 799 3417.27C802.57 3415.9 821.25 3409.41 840.5 3402.84C859.75 3396.26 878.2 3389.97 881.5 3388.85C884.8 3387.73 896.5 3383.52 907.5 3379.51C918.5 3375.49 935.37 3369.05 945 3365.21C954.62 3361.37 966.55 3356.76 971.5 3354.97C976.45 3353.18 985.45 3350.47 991.5 3348.95C997.55 3347.42 1005.2 3346.12 1008.5 3346.06ZM3591.25 3346.06C3593.86 3346.03 3599.94 3346.91 3604.75 3348.03C3609.56 3349.14 3617.1 3351.22 3621.5 3352.64C3625.9 3354.07 3640.75 3359.66 3654.5 3365.07C3668.25 3370.48 3687.82 3377.9 3698 3381.57C3708.17 3385.23 3734.05 3394.21 3755.5 3401.52C3776.95 3408.83 3797.42 3415.93 3801 3417.3C3804.57 3418.67 3811.32 3421.55 3816 3423.71C3820.67 3425.87 3829.45 3430.47 3835.5 3433.95C3841.55 3437.43 3849.65 3442.63 3853.5 3445.51C3857.35 3448.39 3862.93 3453.39 3865.89 3456.62C3868.86 3459.86 3872.96 3464.97 3875.01 3468C3877.05 3471.02 3880.42 3476.87 3882.49 3481C3884.57 3485.12 3886.87 3490.52 3887.62 3493C3888.37 3495.47 3888.98 3499.52 3888.99 3502C3888.99 3504.87 3887.98 3508.67 3886.18 3512.5C3884.46 3516.14 3881.81 3519.75 3879.43 3521.67C3877.27 3523.42 3871.9 3526.55 3867.5 3528.64C3860.01 3532.18 3858.89 3532.43 3850 3532.46C3843.87 3532.48 3838.02 3531.84 3833.5 3530.65C3829.65 3529.63 3821.1 3526.85 3814.5 3524.47C3807.9 3522.09 3797.32 3517.8 3791 3514.95C3784.67 3512.1 3773.65 3506.84 3766.5 3503.25C3759.35 3499.67 3747.42 3493.36 3740 3489.23C3732.57 3485.09 3718.4 3476.99 3708.5 3471.22C3698.6 3465.45 3683.07 3456.22 3674 3450.71C3664.92 3445.19 3648.27 3435.06 3637 3428.19C3625.72 3421.32 3613.12 3413.44 3609 3410.67C3604.87 3407.91 3597.89 3402.91 3593.47 3399.57C3589.05 3396.23 3582.63 3392.15 3579.2 3390.5C3575.77 3388.85 3572.96 3387.05 3572.96 3386.5C3572.96 3385.95 3573.46 3385.05 3574.07 3384.5C3574.87 3383.78 3574.66 3382.67 3573.34 3380.54C3571.94 3378.29 3571.51 3375.68 3571.55 3369.54C3571.59 3363.37 3572.09 3360.57 3573.71 3357.5C3574.87 3355.3 3577.1 3352.29 3578.66 3350.81C3580.22 3349.33 3582.62 3347.67 3584 3347.12C3585.37 3346.57 3588.64 3346.1 3591.25 3346.06ZM1106.5 3448.56C1108.7 3448.87 1112.52 3450.01 1115 3451.11C1117.47 3452.21 1120.79 3454.32 1122.37 3455.8C1123.95 3457.29 1125.87 3459.96 1126.62 3461.75C1127.38 3463.54 1128.01 3467.59 1128.01 3470.75C1128.03 3475.4 1127.48 3477.36 1125.13 3481C1123.54 3483.47 1119.6 3488.03 1116.37 3491.12C1113.14 3494.2 1103.71 3502.53 1095.4 3509.62C1087.1 3516.7 1075.85 3526.09 1070.4 3530.49C1064.96 3534.88 1056.22 3542.05 1051 3546.42C1045.77 3550.79 1037.22 3558.05 1032 3562.55C1026.77 3567.05 1018.45 3573.77 1013.5 3577.5C1008.55 3581.22 998.2 3588.43 990.5 3593.51C982.8 3598.59 970.87 3606.02 964 3610.02C957.12 3614.02 944.97 3620.5 937 3624.42C929.02 3628.34 919.35 3632.54 915.5 3633.76C911.65 3634.97 906.02 3636.43 903 3636.99C899.97 3637.56 895.14 3638.02 892.25 3638.01C889.36 3638 885.87 3637.55 884.5 3637C883.12 3636.45 880.12 3634.31 877.83 3632.25C875.54 3630.19 872.38 3626.47 870.82 3624C868.61 3620.52 867.97 3618.32 867.99 3614.25C867.99 3610.91 869.11 3605.99 871.03 3600.75C872.7 3596.21 875.68 3589.57 877.65 3586C879.62 3582.42 883.59 3576.12 886.49 3572C889.38 3567.87 894.41 3562.02 897.66 3559C900.92 3555.97 907.16 3550.62 911.54 3547.1C915.92 3543.58 923.32 3538.14 928 3535C932.67 3531.87 940.55 3526.83 945.5 3523.8C950.45 3520.78 958.55 3516.04 963.5 3513.28C968.45 3510.52 977.22 3505.9 983 3503C988.77 3500.11 1004.07 3492.9 1017 3486.99C1029.92 3481.08 1051.07 3471.17 1064 3464.97C1076.92 3458.77 1090.87 3452.42 1095 3450.85C1100.56 3448.74 1103.53 3448.15 1106.5 3448.56ZM3495.5 3448.5C3497.7 3448.74 3507.6 3452.51 3517.5 3456.86C3527.4 3461.22 3550.12 3471.58 3568 3479.88C3585.87 3488.19 3608.82 3499.15 3619 3504.24C3629.17 3509.33 3642.45 3516.44 3648.5 3520.04C3654.55 3523.64 3664 3529.58 3669.5 3533.24C3675 3536.89 3683.31 3542.95 3687.97 3546.69C3692.63 3550.44 3699.09 3555.97 3702.34 3559C3705.59 3562.02 3710.62 3567.87 3713.51 3572C3716.41 3576.12 3720.38 3582.42 3722.35 3586C3724.32 3589.57 3727.3 3596.21 3728.97 3600.75C3730.89 3605.99 3732.01 3610.91 3732.01 3614.25C3732.03 3618.32 3731.39 3620.52 3729.18 3624C3727.62 3626.47 3724.46 3630.19 3722.17 3632.25C3719.88 3634.31 3716.87 3636.45 3715.5 3637C3714.12 3637.55 3710.64 3638 3707.75 3638.01C3704.86 3638.02 3700.02 3637.56 3697 3636.99C3693.97 3636.43 3688.35 3634.97 3684.5 3633.76C3680.65 3632.54 3670.97 3628.34 3663 3624.42C3655.02 3620.5 3642.87 3614.02 3636 3610.02C3629.12 3606.02 3617.2 3598.59 3609.5 3593.51C3601.8 3588.43 3591.45 3581.22 3586.5 3577.5C3581.55 3573.77 3573.22 3567.05 3568 3562.55C3562.77 3558.05 3554.22 3550.79 3549 3546.42C3543.77 3542.05 3535.04 3534.88 3529.6 3530.49C3524.15 3526.09 3512.9 3516.7 3504.6 3509.62C3496.29 3502.53 3486.86 3494.2 3483.63 3491.12C3480.4 3488.03 3476.46 3483.47 3474.87 3481C3472.64 3477.54 3471.98 3475.35 3472 3471.5C3472.02 3468.75 3472.59 3464.74 3473.27 3462.59C3474.04 3460.14 3476.17 3457.25 3479 3454.81C3481.47 3452.67 3485.3 3450.28 3487.5 3449.49C3489.7 3448.7 3493.3 3448.26 3495.5 3448.5ZM1198.5 3543.06C1201.89 3543 1205.11 3543.76 1208.5 3545.41C1211.25 3546.75 1215.19 3549.68 1217.25 3551.92C1219.31 3554.17 1221.45 3557.69 1221.99 3559.75C1222.54 3561.81 1223 3565.3 1223.01 3567.5C1223.02 3569.7 1222.44 3573.52 1221.73 3576C1221.01 3578.47 1218.66 3582.97 1216.5 3586C1214.34 3589.02 1208.81 3596 1204.21 3601.5C1199.61 3607 1189.47 3619.15 1181.66 3628.5C1173.85 3637.85 1165.01 3648.65 1162.03 3652.5C1159.04 3656.35 1153.21 3663.32 1149.07 3668C1144.93 3672.67 1138.63 3679.65 1135.07 3683.5C1131.51 3687.35 1122.73 3696.36 1115.55 3703.52C1108.37 3710.69 1098.34 3720.03 1093.25 3724.27C1087.99 3728.67 1080.88 3733.48 1076.75 3735.45C1070.8 3738.27 1067.53 3739.09 1058.5 3740.02C1050.59 3740.83 1045.25 3740.86 1039.5 3740.09C1035.1 3739.51 1030.49 3738.35 1029.25 3737.52C1028.01 3736.68 1026.05 3733.86 1024.89 3731.25C1023.72 3728.64 1022.54 3724.47 1022.25 3722C1021.96 3719.52 1022.3 3714.35 1023 3710.5C1023.7 3706.65 1025.39 3700.35 1026.76 3696.5C1028.13 3692.65 1030.6 3686.8 1032.26 3683.5C1033.92 3680.2 1037.1 3674.8 1039.34 3671.5C1041.58 3668.2 1048.84 3660.1 1055.46 3653.5C1062.09 3646.9 1080.33 3630.45 1096.01 3616.94C1111.68 3603.43 1130.57 3587.3 1138 3581.09C1145.42 3574.88 1157.57 3565.23 1165 3559.65C1172.42 3554.07 1180.75 3548.54 1183.5 3547.36C1186.25 3546.18 1189.62 3544.75 1191 3544.17C1192.37 3543.6 1195.75 3543.1 1198.5 3543.06ZM3401 3543C3403.47 3543 3407.97 3543.91 3411 3545.02C3414.02 3546.14 3418.3 3548.12 3420.5 3549.42C3422.7 3550.72 3430.35 3556.27 3437.5 3561.76C3444.65 3567.24 3459.55 3579.33 3470.62 3588.62C3481.68 3597.9 3500.12 3613.6 3511.59 3623.5C3523.05 3633.4 3537.11 3646 3542.82 3651.5C3548.53 3657 3555.61 3664.65 3558.55 3668.5C3561.49 3672.35 3565.93 3679.77 3568.42 3685C3570.91 3690.22 3574.11 3699 3575.55 3704.5C3577.43 3711.75 3578.03 3716.15 3577.72 3720.5C3577.48 3723.8 3576.33 3728.64 3575.15 3731.25C3573.97 3733.86 3571.99 3736.69 3570.75 3737.52C3569.51 3738.36 3564.67 3739.52 3560 3740.1C3553.95 3740.85 3548.47 3740.83 3541 3740.05C3532.49 3739.15 3529.13 3738.29 3523.25 3735.47C3519.19 3733.53 3511.93 3728.6 3506.75 3724.27C3501.66 3720.03 3491.63 3710.69 3484.45 3703.52C3477.27 3696.36 3468.49 3687.35 3464.93 3683.5C3461.37 3679.65 3455.07 3672.67 3450.93 3668C3446.79 3663.32 3440.96 3656.35 3437.97 3652.5C3434.99 3648.65 3426.15 3637.85 3418.34 3628.5C3410.53 3619.15 3400.38 3607 3395.79 3601.5C3391.19 3596 3385.79 3589.25 3383.78 3586.5C3381.78 3583.75 3379.42 3579.47 3378.55 3577C3377.67 3574.52 3376.96 3570.47 3376.97 3568C3376.97 3565.52 3377.29 3561.92 3377.67 3560C3378.12 3557.75 3380 3554.88 3382.93 3551.97C3385.45 3549.48 3389.52 3546.44 3392 3545.22C3394.62 3543.93 3398.38 3543 3401 3543Z" />
</svg>