<svg version="1.2" baseProfile="tiny-ps" xmlns="http://www.w3.org/2000/svg" viewBox="0 0 713 288" width="713" height="288">
	<title>Path 0</title>
	<style>
		tspan { white-space:pre }
		.shp0 { opacity: 0.996;fill: #b4b5b7 } 
	</style>
	<path id="Path 0" fill-rule="evenodd" class="shp0" d="M169 0L213 0L213 96L218.25 91.47C221.14 88.97 225.75 85.88 228.5 84.59C231.25 83.31 235.97 81.68 239 80.99C242.45 80.19 248.04 79.91 254 80.24C260.1 80.57 265.47 81.5 269 82.83C272.02 83.98 277.65 87.11 281.5 89.79C285.35 92.48 290.45 96.88 292.84 99.59C295.22 102.29 298.69 106.97 300.54 110C302.39 113.02 304.99 118.65 306.32 122.5C307.65 126.35 309.31 132.87 309.99 137C310.78 141.72 311.04 149.13 310.71 157C310.35 165.45 309.47 171.93 308.01 177C306.82 181.13 304.22 187.65 302.22 191.5C299.74 196.3 295.91 201.21 290.05 207.12C284.42 212.79 279.45 216.77 275.5 218.76C272.2 220.43 266.8 222.57 263.5 223.53C258.99 224.83 255.01 225.16 247.5 224.85C238.51 224.48 236.74 224.08 230 220.83C224.96 218.4 220.94 215.54 213 207L213 220L169 220L169 0ZM227.5 124.2C225.85 125.06 222.73 127.73 220.56 130.13C218.39 132.53 215.72 136.52 214.62 139C213.09 142.42 212.61 145.65 212.61 152.5C212.61 159.35 213.09 162.58 214.62 166C215.72 168.47 218.39 172.47 220.56 174.87C222.73 177.28 226.3 180.15 228.5 181.26C231.2 182.61 234.46 183.27 238.5 183.26C241.8 183.25 246.07 182.59 248 181.8C249.92 181.01 253.27 178.59 255.44 176.43C257.6 174.27 260.53 170.02 261.94 167C264.09 162.38 264.5 160.06 264.5 152.5C264.5 144.96 264.09 142.61 261.95 138C260.55 134.97 257.4 130.57 254.95 128.2C252.5 125.84 249.15 123.51 247.5 123.04C245.85 122.56 242.92 121.96 241 121.7C239.07 121.45 235.92 121.55 234 121.94C232.07 122.33 229.15 123.34 227.5 124.2ZM60.5 80.04C66.05 80 71.61 80.6 75 81.6C78.02 82.49 82.3 84.15 84.5 85.28C86.7 86.41 90.65 89.4 98.08 96.5L98 84L142 84L142 220L98 220L98 207L93.12 212.25C89.74 215.9 85.99 218.56 80.87 220.96C74.59 223.9 72.17 224.47 64.5 224.82C59.35 225.06 52.93 224.69 49.5 223.96C46.2 223.26 40.35 221.1 36.5 219.16C31.6 216.68 27.09 213.21 21.47 207.56C15.69 201.77 12.26 197.25 9.27 191.5C6.97 187.1 4.1 179.9 2.89 175.5C1.06 168.89 0.67 164.9 0.67 152.5C0.67 140.14 1.06 136.09 2.87 129.5C4.08 125.1 6.71 118.13 8.71 114C11.47 108.3 14.4 104.43 20.92 97.87C26.16 92.6 31.64 88.16 35 86.46C38.02 84.92 42.97 82.87 46 81.89C49.51 80.75 54.76 80.08 60.5 80.04ZM60 126.14C57.39 127.64 54.12 130.77 52.2 133.61C50.39 136.3 48.19 140.97 47.32 144C46.26 147.71 45.95 151.29 46.37 155C46.71 158.02 48.03 162.75 49.31 165.5C50.58 168.25 53.18 172.07 55.08 174C56.98 175.92 60.32 178.35 62.51 179.39C65.04 180.6 68.7 181.29 72.5 181.3C75.94 181.3 80.21 180.58 82.5 179.6C84.7 178.67 88.19 176.24 90.25 174.2C92.32 172.17 95.19 167.8 96.64 164.5C98.96 159.21 99.22 157.55 98.81 150.5C98.49 144.99 97.67 141.18 96.17 138.25C94.98 135.91 92.54 132.39 90.75 130.42C88.96 128.45 85.7 126.02 83.5 125.01C81.3 124 77.7 122.95 75.5 122.68C73.3 122.41 69.92 122.5 68 122.88C66.07 123.26 62.47 124.72 60 126.14ZM550.5 80.05C556.55 80.02 564.2 80.46 567.5 81.04C570.8 81.62 577.25 83.31 581.83 84.8C589.09 87.15 590.09 87.76 589.63 89.5C589.34 90.6 586.15 97.69 582.55 105.25C578.95 112.81 575.89 119.01 575.75 119.03C575.61 119.04 573.02 117.93 570 116.56C566.97 115.18 562.14 113.6 559.25 113.03C556.36 112.46 552.31 112.24 550.25 112.54C548.19 112.83 545.49 113.96 544.25 115.04C543.01 116.12 541.73 118.01 541.39 119.25C541.06 120.49 541.06 122.74 541.39 124.25C541.73 125.76 543.24 127.78 544.75 128.74C546.26 129.7 552.11 131.72 557.75 133.24C563.39 134.76 570.59 137.29 573.75 138.87C577.22 140.59 581.41 143.87 584.31 147.12C587.04 150.17 590.01 154.88 591.17 158C592.36 161.17 593.44 167.09 593.73 172C594.1 178.04 593.78 182.31 592.62 186.75C591.73 190.19 589.99 195.14 588.76 197.75C587.52 200.36 583.81 205.35 580.51 208.84C576.59 212.97 572.24 216.31 568 218.43C564.42 220.22 557.9 222.5 553.5 223.48C547.19 224.9 542.86 225.17 533 224.75C524.01 224.37 518.53 223.6 513.5 222C509.65 220.77 503.12 218.06 499 215.97C494.87 213.88 490.68 211.57 489.69 210.83C487.98 209.58 488.33 208.51 495.52 193C499.72 183.92 503.35 176.39 503.58 176.25C503.81 176.11 506.81 177.55 510.25 179.45C513.69 181.35 518.52 183.61 521 184.48C523.47 185.35 528.2 186.47 531.5 186.98C534.97 187.51 539.39 187.53 542 187.02C544.81 186.48 547.17 185.28 548.29 183.83C549.28 182.55 550.07 180.04 550.04 178.25C550.02 176.16 549.11 174.11 547.5 172.5C546 171 542.1 169.18 537.75 167.95C533.76 166.82 526.9 164.76 522.5 163.36C518.1 161.97 512.7 159.58 510.5 158.05C508.3 156.52 505.26 153.52 503.75 151.39C502.24 149.25 500.35 145.7 499.57 143.5C498.78 141.3 497.83 136.57 497.44 133C497.03 129.19 497.22 123.6 497.9 119.5C498.54 115.65 500.36 109.8 501.95 106.5C503.53 103.2 506.84 98.25 509.3 95.5C511.77 92.75 516.19 89.05 519.14 87.27C522.09 85.5 527.87 83.16 532 82.08C537.16 80.73 542.94 80.09 550.5 80.05ZM670.25 80.08C677.47 80.03 684.98 80.62 689.75 81.61C694.01 82.49 700.2 84.2 703.5 85.41C706.8 86.62 709.43 88.04 709.34 88.56C709.25 89.08 706.19 96.02 702.54 104C698.89 111.97 695.7 118.61 695.45 118.75C695.2 118.89 692.64 117.92 689.75 116.59C686.86 115.26 681.8 113.7 678.5 113.11C674.56 112.41 671.13 112.38 668.5 113C666.3 113.53 663.71 114.75 662.75 115.73C661.78 116.7 660.88 119.18 660.75 121.23C660.56 124.08 661.09 125.57 663 127.5C664.78 129.31 668.65 130.88 676.5 133C682.55 134.63 689.97 137.19 693 138.69C696.02 140.19 700.32 143.23 702.54 145.46C704.77 147.68 707.92 152.2 709.54 155.5C712.38 161.25 712.5 162.06 712.5 188.5L708.65 196.5C705.96 202.09 703.09 206.16 699.13 210C696.01 213.02 690.54 216.94 686.98 218.7C683.42 220.46 677.57 222.59 674 223.43C670.23 224.33 662.89 224.97 656.5 224.98C648.92 224.98 642.94 224.37 637.25 222.99C632.71 221.9 626.19 219.73 622.75 218.17C619.31 216.61 614.43 214.02 607.3 209.5L614.9 192.77C619.08 183.57 622.84 176.04 623.25 176.02C623.66 176.01 626.14 177.26 628.75 178.8C631.36 180.33 635.86 182.58 638.75 183.8C641.64 185.01 647.04 186.43 650.75 186.96C655.03 187.56 658.97 187.56 661.5 186.96C663.7 186.44 666.3 185.22 667.28 184.25C668.41 183.15 669.06 181.02 669.06 178.5C669.05 175.68 668.38 173.83 666.78 172.23C665.24 170.69 660.13 168.74 651 166.2C643.57 164.13 635.47 161.27 633 159.84C630.52 158.41 626.9 155.5 624.94 153.37C622.98 151.24 620.36 146.8 619.12 143.5C617.38 138.9 616.85 135.4 616.85 128.5C616.84 122.2 617.45 117.55 618.88 113C620.01 109.42 622.29 104.36 623.96 101.75C625.63 99.14 628.73 95.31 630.84 93.25C632.95 91.19 637.34 88.06 640.59 86.3C643.84 84.54 649.2 82.44 652.5 81.64C655.89 80.8 663.61 80.13 670.25 80.08ZM370.31 84.5L378.9 103.06C383.63 113.28 390.65 128.46 394.5 136.81C398.35 145.16 401.78 151.66 402.13 151.25C402.47 150.84 406.67 141.72 411.45 131C416.23 120.27 422.93 105.3 432.5 83.95L457.25 83.98C470.86 83.99 482.01 84.11 482.01 84.25C482.02 84.39 476.57 95.97 469.91 110C463.25 124.02 447.92 156.42 435.84 182C423.76 207.57 407.5 241.9 385.5 288.04L337 288L339.38 282.75C340.69 279.86 347.72 264.9 355 249.5C362.28 234.1 370.37 217 377.68 201.5L366.17 178C359.84 165.07 346.86 138.86 337.33 119.75C327.8 100.64 320.01 84.77 320.02 84.48C320.03 84.2 331.35 84.09 370.31 84.5Z" />
</svg>